<svg width="188" height="11" viewBox="0 0 188 11" fill="none" xmlns="http://www.w3.org/2000/svg">
<path d="M21.2186 1L21.4716 0.568704L21.3544 0.5H21.2186V1ZM33.1541 8L32.9012 8.4313L33.0183 8.5H33.1541V8ZM182.333 8C182.333 9.47276 183.527 10.6667 185 10.6667C186.473 10.6667 187.667 9.47276 187.667 8C187.667 6.52724 186.473 5.33333 185 5.33333C183.527 5.33333 182.333 6.52724 182.333 8ZM0 1.5H21.2186V0.5H0V1.5ZM20.9657 1.4313L32.9012 8.4313L33.4071 7.5687L21.4716 0.568704L20.9657 1.4313ZM33.1541 8.5H185V7.5H33.1541V8.5Z" fill="#F38613"/>
</svg>
