<svg width="164" height="12" viewBox="0 0 164 12" fill="none" xmlns="http://www.w3.org/2000/svg">
<path d="M14.7994 11V11.5H14.9767L15.1144 11.3884L14.7994 11ZM24.6657 3V2.5H24.4885L24.3508 2.61163L24.6657 3ZM158.333 3C158.333 4.47276 159.527 5.66667 161 5.66667C162.473 5.66667 163.667 4.47276 163.667 3C163.667 1.52724 162.473 0.333333 161 0.333333C159.527 0.333333 158.333 1.52724 158.333 3ZM0 11.5H14.7994V10.5H0V11.5ZM15.1144 11.3884L24.9806 3.38837L24.3508 2.61163L14.4845 10.6116L15.1144 11.3884ZM24.6657 3.5H161V2.5H24.6657V3.5Z" fill="#F38613"/>
</svg>
