<svg width="279" height="502" viewBox="0 0 279 502" fill="none" xmlns="http://www.w3.org/2000/svg">
<g clip-path="url(#clip0_2013_85)">
<path d="M4.58475 77.5844C4.62825 77.3651 4.49471 77.4772 4.49471 77.4772C4.49471 77.4772 4.36114 77.5893 4.58475 77.5844Z" fill="#F38613" fill-opacity="0.55"/>
<path d="M10.2185 77.2441C10.3521 77.132 10.262 77.0247 10.262 77.0247C10.172 76.9174 10.0384 77.0296 10.0384 77.0296C9.90485 77.1417 9.99491 77.2489 9.99491 77.2489C9.99491 77.2489 10.0849 77.3562 10.2185 77.2441Z" fill="#F38613" fill-opacity="0.55"/>
<path d="M20.3525 73.8568C20.4861 73.7447 20.4861 73.7447 20.3525 73.8568C20.396 73.6374 20.2625 73.7495 20.2625 73.7495C20.2625 73.7495 20.2625 73.7495 20.3525 73.8568Z" fill="#F38613" fill-opacity="0.55"/>
<path d="M4.16163 81.9624C4.29519 81.8503 4.33867 81.6309 4.24862 81.5236C4.15857 81.4164 3.93498 81.4212 3.80142 81.5333C3.66787 81.6454 3.62437 81.8648 3.71442 81.9721C3.80447 82.0794 4.02808 82.0745 4.16163 81.9624Z" fill="#F38613" fill-opacity="0.55"/>
<path d="M16.1248 77.7712C16.2583 77.6591 16.1683 77.5518 16.1683 77.5518C16.0782 77.4445 15.9447 77.5566 15.9447 77.5566C15.8111 77.6688 15.9012 77.776 15.9012 77.776C15.9012 77.776 15.9912 77.8833 16.1248 77.7712Z" fill="#F38613" fill-opacity="0.55"/>
<path d="M27.3765 74.3602C27.42 74.1409 27.33 74.0336 27.1964 74.1457C27.0629 74.2578 27.0629 74.2578 27.3765 74.3602C27.1529 74.3651 27.243 74.4724 27.3765 74.3602Z" fill="#F38613" fill-opacity="0.55"/>
<path d="M9.58035 83.265C9.84746 83.0407 9.89096 82.8213 9.71086 82.6068C9.53076 82.3923 9.30715 82.3971 9.04004 82.6213C8.77294 82.8456 8.72943 83.065 8.90953 83.2795C9.08963 83.494 9.31324 83.4892 9.58035 83.265Z" fill="#F38613" fill-opacity="0.55"/>
<path d="M22.6616 79.0495C22.7952 78.9373 22.8387 78.718 22.7486 78.6107C22.6586 78.5034 22.435 78.5083 22.3014 78.6204C22.1679 78.7325 22.1244 78.9519 22.2144 79.0591C22.3045 79.1664 22.5281 79.1616 22.6616 79.0495Z" fill="#F38613" fill-opacity="0.55"/>
<path d="M34.8522 75.3995C34.7527 75.281 34.5525 75.2853 34.4049 75.4092C34.2574 75.533 34.2185 75.7295 34.3179 75.848C34.4174 75.9665 34.6176 75.9621 34.7651 75.8383C34.9127 75.7144 34.9516 75.518 34.8522 75.3995Z" fill="#F38613" fill-opacity="0.55"/>
<path d="M45.4849 73.4215C45.5284 73.2021 45.3048 73.207 45.3048 73.207C45.3048 73.207 45.1713 73.3191 45.4849 73.4215C45.2613 73.4264 45.3514 73.5336 45.4849 73.4215Z" fill="#F38613" fill-opacity="0.55"/>
<path d="M54.4238 72.1355C54.5574 72.0234 54.5574 72.0234 54.4238 72.1355C54.4673 71.9161 54.4673 71.9161 54.4238 72.1355C54.3338 72.0282 54.3338 72.0282 54.4238 72.1355Z" fill="#F38613" fill-opacity="0.55"/>
<path d="M0.453148 90.562C0.720254 90.3378 0.807242 89.899 0.627142 89.6845C0.447041 89.47 -0.00015159 89.4797 -0.267257 89.7039C-0.534363 89.9281 -0.621365 90.3669 -0.441264 90.5814C-0.261164 90.796 0.186043 90.7863 0.453148 90.562Z" fill="#F38613" fill-opacity="0.55"/>
<path d="M15.6302 85.3183C15.8973 85.0941 15.9407 84.8747 15.7606 84.6602C15.5805 84.4456 15.357 84.4505 15.0899 84.6747C14.8228 84.8989 14.7792 85.1183 14.9593 85.3329C15.1394 85.5474 15.4966 85.4304 15.6302 85.3183Z" fill="#F38613" fill-opacity="0.55"/>
<path d="M29.964 80.9663C30.0976 80.8542 30.1411 80.6348 30.051 80.5275C29.961 80.4203 29.7374 80.4251 29.6038 80.5372C29.4703 80.6493 29.4268 80.8687 29.5168 80.976C29.4733 81.1954 29.6969 81.1905 29.964 80.9663Z" fill="#F38613" fill-opacity="0.55"/>
<path d="M42.8267 77.848C42.9602 77.7359 43.0037 77.5165 42.9137 77.4093C42.8236 77.302 42.6 77.3068 42.4665 77.419C42.3329 77.5311 42.2894 77.7504 42.3795 77.8577C42.6031 77.8529 42.6931 77.9602 42.8267 77.848Z" fill="#F38613" fill-opacity="0.55"/>
<path d="M54.0855 75.5286C54.129 75.3092 54.039 75.2019 53.9054 75.314C53.7719 75.4262 53.8619 75.5334 54.0855 75.5286C53.952 75.6407 53.952 75.6407 54.0855 75.5286Z" fill="#F38613" fill-opacity="0.55"/>
<path d="M63.3369 74.3453C63.4705 74.2332 63.4705 74.2332 63.3369 74.3453C63.3804 74.126 63.3804 74.126 63.3369 74.3453C63.2469 74.2381 63.2469 74.2381 63.3369 74.3453Z" fill="#F38613" fill-opacity="0.55"/>
<path d="M6.59533 93.2685C6.99599 92.9322 7.08299 92.4934 6.81284 92.1716C6.54269 91.8498 6.09548 91.8595 5.69482 92.1958C5.29417 92.5322 5.20716 92.9709 5.47731 93.2927C5.61391 93.7267 6.19467 93.6049 6.59533 93.2685Z" fill="#F38613" fill-opacity="0.55"/>
<path d="M23.0713 88.2151C23.3384 87.9909 23.4254 87.5521 23.2453 87.3376C23.0652 87.123 22.618 87.1327 22.3509 87.3569C22.0838 87.5812 21.9968 88.02 22.1769 88.2345C22.357 88.449 22.8042 88.4393 23.0713 88.2151Z" fill="#F38613" fill-opacity="0.55"/>
<path d="M38.1643 83.956C38.4314 83.7318 38.4749 83.5124 38.2948 83.2979C38.1147 83.0833 37.8911 83.0882 37.624 83.3124C37.3569 83.5366 37.3134 83.756 37.4935 83.9705C37.6736 84.1851 38.0308 84.0681 38.1643 83.956Z" fill="#F38613" fill-opacity="0.55"/>
<path d="M51.8322 80.711C51.9657 80.5989 52.0092 80.3795 51.9192 80.2723C51.8291 80.165 51.6055 80.1698 51.472 80.282C51.3384 80.3941 51.2949 80.6135 51.385 80.7207C51.3415 80.9401 51.5651 80.9353 51.8322 80.711Z" fill="#F38613" fill-opacity="0.55"/>
<path d="M63.2713 78.6063C63.4048 78.4941 63.3148 78.3869 63.3148 78.3869C63.2247 78.2796 63.0912 78.3917 63.0912 78.3917C62.9576 78.5038 63.0477 78.6111 63.0477 78.6111L63.2713 78.6063Z" fill="#F38613" fill-opacity="0.55"/>
<path d="M72.7469 77.4178C72.8804 77.3057 72.7904 77.1984 72.7469 77.4178C72.7904 77.1984 72.5667 77.2033 72.5667 77.2033C72.5667 77.2033 72.4332 77.3154 72.7469 77.4178Z" fill="#F38613" fill-opacity="0.55"/>
<path d="M14.1287 96.8189C14.5294 96.4826 14.6164 96.0438 14.3462 95.722C14.0761 95.4002 13.6289 95.4099 13.2282 95.7463C12.8275 96.0826 12.7405 96.5214 13.0107 96.8432C13.1908 97.0577 13.728 97.1553 14.1287 96.8189Z" fill="#F38613" fill-opacity="0.55"/>
<path d="M31.6329 91.6339C31.9 91.4097 31.987 90.9709 31.8069 90.7564C31.6268 90.5419 31.1796 90.5515 30.9125 90.7758C30.6453 91 30.5583 91.4388 30.7384 91.6533C30.9185 91.8679 31.3658 91.8582 31.6329 91.6339Z" fill="#F38613" fill-opacity="0.55"/>
<path d="M47.4876 87.4675C47.7547 87.2433 47.7982 87.0239 47.6181 86.8093C47.438 86.5948 47.2144 86.5996 46.9473 86.8239C46.6802 87.0481 46.6367 87.2675 46.8168 87.482C46.9969 87.6966 47.354 87.5796 47.4876 87.4675Z" fill="#F38613" fill-opacity="0.55"/>
<path d="M61.4693 84.3246C61.6028 84.2125 61.6463 83.9931 61.5563 83.8858C61.4662 83.7786 61.2426 83.7834 61.1091 83.8955C60.9755 84.0076 60.932 84.227 61.0221 84.3343C61.1121 84.4416 61.3357 84.4367 61.4693 84.3246Z" fill="#F38613" fill-opacity="0.55"/>
<path d="M73.1306 82.2151C73.2642 82.103 73.1742 81.9958 73.1742 81.9958C73.0841 81.8885 72.9505 82.0006 72.9505 82.0006C72.817 82.1127 72.907 82.22 72.907 82.22C72.907 82.22 72.9971 82.3273 73.1306 82.2151Z" fill="#F38613" fill-opacity="0.55"/>
<path d="M82.3826 81.0317C82.4261 80.8123 82.2925 80.9244 82.2925 80.9244C82.2925 80.9244 82.159 81.0366 82.3826 81.0317Z" fill="#F38613" fill-opacity="0.55"/>
<path d="M89.0469 81.1057C89.1804 80.9936 89.1804 80.9936 89.0469 81.1057C89.1804 80.9936 89.0904 80.8863 89.0469 81.1057Z" fill="#F38613" fill-opacity="0.55"/>
<path d="M3.2735 107.212C3.80772 106.763 4.07176 105.993 3.62151 105.457C3.2613 105.028 2.50046 104.935 1.83269 105.495C1.29848 105.944 1.03442 106.714 1.48467 107.25C1.93492 107.787 2.73929 107.66 3.2735 107.212Z" fill="#F38613" fill-opacity="0.55"/>
<path d="M23.4107 101.096C23.8113 100.76 23.9419 100.101 23.6717 99.7796C23.4016 99.4578 22.7307 99.4723 22.3301 99.8087C21.9294 100.145 21.7989 100.803 22.0691 101.125C22.3392 101.447 23.01 101.432 23.4107 101.096Z" fill="#F38613" fill-opacity="0.55"/>
<path d="M41.8094 95.8913C42.21 95.555 42.297 95.1162 42.0269 94.7944C41.7567 94.4726 41.3095 94.4823 40.9089 94.8186C40.5082 95.155 40.4212 95.5938 40.6913 95.9156C40.9615 96.2374 41.4087 96.2277 41.8094 95.8913Z" fill="#F38613" fill-opacity="0.55"/>
<path d="M58.1104 91.7154C58.3775 91.4911 58.4645 91.0524 58.2844 90.8378C58.1043 90.6233 57.6571 90.633 57.39 90.8572C57.1229 91.0814 57.0359 91.5202 57.216 91.7347C57.3961 91.9493 57.8433 91.9396 58.1104 91.7154Z" fill="#F38613" fill-opacity="0.55"/>
<path d="M72.093 88.5726C72.3602 88.3484 72.4037 88.129 72.2236 87.9144C72.0435 87.6999 71.8199 87.7048 71.5528 87.929C71.4192 88.0411 71.2421 88.3726 71.4222 88.5871C71.6023 88.8017 71.8259 88.7968 72.093 88.5726Z" fill="#F38613" fill-opacity="0.55"/>
<path d="M83.5308 86.468C83.6643 86.3559 83.7078 86.1365 83.6178 86.0293C83.5277 85.922 83.3041 85.9268 83.1706 86.039C83.037 86.1511 82.9935 86.3705 83.0836 86.4777C83.1736 86.585 83.3972 86.5801 83.5308 86.468Z" fill="#F38613" fill-opacity="0.55"/>
<path d="M92.2928 85.5134C92.4263 85.4013 92.3363 85.294 92.2928 85.5134C92.3363 85.294 92.2462 85.1868 92.1127 85.2989C92.1127 85.2989 91.9791 85.411 92.2928 85.5134Z" fill="#F38613" fill-opacity="0.55"/>
<path d="M98.4197 85.4897C98.3297 85.3825 98.3297 85.3825 98.4197 85.4897C98.1961 85.4946 98.3297 85.3825 98.4197 85.4897Z" fill="#F38613" fill-opacity="0.55"/>
<path d="M13.5872 111.903C14.1214 111.455 14.2519 110.797 13.8917 110.368C13.5315 109.939 12.8607 109.953 12.3265 110.402C11.7923 110.85 11.6618 111.508 12.022 111.937C12.3822 112.366 13.053 112.352 13.5872 111.903Z" fill="#F38613" fill-opacity="0.55"/>
<path d="M34.5288 105.661C34.9295 105.324 35.06 104.666 34.7899 104.344C34.5197 104.022 33.8489 104.037 33.4482 104.373C33.0476 104.71 32.9171 105.368 33.1872 105.69C33.5474 106.119 34.1282 105.997 34.5288 105.661Z" fill="#F38613" fill-opacity="0.55"/>
<path d="M53.241 100.558C53.5081 100.334 53.7287 99.7832 53.4585 99.4614C53.2784 99.2469 52.7412 99.1493 52.3405 99.4856C51.9398 99.822 51.8528 100.261 52.123 100.583C52.5267 100.792 52.9739 100.783 53.241 100.558Z" fill="#F38613" fill-opacity="0.55"/>
<path d="M69.5423 96.3825C69.8094 96.1583 69.8529 95.9389 69.6728 95.7244C69.4927 95.5098 69.2691 95.5147 69.002 95.7389C68.7349 95.9631 68.6913 96.1825 68.8714 96.3971C69.0515 96.6116 69.2752 96.6068 69.5423 96.3825Z" fill="#F38613" fill-opacity="0.55"/>
<path d="M83.1665 93.3568C83.3001 93.2447 83.3436 93.0253 83.2535 92.9181C83.1635 92.8108 82.9399 92.8156 82.8063 92.9277C82.6728 93.0399 82.6293 93.2592 82.7193 93.3665C82.8094 93.4738 83.033 93.4689 83.1665 93.3568Z" fill="#F38613" fill-opacity="0.55"/>
<path d="M94.114 91.4813C94.2476 91.3691 94.1575 91.2619 94.1575 91.2619L93.9339 91.2667C93.8004 91.3788 93.8904 91.4861 93.8904 91.4861L94.114 91.4813Z" fill="#F38613" fill-opacity="0.55"/>
<path d="M102.338 90.4291C102.382 90.2097 102.248 90.3218 102.248 90.3218C102.025 90.3267 102.115 90.4339 102.338 90.4291C102.115 90.4339 102.205 90.5412 102.338 90.4291Z" fill="#F38613" fill-opacity="0.55"/>
<path d="M2.74373 124.48C3.54505 123.807 3.71906 122.93 3.17876 122.286C2.7285 121.75 1.74404 121.662 0.942724 122.334C0.274961 122.895 -0.0326021 123.885 0.5077 124.528C1.048 125.172 2.07597 125.04 2.74373 124.48Z" fill="#F38613" fill-opacity="0.55"/>
<path d="M26.4533 117.195C27.121 116.634 27.1615 115.869 26.8013 115.439C26.351 114.903 25.5467 115.03 25.0125 115.478C24.4783 115.927 24.3043 116.804 24.6645 117.233C24.8911 117.775 25.7855 117.755 26.4533 117.195Z" fill="#F38613" fill-opacity="0.55"/>
<path d="M47.7083 111.054C48.2425 110.606 48.373 109.948 48.0128 109.519C47.6526 109.09 46.9818 109.104 46.4476 109.553C45.9134 110.001 45.7829 110.659 46.1431 111.088C46.5033 111.517 47.1741 111.503 47.7083 111.054Z" fill="#F38613" fill-opacity="0.55"/>
<path d="M66.1971 105.957C66.5977 105.621 66.6847 105.182 66.4146 104.86C66.1444 104.539 65.6972 104.548 65.2966 104.885C64.8959 105.221 64.8089 105.66 65.079 105.981C65.3492 106.303 65.7964 106.294 66.1971 105.957Z" fill="#F38613" fill-opacity="0.55"/>
<path d="M82.0518 101.791C82.3189 101.567 82.4059 101.128 82.2258 100.913C82.0457 100.699 81.5985 100.709 81.3314 100.933C81.0643 101.157 80.9773 101.596 81.1574 101.81C81.4275 102.132 81.7847 102.015 82.0518 101.791Z" fill="#F38613" fill-opacity="0.55"/>
<path d="M95.0042 98.7796C95.1377 98.6675 95.3148 98.336 95.1347 98.1215C95.0446 98.0142 94.731 97.9118 94.4639 98.136C94.3303 98.2481 94.1533 98.5796 94.3334 98.7942C94.5135 99.0087 94.7371 99.0038 95.0042 98.7796Z" fill="#F38613" fill-opacity="0.55"/>
<path d="M105.058 96.9235C105.192 96.8113 105.235 96.592 105.145 96.4847C105.055 96.3774 104.831 96.3823 104.698 96.4944C104.564 96.6065 104.521 96.8259 104.611 96.9332C104.835 96.9283 104.925 97.0356 105.058 96.9235Z" fill="#F38613" fill-opacity="0.55"/>
<path d="M112.03 96.0079C112.164 95.8958 112.164 95.8958 112.03 96.0079C112.074 95.7886 111.85 95.7934 111.85 95.7934C111.94 95.9007 111.94 95.9007 112.03 96.0079Z" fill="#F38613" fill-opacity="0.55"/>
<path d="M17.6697 130.054C18.3375 129.494 18.5115 128.616 18.0612 128.08C17.611 127.544 16.7166 127.563 16.0488 128.124C15.3811 128.684 15.2071 129.562 15.6573 130.098C16.1076 130.634 17.002 130.615 17.6697 130.054Z" fill="#F38613" fill-opacity="0.55"/>
<path d="M41.6828 121.233C41.3346 120.819 40.6339 120.834 40.1175 121.267C39.6012 121.701 39.4649 122.388 39.813 122.803C40.1611 123.218 40.8619 123.202 41.3782 122.769C41.8946 122.335 42.0309 121.648 41.6828 121.233Z" fill="#F38613" fill-opacity="0.55"/>
<path d="M62.1861 116.639C62.5867 116.302 62.7173 115.644 62.4471 115.322C62.177 115.001 61.5061 115.015 61.1055 115.351C60.7048 115.688 60.5743 116.346 60.8445 116.668C61.1146 116.99 61.7854 116.975 62.1861 116.639Z" fill="#F38613" fill-opacity="0.55"/>
<path d="M80.0938 111.663C80.3609 111.439 80.4479 111 80.2678 110.785C80.0877 110.571 79.6405 110.581 79.3734 110.805C79.1063 111.029 79.0193 111.468 79.1994 111.682C79.3795 111.897 79.8267 111.887 80.0938 111.663Z" fill="#F38613" fill-opacity="0.55"/>
<path d="M95.053 107.516C95.3201 107.292 95.3636 107.073 95.1835 106.858C95.0034 106.644 94.7798 106.648 94.5127 106.873C94.2456 107.097 94.2021 107.316 94.3822 107.531C94.5623 107.745 94.7859 107.741 95.053 107.516Z" fill="#F38613" fill-opacity="0.55"/>
<path d="M106.979 104.637C107.113 104.525 107.156 104.305 107.066 104.198C106.976 104.091 106.752 104.096 106.619 104.208C106.485 104.32 106.442 104.539 106.532 104.646C106.622 104.754 106.845 104.749 106.979 104.637Z" fill="#F38613" fill-opacity="0.55"/>
<path d="M115.824 102.697C115.958 102.585 115.958 102.585 115.867 102.478C115.777 102.371 115.777 102.371 115.644 102.483C115.51 102.595 115.51 102.595 115.6 102.702C115.69 102.809 115.69 102.809 115.824 102.697Z" fill="#F38613" fill-opacity="0.55"/>
<path d="M9.38488 144.323C10.1862 143.651 10.5372 142.442 9.90689 141.691C9.36659 141.047 8.15853 140.964 7.22366 141.749C6.28879 142.534 6.07126 143.631 6.70161 144.382C7.46552 145.02 8.58356 144.996 9.38488 144.323Z" fill="#F38613" fill-opacity="0.55"/>
<path d="M35.4137 136.005C36.0814 135.444 36.389 134.454 35.8487 133.811C35.3984 133.275 34.414 133.187 33.6126 133.859C32.9449 134.42 32.6373 135.41 33.1776 136.053C33.7179 136.697 34.6123 136.677 35.4137 136.005Z" fill="#F38613" fill-opacity="0.55"/>
<path d="M58.3184 128.846C58.8526 128.398 59.0266 127.52 58.6664 127.091C58.3062 126.662 57.4118 126.681 56.8776 127.13C56.3434 127.578 56.1694 128.456 56.5296 128.885C56.8898 129.314 57.6507 129.407 58.3184 128.846Z" fill="#F38613" fill-opacity="0.55"/>
<path d="M78.0083 122.74C78.409 122.403 78.5395 121.745 78.2694 121.423C77.9992 121.102 77.3284 121.116 76.9277 121.452C76.5271 121.789 76.3966 122.447 76.6667 122.769C77.0269 123.198 77.6077 123.076 78.0083 122.74Z" fill="#F38613" fill-opacity="0.55"/>
<path d="M94.7976 117.789C95.1983 117.452 95.2853 117.013 95.0152 116.692C94.745 116.37 94.2978 116.38 93.8971 116.716C93.4965 117.052 93.4095 117.491 93.6796 117.813C93.8597 118.027 94.5305 118.013 94.7976 117.789Z" fill="#F38613" fill-opacity="0.55"/>
<path d="M108.282 113.783C108.55 113.559 108.503 113.232 108.413 113.125C108.233 112.91 107.876 113.027 107.742 113.139C107.475 113.364 107.432 113.583 107.612 113.797C107.792 114.012 108.149 113.895 108.282 113.783Z" fill="#F38613" fill-opacity="0.55"/>
<path d="M118.867 110.932C119 110.82 119.044 110.6 118.954 110.493C118.864 110.386 118.64 110.391 118.507 110.503C118.373 110.615 118.329 110.834 118.419 110.942C118.51 111.049 118.733 111.044 118.867 110.932Z" fill="#F38613" fill-opacity="0.55"/>
<path d="M126.236 109.134C126.37 109.022 126.28 108.915 126.28 108.915C126.19 108.807 126.056 108.92 126.056 108.92C125.922 109.032 126.012 109.139 126.012 109.139C126.012 109.139 126.103 109.246 126.236 109.134Z" fill="#F38613" fill-opacity="0.55"/>
<path d="M130.392 108.389C130.302 108.281 130.302 108.281 130.392 108.389C130.169 108.394 130.169 108.394 130.392 108.389C130.259 108.501 130.259 108.501 130.392 108.389Z" fill="#F38613" fill-opacity="0.55"/>
<path d="M2.35752 159.548C3.29239 158.764 3.50991 157.667 2.87956 156.916C2.24921 156.165 0.997637 156.301 0.19632 156.974C-0.738549 157.759 -0.86602 158.963 -0.325718 159.607C0.214584 160.25 1.55621 160.221 2.35752 159.548Z" fill="#F38613" fill-opacity="0.55"/>
<path d="M30.1265 150.318C30.9279 149.645 31.0118 148.66 30.5616 148.124C30.0213 147.48 28.9933 147.612 28.3255 148.173C27.5242 148.845 27.4403 149.83 27.8905 150.366C28.3408 150.903 29.4588 150.879 30.1265 150.318Z" fill="#F38613" fill-opacity="0.55"/>
<path d="M54.8136 142.028C55.4814 141.467 55.5218 140.702 55.1616 140.273C54.7114 139.737 53.907 139.863 53.3728 140.312C52.7051 140.872 52.6646 141.638 53.0248 142.067C53.2515 142.608 54.1459 142.589 54.8136 142.028Z" fill="#F38613" fill-opacity="0.55"/>
<path d="M76.1526 134.904C76.6868 134.455 76.8174 133.797 76.4572 133.368C76.097 132.939 75.4261 132.953 74.8919 133.402C74.3577 133.85 74.2272 134.508 74.5874 134.937C74.9476 135.367 75.6184 135.352 76.1526 134.904Z" fill="#F38613" fill-opacity="0.55"/>
<path d="M94.368 128.938C94.7686 128.602 94.8556 128.163 94.5855 127.841C94.3153 127.52 93.8681 127.529 93.4675 127.866C93.0668 128.202 92.9798 128.641 93.2499 128.963C93.5201 129.284 93.9673 129.275 94.368 128.938Z" fill="#F38613" fill-opacity="0.55"/>
<path d="M109.368 124.026C109.636 123.801 109.589 123.475 109.499 123.368C109.409 123.26 108.962 123.27 108.828 123.382C108.561 123.606 108.608 123.933 108.698 124.04C108.788 124.148 109.235 124.138 109.368 124.026Z" fill="#F38613" fill-opacity="0.55"/>
<path d="M121.377 120.162C121.511 120.049 121.555 119.83 121.464 119.723C121.374 119.615 121.151 119.62 121.017 119.732C120.884 119.845 120.84 120.064 120.93 120.171C121.02 120.278 121.244 120.274 121.377 120.162Z" fill="#F38613" fill-opacity="0.55"/>
<path d="M130.173 117.349C130.307 117.237 130.217 117.13 130.217 117.13C130.127 117.023 129.993 117.135 129.993 117.135C129.86 117.247 129.95 117.354 129.95 117.354C129.906 117.574 130.04 117.462 130.173 117.349Z" fill="#F38613" fill-opacity="0.55"/>
<path d="M135.711 115.809C135.754 115.59 135.621 115.702 135.621 115.702C135.621 115.702 135.621 115.702 135.711 115.809Z" fill="#F38613" fill-opacity="0.55"/>
<path d="M-1.7555 175.802C-0.687075 174.905 -0.382558 173.369 -1.10296 172.511C-1.82336 171.653 -3.38858 171.687 -4.45701 172.584C-5.52543 173.481 -5.82995 175.017 -5.10954 175.875C-4.29909 176.84 -2.82392 176.699 -1.7555 175.802Z" fill="#F38613" fill-opacity="0.55"/>
<path d="M27.0819 165.675C28.0168 164.89 28.2778 163.574 27.6474 162.823C27.0171 162.072 25.6755 162.101 24.7406 162.886C23.8057 163.671 23.5447 164.987 24.1751 165.738C24.939 166.376 26.147 166.46 27.0819 165.675Z" fill="#F38613" fill-opacity="0.55"/>
<path d="M52.7472 156.381C53.5485 155.708 53.6324 154.723 53.1822 154.187C52.6419 153.543 51.6139 153.675 50.9462 154.235C50.1448 154.908 50.0609 155.893 50.5111 156.429C50.9179 157.185 51.9458 157.054 52.7472 156.381Z" fill="#F38613" fill-opacity="0.55"/>
<path d="M75.2449 148.466C75.9127 147.906 76.0867 147.028 75.6364 146.492C75.1862 145.955 74.2918 145.975 73.624 146.535C72.9563 147.096 72.7823 147.973 73.2325 148.51C73.8163 148.934 74.7107 148.915 75.2449 148.466Z" fill="#F38613" fill-opacity="0.55"/>
<path d="M94.5716 141.385C95.1058 140.936 95.2363 140.278 94.8761 139.849C94.5159 139.42 93.8451 139.435 93.3109 139.883C92.7767 140.332 92.6462 140.99 93.0064 141.419C93.3666 141.848 94.1709 141.721 94.5716 141.385Z" fill="#F38613" fill-opacity="0.55"/>
<path d="M110.864 135.571C111.265 135.235 111.352 134.796 111.082 134.474C110.811 134.152 110.364 134.162 109.964 134.498C109.563 134.835 109.476 135.273 109.746 135.595C109.926 135.81 110.463 135.907 110.864 135.571Z" fill="#F38613" fill-opacity="0.55"/>
<path d="M123.853 130.702C124.12 130.478 124.207 130.039 124.027 129.825C123.846 129.61 123.399 129.62 123.132 129.844C122.865 130.068 122.778 130.507 122.958 130.721C123.362 130.931 123.585 130.926 123.853 130.702Z" fill="#F38613" fill-opacity="0.55"/>
<path d="M133.85 126.881C133.983 126.769 134.027 126.549 133.937 126.442C133.847 126.335 133.623 126.34 133.49 126.452C133.356 126.564 133.313 126.783 133.403 126.891C133.359 127.11 133.583 127.105 133.85 126.881Z" fill="#F38613" fill-opacity="0.55"/>
<path d="M140.589 124.332C140.722 124.22 140.632 124.113 140.632 124.113C140.542 124.006 140.409 124.118 140.409 124.118C140.275 124.23 140.365 124.337 140.365 124.337C140.365 124.337 140.455 124.445 140.589 124.332Z" fill="#F38613" fill-opacity="0.55"/>
<path d="M144.248 122.724C144.291 122.505 144.158 122.617 144.158 122.617C144.024 122.729 144.024 122.729 144.248 122.724C144.024 122.729 144.114 122.836 144.248 122.724Z" fill="#F38613" fill-opacity="0.55"/>
<path d="M-1.93128 192.407C-0.862856 191.51 -0.558339 189.975 -1.27874 189.117C-1.99914 188.258 -3.56437 188.292 -4.63279 189.189C-5.70121 190.086 -6.00573 191.622 -5.28533 192.48C-4.47487 193.445 -2.9997 193.304 -1.93128 192.407Z" fill="#F38613" fill-opacity="0.55"/>
<path d="M27.4218 178.556C26.7753 177.785 25.4739 177.814 24.515 178.619C23.5561 179.423 23.3029 180.7 23.9495 181.471C24.596 182.241 25.8974 182.212 26.8563 181.407C27.8152 180.603 28.0684 179.326 27.4218 178.556Z" fill="#F38613" fill-opacity="0.55"/>
<path d="M52.6519 171.455C53.4533 170.783 53.5372 169.798 53.087 169.262C52.5467 168.618 51.5187 168.749 50.8509 169.31C50.0496 169.983 49.9657 170.968 50.4159 171.504C50.8662 172.04 51.8506 172.128 52.6519 171.455Z" fill="#F38613" fill-opacity="0.55"/>
<path d="M75.5906 162.439C76.2584 161.879 76.4324 161.001 75.9822 160.465C75.5319 159.928 74.6375 159.948 73.9697 160.508C73.302 161.069 73.128 161.946 73.5782 162.483C74.2521 163.014 74.9229 163 75.5906 162.439Z" fill="#F38613" fill-opacity="0.55"/>
<path d="M95.6292 154.578C96.1634 154.129 96.2939 153.471 95.9337 153.042C95.5735 152.613 94.9027 152.628 94.3685 153.076C93.8343 153.525 93.7038 154.183 94.064 154.612C94.4242 155.041 95.095 155.026 95.6292 154.578Z" fill="#F38613" fill-opacity="0.55"/>
<path d="M112.677 147.764C113.077 147.428 113.164 146.989 112.894 146.667C112.624 146.346 112.177 146.355 111.776 146.692C111.375 147.028 111.288 147.467 111.559 147.788C111.829 148.11 112.276 148.101 112.677 147.764Z" fill="#F38613" fill-opacity="0.55"/>
<path d="M126.51 142.003C126.777 141.779 126.864 141.34 126.684 141.126C126.504 140.911 126.056 140.921 125.789 141.145C125.522 141.37 125.435 141.808 125.615 142.023C125.886 142.345 126.243 142.228 126.51 142.003Z" fill="#F38613" fill-opacity="0.55"/>
<path d="M137.442 137.398C137.575 137.286 137.619 137.066 137.529 136.959C137.439 136.852 137.215 136.857 137.081 136.969C136.948 137.081 136.904 137.3 136.994 137.407C136.951 137.627 137.174 137.622 137.442 137.398Z" fill="#F38613" fill-opacity="0.55"/>
<path d="M145.069 133.737C145.203 133.625 145.113 133.518 145.113 133.518C145.023 133.411 144.889 133.523 144.889 133.523C144.755 133.635 144.845 133.742 144.845 133.742C144.936 133.849 144.936 133.849 145.069 133.737Z" fill="#F38613" fill-opacity="0.55"/>
<path d="M149.663 131.344C149.797 131.232 149.797 131.232 149.663 131.344C149.707 131.125 149.573 131.237 149.573 131.237C149.573 131.237 149.573 131.237 149.663 131.344Z" fill="#F38613" fill-opacity="0.55"/>
<path d="M3.21962 209.662C4.4216 208.653 4.76962 206.898 3.95916 205.932C3.14871 204.967 1.35989 205.006 0.157917 206.015C-1.04406 207.024 -1.39209 208.779 -0.581634 209.744C0.362372 210.597 2.01765 210.671 3.21962 209.662Z" fill="#F38613" fill-opacity="0.55"/>
<path d="M30.3913 197.823C31.4597 196.926 31.7207 195.61 31.0003 194.752C30.2799 193.893 28.9383 193.923 27.8699 194.819C26.8015 195.716 26.5404 197.033 27.2608 197.891C27.7576 198.754 29.3229 198.72 30.3913 197.823Z" fill="#F38613" fill-opacity="0.55"/>
<path d="M55.3341 187.125C56.2689 186.34 56.3964 185.136 55.8561 184.492C55.2257 183.742 53.9742 183.878 53.1729 184.551C52.238 185.335 52.1105 186.54 52.6508 187.183C53.2812 187.934 54.5328 187.798 55.3341 187.125Z" fill="#F38613" fill-opacity="0.55"/>
<path d="M78.0894 177.348C78.8908 176.676 78.9747 175.691 78.5245 175.154C77.9842 174.511 76.9562 174.642 76.2884 175.203C75.4871 175.876 75.4032 176.86 75.8534 177.397C76.3937 178.04 77.2881 178.021 78.0894 177.348Z" fill="#F38613" fill-opacity="0.55"/>
<path d="M98.168 168.722C98.8358 168.161 98.8762 167.396 98.516 166.967C98.0658 166.43 97.2614 166.557 96.7272 167.005C96.0595 167.566 96.019 168.331 96.3792 168.76C96.7394 169.189 97.6338 169.17 98.168 168.722Z" fill="#F38613" fill-opacity="0.55"/>
<path d="M115.389 161.031C115.923 160.582 116.054 159.924 115.693 159.495C115.333 159.066 114.662 159.08 114.128 159.529C113.594 159.977 113.464 160.635 113.824 161.064C114.318 161.381 114.988 161.367 115.389 161.031Z" fill="#F38613" fill-opacity="0.55"/>
<path d="M129.844 154.382C130.244 154.046 130.331 153.607 130.061 153.285C129.791 152.964 129.344 152.973 128.943 153.31C128.542 153.646 128.455 154.085 128.726 154.407C128.906 154.621 129.443 154.719 129.844 154.382Z" fill="#F38613" fill-opacity="0.55"/>
<path d="M141.083 148.787C141.35 148.563 141.304 148.236 141.214 148.129C141.034 147.914 140.677 148.031 140.543 148.143C140.276 148.368 140.322 148.694 140.412 148.802C140.593 149.016 140.816 149.011 141.083 148.787Z" fill="#F38613" fill-opacity="0.55"/>
<path d="M149.556 144.235C149.689 144.122 149.733 143.903 149.643 143.796C149.553 143.689 149.329 143.693 149.196 143.806C149.062 143.918 149.019 144.137 149.109 144.244C149.065 144.464 149.289 144.459 149.556 144.235Z" fill="#F38613" fill-opacity="0.55"/>
<path d="M154.904 140.842C155.038 140.73 154.948 140.622 154.948 140.622C154.858 140.515 154.724 140.627 154.724 140.627C154.59 140.739 154.68 140.847 154.68 140.847C154.771 140.954 154.771 140.954 154.904 140.842Z" fill="#F38613" fill-opacity="0.55"/>
<path d="M157.261 138.497C157.305 138.278 157.171 138.39 157.171 138.39C157.038 138.502 157.038 138.502 157.261 138.497C157.128 138.609 157.128 138.609 157.261 138.497Z" fill="#F38613" fill-opacity="0.55"/>
<path d="M13.1525 226.375C14.3544 225.366 14.659 223.831 13.8485 222.865C13.0381 221.9 11.4728 221.934 10.2709 222.943C9.06888 223.952 8.76438 225.488 9.57483 226.453C10.3853 227.418 11.9505 227.385 13.1525 226.375Z" fill="#F38613" fill-opacity="0.55"/>
<path d="M37.5943 214.268C38.6628 213.371 38.9238 212.055 38.2034 211.197C37.483 210.339 36.1414 210.368 35.0729 211.265C34.0045 212.162 33.7435 213.478 34.4639 214.336C35.1843 215.194 36.6595 215.053 37.5943 214.268Z" fill="#F38613" fill-opacity="0.55"/>
<path d="M61.0118 202.839C61.8131 202.166 62.1642 200.957 61.5338 200.206C60.9935 199.563 59.7855 199.48 58.8506 200.264C57.9157 201.049 57.6982 202.146 58.3286 202.897C58.9589 203.648 60.0769 203.624 61.0118 202.839Z" fill="#F38613" fill-opacity="0.55"/>
<path d="M82.6471 192.54C83.3148 191.98 83.6224 190.99 83.0821 190.346C82.6318 189.81 81.6474 189.722 80.846 190.395C80.1783 190.955 79.8707 191.945 80.411 192.589C80.8613 193.125 81.9793 193.101 82.6471 192.54Z" fill="#F38613" fill-opacity="0.55"/>
<path d="M102.005 183.055C102.539 182.607 102.713 181.729 102.353 181.3C101.993 180.871 101.098 180.891 100.564 181.339C100.03 181.787 99.8559 182.665 100.216 183.094C100.8 183.518 101.471 183.504 102.005 183.055Z" fill="#F38613" fill-opacity="0.55"/>
<path d="M119.133 174.711C119.534 174.375 119.665 173.716 119.394 173.395C119.124 173.073 118.453 173.087 118.053 173.424C117.652 173.76 117.522 174.418 117.792 174.74C118.062 175.062 118.733 175.047 119.133 174.711Z" fill="#F38613" fill-opacity="0.55"/>
<path d="M133.538 167.19C133.939 166.854 134.026 166.415 133.755 166.093C133.485 165.772 133.038 165.781 132.637 166.118C132.237 166.454 132.15 166.893 132.42 167.215C132.69 167.536 133.271 167.415 133.538 167.19Z" fill="#F38613" fill-opacity="0.55"/>
<path d="M145.264 160.82C145.531 160.596 145.575 160.376 145.395 160.162C145.215 159.947 144.858 160.064 144.724 160.176C144.457 160.401 144.503 160.727 144.593 160.835C144.55 161.054 144.997 161.044 145.264 160.82Z" fill="#F38613" fill-opacity="0.55"/>
<path d="M154.001 155.497C154.135 155.385 154.179 155.166 154.088 155.058C153.998 154.951 153.775 154.956 153.641 155.068C153.508 155.18 153.464 155.4 153.554 155.507C153.644 155.614 153.868 155.609 154.001 155.497Z" fill="#F38613" fill-opacity="0.55"/>
<path d="M159.881 151.11C160.015 150.998 159.925 150.891 159.925 150.891C159.835 150.783 159.701 150.896 159.701 150.896C159.568 151.008 159.658 151.115 159.658 151.115C159.614 151.334 159.748 151.222 159.881 151.11Z" fill="#F38613" fill-opacity="0.55"/>
<path d="M162.727 147.99C162.637 147.883 162.77 147.771 162.727 147.99C162.637 147.883 162.637 147.883 162.727 147.99Z" fill="#F38613" fill-opacity="0.55"/>
<path d="M6.74127 255.895C8.0768 254.774 8.42483 253.019 7.52432 251.946C6.62382 250.873 4.835 250.912 3.49947 252.033C2.16394 253.154 1.81592 254.91 2.71643 255.982C3.39333 257.06 5.40575 257.016 6.74127 255.895Z" fill="#F38613" fill-opacity="0.55"/>
<path d="M27.244 242.89C28.446 241.881 28.8841 240.233 27.9836 239.161C27.1731 238.195 25.5178 238.122 24.1823 239.243C22.9803 240.252 22.5423 241.9 23.4428 242.972C24.3433 244.045 26.0421 243.899 27.244 242.89Z" fill="#F38613" fill-opacity="0.55"/>
<path d="M48.5092 230.524C49.5776 229.627 49.8821 228.092 49.1617 227.233C48.4413 226.375 46.8761 226.409 45.8076 227.306C44.7392 228.203 44.4347 229.739 45.1551 230.597C45.9656 231.562 47.4407 231.421 48.5092 230.524Z" fill="#F38613" fill-opacity="0.55"/>
<path d="M69.6434 218.817C70.5783 218.032 70.8393 216.716 70.2089 215.965C69.5786 215.214 68.237 215.243 67.3021 216.028C66.3672 216.813 66.1062 218.129 66.7366 218.88C67.3669 219.631 68.7085 219.602 69.6434 218.817Z" fill="#F38613" fill-opacity="0.55"/>
<path d="M89.6204 207.898C90.4218 207.226 90.6393 206.129 90.099 205.485C89.5587 204.842 88.4406 204.866 87.6393 205.539C86.838 206.211 86.6205 207.308 87.1608 207.952C87.7011 208.595 88.8191 208.571 89.6204 207.898Z" fill="#F38613" fill-opacity="0.55"/>
<path d="M107.857 197.892C108.525 197.331 108.699 196.454 108.249 195.917C107.799 195.381 106.904 195.4 106.236 195.961C105.569 196.522 105.395 197.399 105.845 197.935C106.295 198.472 107.189 198.452 107.857 197.892Z" fill="#F38613" fill-opacity="0.55"/>
<path d="M124.355 188.797C124.889 188.348 125.02 187.69 124.66 187.261C124.299 186.832 123.628 186.846 123.094 187.295C122.56 187.743 122.43 188.401 122.79 188.831C122.926 189.264 123.687 189.357 124.355 188.797Z" fill="#F38613" fill-opacity="0.55"/>
<path d="M138.31 180.739C138.711 180.403 138.841 179.745 138.571 179.423C138.301 179.101 137.63 179.116 137.23 179.452C136.829 179.788 136.698 180.447 136.968 180.768C137.239 181.09 137.909 181.076 138.31 180.739Z" fill="#F38613" fill-opacity="0.55"/>
<path d="M149.764 173.501C150.031 173.277 150.118 172.838 149.938 172.624C149.758 172.409 149.31 172.419 149.043 172.643C148.776 172.867 148.689 173.306 148.869 173.521C149.049 173.735 149.497 173.725 149.764 173.501Z" fill="#F38613" fill-opacity="0.55"/>
<path d="M158.674 167.301C158.941 167.077 158.985 166.857 158.805 166.643C158.625 166.428 158.401 166.433 158.134 166.657C157.867 166.881 157.823 167.101 158.003 167.315C158.183 167.53 158.407 167.525 158.674 167.301Z" fill="#F38613" fill-opacity="0.55"/>
<path d="M164.774 162.363C164.907 162.251 164.951 162.032 164.861 161.924C164.771 161.817 164.547 161.822 164.414 161.934C164.28 162.046 164.237 162.265 164.327 162.373C164.55 162.368 164.64 162.475 164.774 162.363Z" fill="#F38613" fill-opacity="0.55"/>
<path d="M168.06 158.141C168.194 158.029 168.194 158.029 168.104 157.922C168.014 157.815 168.014 157.815 167.88 157.927C167.747 158.039 167.747 158.039 167.837 158.146C167.927 158.253 167.927 158.253 168.06 158.141Z" fill="#F38613" fill-opacity="0.55"/>
<path d="M168.536 155.182C168.446 155.075 168.446 155.075 168.536 155.182C168.312 155.187 168.446 155.075 168.536 155.182Z" fill="#F38613" fill-opacity="0.55"/>
<path d="M0.848161 393.968C0.981714 393.856 1.02522 393.637 0.935166 393.53C0.845116 393.422 0.621511 393.427 0.487959 393.539C0.354406 393.651 0.310903 393.871 0.400953 393.978C0.491004 394.085 0.714608 394.081 0.848161 393.968Z" fill="#F38613" fill-opacity="0.55"/>
<path d="M3.87917 392.155C4.14628 391.931 4.18978 391.712 4.00968 391.497C3.82958 391.283 3.60598 391.288 3.33887 391.512C3.07177 391.736 3.02826 391.955 3.20837 392.17C3.38847 392.384 3.74562 392.267 3.87917 392.155Z" fill="#F38613" fill-opacity="0.55"/>
<path d="M2.43558 389.893C2.70269 389.669 2.78969 389.23 2.60959 389.016C2.42949 388.801 1.98228 388.811 1.71518 389.035C1.44807 389.259 1.36106 389.698 1.54116 389.912C1.72127 390.127 2.16847 390.117 2.43558 389.893Z" fill="#F38613" fill-opacity="0.55"/>
<path d="M0.36089 386.88C0.761548 386.543 0.982105 385.993 0.621904 385.563C0.351753 385.242 -0.1855 385.144 -0.719711 385.593C-1.12037 385.929 -1.34093 386.48 -0.98073 386.909C-0.486976 387.226 -0.0397683 387.216 0.36089 386.88Z" fill="#F38613" fill-opacity="0.55"/>
<path d="M-0.22833 297.222C1.1072 296.101 1.45522 294.346 0.554715 293.273C-0.345788 292.2 -2.13462 292.239 -3.47015 293.36C-4.80567 294.482 -5.1537 296.237 -4.25319 297.309C-3.48624 298.494 -1.69741 298.455 -0.22833 297.222Z" fill="#F38613" fill-opacity="0.55"/>
<path d="M12.6499 280.56C11.7547 279.494 9.9527 279.533 8.62503 280.647C7.29737 281.762 6.94678 283.53 7.84198 284.596C8.73718 285.663 10.5392 285.623 11.8668 284.509C13.1945 283.394 13.5451 281.626 12.6499 280.56Z" fill="#F38613" fill-opacity="0.55"/>
<path d="M26.6876 271.518C27.8896 270.509 28.1941 268.974 27.3837 268.008C26.5732 267.043 25.008 267.077 23.806 268.086C22.6041 269.095 22.2995 270.63 23.11 271.596C23.9204 272.561 25.4857 272.527 26.6876 271.518Z" fill="#F38613" fill-opacity="0.55"/>
<path d="M43.7015 258.698C44.77 257.801 45.0745 256.266 44.3541 255.407C43.6337 254.549 42.0684 254.583 41 255.48C39.9316 256.377 39.6271 257.913 40.3475 258.771C41.1579 259.736 42.6331 259.595 43.7015 258.698Z" fill="#F38613" fill-opacity="0.55"/>
<path d="M61.9695 246.288C62.9044 245.503 63.1654 244.187 62.535 243.436C61.9047 242.685 60.5631 242.714 59.6282 243.499C58.6933 244.284 58.4323 245.6 59.0627 246.351C59.5595 247.214 60.9011 247.185 61.9695 246.288Z" fill="#F38613" fill-opacity="0.55"/>
<path d="M80.3751 234.312C81.1764 233.639 81.5275 232.43 80.8971 231.679C80.3568 231.036 79.1488 230.953 78.2139 231.737C77.279 232.522 77.0615 233.619 77.6919 234.37C78.3222 235.121 79.4402 235.097 80.3751 234.312Z" fill="#F38613" fill-opacity="0.55"/>
<path d="M98.2926 223.11C98.9603 222.55 99.2679 221.56 98.7276 220.917C98.1873 220.273 97.2929 220.292 96.4916 220.965C95.6902 221.638 95.5162 222.515 96.0565 223.159C96.5968 223.802 97.4912 223.783 98.2926 223.11Z" fill="#F38613" fill-opacity="0.55"/>
<path d="M115.185 212.587C115.852 212.026 115.893 211.261 115.533 210.832C115.082 210.296 114.278 210.422 113.744 210.871C113.076 211.431 113.036 212.197 113.396 212.626C113.623 213.167 114.517 213.148 115.185 212.587Z" fill="#F38613" fill-opacity="0.55"/>
<path d="M130.338 202.975C130.872 202.526 131.003 201.868 130.643 201.439C130.283 201.01 129.612 201.024 129.078 201.473C128.543 201.921 128.413 202.579 128.773 203.009C129.133 203.438 129.804 203.423 130.338 202.975Z" fill="#F38613" fill-opacity="0.55"/>
<path d="M143.752 194.274C144.152 193.938 144.239 193.499 143.969 193.177C143.699 192.855 143.252 192.865 142.851 193.201C142.451 193.538 142.364 193.977 142.634 194.298C142.814 194.513 143.351 194.61 143.752 194.274Z" fill="#F38613" fill-opacity="0.55"/>
<path d="M154.756 186.499C155.023 186.275 155.11 185.836 154.93 185.622C154.75 185.407 154.303 185.417 154.035 185.641C153.768 185.865 153.681 186.304 153.861 186.519C154.042 186.733 154.489 186.724 154.756 186.499Z" fill="#F38613" fill-opacity="0.55"/>
<path d="M163.484 179.539C163.617 179.427 163.794 179.095 163.614 178.881C163.524 178.773 163.21 178.671 162.943 178.895C162.81 179.007 162.633 179.339 162.813 179.553C162.993 179.768 163.217 179.763 163.484 179.539Z" fill="#F38613" fill-opacity="0.55"/>
<path d="M169.624 173.835C169.757 173.723 169.801 173.504 169.711 173.397C169.621 173.289 169.397 173.294 169.263 173.406C169.13 173.518 169.086 173.738 169.176 173.845C169.4 173.84 169.49 173.947 169.624 173.835Z" fill="#F38613" fill-opacity="0.55"/>
<path d="M173.04 168.956C173.173 168.844 173.173 168.844 173.04 168.956C173.083 168.736 172.86 168.741 172.86 168.741C172.95 168.848 172.816 168.961 173.04 168.956Z" fill="#F38613" fill-opacity="0.55"/>
<path d="M173.78 165.226C173.69 165.119 173.824 165.007 173.78 165.226C173.69 165.119 173.69 165.119 173.78 165.226Z" fill="#F38613" fill-opacity="0.55"/>
<path d="M6.55838 399.415C6.60188 399.196 6.46833 399.308 6.46833 399.308C6.46833 399.308 6.33478 399.42 6.55838 399.415Z" fill="#F38613" fill-opacity="0.55"/>
<path d="M13.3939 398.065C13.5275 397.953 13.4375 397.846 13.4375 397.846C13.3474 397.739 13.2138 397.851 13.2138 397.851C13.0803 397.963 13.1703 398.07 13.1703 398.07C13.0368 398.182 13.2604 398.177 13.3939 398.065Z" fill="#F38613" fill-opacity="0.55"/>
<path d="M15.7544 396.266C15.888 396.154 15.9315 395.935 15.8414 395.828C15.7514 395.72 15.5278 395.725 15.3942 395.837C15.2607 395.95 15.2172 396.169 15.3072 396.276C15.3973 396.383 15.6209 396.379 15.7544 396.266Z" fill="#F38613" fill-opacity="0.55"/>
<path d="M15.2483 393.765C15.5154 393.541 15.4689 393.214 15.3788 393.107C15.1987 392.893 14.8416 393.009 14.708 393.122C14.4409 393.346 14.4875 393.672 14.5775 393.78C14.7576 393.994 14.9812 393.989 15.2483 393.765Z" fill="#F38613" fill-opacity="0.55"/>
<path d="M14.3357 390.509C14.7364 390.173 14.8234 389.734 14.5532 389.412C14.2831 389.09 13.8359 389.1 13.4352 389.436C13.0346 389.773 12.9476 390.211 13.2177 390.533C13.4879 390.855 13.9351 390.845 14.3357 390.509Z" fill="#F38613" fill-opacity="0.55"/>
<path d="M12.8824 386.608C13.283 386.272 13.4135 385.614 13.1434 385.292C12.8732 384.97 12.2024 384.985 11.8018 385.321C11.4011 385.657 11.2706 386.316 11.5408 386.637C11.8109 386.959 12.4817 386.945 12.8824 386.608Z" fill="#F38613" fill-opacity="0.55"/>
<path d="M11.5137 381.723C12.0479 381.274 12.312 380.504 11.8617 379.968C11.5015 379.539 10.7407 379.446 10.0729 380.007C9.53872 380.455 9.27466 381.225 9.72491 381.762C10.0851 382.191 10.846 382.284 11.5137 381.723Z" fill="#F38613" fill-opacity="0.55"/>
<path d="M9.8719 375.97C10.5397 375.409 10.7137 374.532 10.2634 373.995C9.81316 373.459 8.91875 373.478 8.25099 374.039C7.58323 374.599 7.40922 375.477 7.85947 376.013C8.30972 376.55 9.20414 376.53 9.8719 375.97Z" fill="#F38613" fill-opacity="0.55"/>
<path d="M8.4935 369.446C9.29481 368.774 9.51232 367.677 8.97202 367.033C8.43172 366.39 7.3137 366.414 6.51239 367.086C5.71107 367.759 5.49355 368.856 6.03386 369.5C6.70771 370.031 7.82573 370.007 8.4935 369.446Z" fill="#F38613" fill-opacity="0.55"/>
<path d="M7.87021 361.924C8.80508 361.139 9.02259 360.042 8.39224 359.291C7.76189 358.541 6.64387 358.565 5.709 359.35C4.77413 360.134 4.55662 361.231 5.18697 361.982C5.81732 362.733 6.93534 362.709 7.87021 361.924Z" fill="#F38613" fill-opacity="0.55"/>
<path d="M7.86802 353.514C8.80289 352.729 9.0639 351.413 8.43355 350.662C7.8032 349.911 6.46158 349.94 5.52671 350.725C4.59184 351.51 4.33083 352.826 4.96118 353.577C5.59153 354.328 6.93315 354.299 7.86802 353.514Z" fill="#F38613" fill-opacity="0.55"/>
<path d="M9.29138 344.09C10.3598 343.193 10.6643 341.658 9.94391 340.799C9.22351 339.941 7.65829 339.975 6.58987 340.872C5.52145 341.769 5.21693 343.305 5.93733 344.163C6.65773 345.021 8.0894 345.099 9.29138 344.09Z" fill="#F38613" fill-opacity="0.55"/>
<path d="M12.3195 333.867C13.5214 332.858 13.826 331.322 13.0155 330.357C12.205 329.391 10.6398 329.425 9.43785 330.434C8.23588 331.443 7.93136 332.979 8.74181 333.944C9.55227 334.91 11.1175 334.876 12.3195 333.867Z" fill="#F38613" fill-opacity="0.55"/>
<path d="M17.4015 322.835C18.6035 321.826 18.908 320.29 18.0975 319.325C17.2871 318.359 15.7219 318.393 14.5199 319.402C13.3179 320.411 13.0134 321.947 13.8238 322.912C14.6343 323.878 16.1995 323.844 17.4015 322.835Z" fill="#F38613" fill-opacity="0.55"/>
<path d="M25.0739 311.091C26.2759 310.082 26.5804 308.546 25.77 307.581C24.9595 306.616 23.3943 306.65 22.1923 307.659C20.9904 308.668 20.6858 310.203 21.4963 311.169C22.0831 312.139 23.872 312.1 25.0739 311.091Z" fill="#F38613" fill-opacity="0.55"/>
<path d="M35.0695 298.86C36.2714 297.851 36.576 296.315 35.7655 295.35C34.955 294.385 33.3898 294.418 32.1878 295.427C30.9859 296.437 30.6814 297.972 31.4918 298.938C32.3023 299.903 33.8675 299.869 35.0695 298.86Z" fill="#F38613" fill-opacity="0.55"/>
<path d="M47.3441 286.361C48.4126 285.464 48.7171 283.929 47.9967 283.07C47.1862 282.105 45.7111 282.246 44.6426 283.143C43.5742 284.04 43.2697 285.576 43.9901 286.434C44.5769 287.404 46.1422 287.37 47.3441 286.361Z" fill="#F38613" fill-opacity="0.55"/>
<path d="M61.4977 273.931C62.5661 273.034 62.8271 271.718 62.1067 270.86C61.3863 270.002 60.0447 270.031 58.9762 270.928C57.9078 271.825 57.6468 273.141 58.3672 273.999C58.9976 274.75 60.4292 274.828 61.4977 273.931Z" fill="#F38613" fill-opacity="0.55"/>
<path d="M76.8592 261.584C77.7941 260.799 78.0551 259.483 77.4248 258.732C76.7944 257.981 75.4528 258.01 74.5179 258.795C73.5831 259.58 73.322 260.896 73.9524 261.647C74.5827 262.398 75.9244 262.369 76.8592 261.584Z" fill="#F38613" fill-opacity="0.55"/>
<path d="M92.8048 249.661C93.6061 248.988 93.9572 247.779 93.3268 247.028C92.7865 246.385 91.5784 246.302 90.6436 247.087C89.7087 247.871 89.4912 248.968 90.1215 249.719C90.6618 250.363 92.0035 250.334 92.8048 249.661Z" fill="#F38613" fill-opacity="0.55"/>
<path d="M108.663 238.177C109.464 237.504 109.548 236.519 109.098 235.983C108.558 235.339 107.53 235.471 106.862 236.031C106.061 236.704 105.977 237.689 106.427 238.225C106.744 238.874 107.862 238.849 108.663 238.177Z" fill="#F38613" fill-opacity="0.55"/>
<path d="M123.721 227.365C124.388 226.805 124.562 225.927 124.112 225.391C123.662 224.855 122.767 224.874 122.1 225.435C121.432 225.995 121.258 226.873 121.708 227.409C122.158 227.945 123.053 227.926 123.721 227.365Z" fill="#F38613" fill-opacity="0.55"/>
<path d="M137.619 217.343C138.154 216.895 138.284 216.237 137.924 215.808C137.564 215.378 136.893 215.393 136.359 215.841C135.825 216.29 135.694 216.948 136.054 217.377C136.414 217.806 137.085 217.792 137.619 217.343Z" fill="#F38613" fill-opacity="0.55"/>
<path d="M149.912 208.121C150.312 207.785 150.443 207.127 150.173 206.805C149.903 206.483 149.232 206.497 148.831 206.834C148.43 207.17 148.3 207.828 148.57 208.15C148.84 208.472 149.511 208.457 149.912 208.121Z" fill="#F38613" fill-opacity="0.55"/>
<path d="M160.376 199.703C160.643 199.478 160.863 198.928 160.593 198.606C160.413 198.391 159.876 198.294 159.475 198.63C159.208 198.854 158.988 199.405 159.258 199.727C159.528 200.049 159.975 200.039 160.376 199.703Z" fill="#F38613" fill-opacity="0.55"/>
<path d="M168.653 192.205C168.92 191.981 168.964 191.762 168.783 191.547C168.603 191.333 168.38 191.337 168.113 191.562C167.846 191.786 167.802 192.005 167.982 192.22C167.939 192.439 168.386 192.429 168.653 192.205Z" fill="#F38613" fill-opacity="0.55"/>
<path d="M174.521 185.634C174.654 185.522 174.698 185.303 174.608 185.195C174.518 185.088 174.294 185.093 174.16 185.205C174.027 185.317 173.983 185.537 174.073 185.644C174.03 185.863 174.254 185.858 174.521 185.634Z" fill="#F38613" fill-opacity="0.55"/>
<path d="M177.933 180.209C178.067 180.096 177.977 179.989 177.977 179.989C177.887 179.882 177.753 179.994 177.753 179.994C177.62 180.106 177.71 180.213 177.71 180.213C177.71 180.213 177.8 180.321 177.933 180.209Z" fill="#F38613" fill-opacity="0.55"/>
<path d="M178.714 175.714C178.847 175.601 178.757 175.494 178.714 175.714C178.757 175.494 178.624 175.606 178.624 175.606C178.534 175.499 178.624 175.606 178.714 175.714Z" fill="#F38613" fill-opacity="0.55"/>
<path d="M18.7449 403.083C18.8784 402.971 18.8784 402.971 18.7884 402.863C18.6983 402.756 18.6983 402.756 18.5648 402.868C18.4312 402.98 18.4312 402.98 18.5213 403.088L18.7449 403.083Z" fill="#F38613" fill-opacity="0.55"/>
<path d="M26.2046 401.392C26.3382 401.279 26.3817 401.06 26.2916 400.953C26.2016 400.846 25.978 400.85 25.8444 400.963C25.7109 401.075 25.6673 401.294 25.7574 401.401C25.9375 401.616 25.9375 401.616 26.2046 401.392Z" fill="#F38613" fill-opacity="0.55"/>
<path d="M28.5647 399.593C28.8318 399.369 28.8753 399.15 28.6952 398.935C28.5151 398.721 28.2915 398.725 28.0244 398.95C27.7573 399.174 27.7138 399.393 27.8939 399.608C27.984 399.715 28.2976 399.817 28.5647 399.593Z" fill="#F38613" fill-opacity="0.55"/>
<path d="M29.086 396.961C29.3531 396.736 29.4401 396.298 29.26 396.083C29.0799 395.869 28.6327 395.878 28.3656 396.103C28.0985 396.327 28.0115 396.766 28.1916 396.98C28.3717 397.195 28.6853 397.297 29.086 396.961Z" fill="#F38613" fill-opacity="0.55"/>
<path d="M29.2019 393.572C29.6026 393.236 29.6896 392.797 29.4195 392.475C29.1493 392.154 28.7021 392.163 28.3014 392.5C27.9008 392.836 27.8138 393.275 28.0839 393.596C28.3541 393.918 28.8013 393.909 29.2019 393.572Z" fill="#F38613" fill-opacity="0.55"/>
<path d="M29.2679 389.311C29.8021 388.863 29.9326 388.205 29.5724 387.775C29.2122 387.346 28.5414 387.361 28.0072 387.809C27.473 388.258 27.3425 388.916 27.7027 389.345C28.0629 389.774 28.7337 389.76 29.2679 389.311Z" fill="#F38613" fill-opacity="0.55"/>
<path d="M29.0606 384.182C29.5948 383.734 29.7688 382.856 29.4086 382.427C29.0484 381.998 28.154 382.017 27.6198 382.466C27.0856 382.914 26.9116 383.792 27.2718 384.221C27.8556 384.645 28.5264 384.631 29.0606 384.182Z" fill="#F38613" fill-opacity="0.55"/>
<path d="M29.2498 378.171C29.9176 377.611 30.0916 376.733 29.6413 376.197C29.1911 375.66 28.2967 375.68 27.6289 376.24C26.9612 376.801 26.7871 377.678 27.2374 378.215C27.6877 378.751 28.5821 378.732 29.2498 378.171Z" fill="#F38613" fill-opacity="0.55"/>
<path d="M29.838 371.278C30.6393 370.605 30.7233 369.62 30.273 369.084C29.7327 368.44 28.7047 368.572 28.037 369.132C27.2357 369.805 27.1517 370.79 27.602 371.326C27.9186 371.975 29.0367 371.95 29.838 371.278Z" fill="#F38613" fill-opacity="0.55"/>
<path d="M31.047 363.497C31.8483 362.824 32.1994 361.615 31.569 360.864C31.0287 360.22 29.8206 360.137 28.8858 360.922C28.0844 361.595 27.7334 362.804 28.3637 363.555C28.904 364.198 30.1121 364.281 31.047 363.497Z" fill="#F38613" fill-opacity="0.55"/>
<path d="M33.1004 354.824C34.0353 354.039 34.2963 352.723 33.666 351.972C33.0356 351.221 31.694 351.25 30.7591 352.035C29.8243 352.82 29.5633 354.136 30.1936 354.887C30.9575 355.526 32.1656 355.609 33.1004 354.824Z" fill="#F38613" fill-opacity="0.55"/>
<path d="M36.5799 345.137C37.5148 344.352 37.7758 343.036 37.1455 342.285C36.5151 341.534 35.1735 341.563 34.2386 342.348C33.3038 343.133 33.0427 344.449 33.6731 345.2C34.3034 345.951 35.5115 346.034 36.5799 345.137Z" fill="#F38613" fill-opacity="0.55"/>
<path d="M41.5319 334.763C42.6003 333.866 42.8613 332.549 42.1409 331.691C41.4205 330.833 40.0789 330.862 39.0104 331.759C37.942 332.656 37.681 333.972 38.4014 334.831C39.1218 335.689 40.4634 335.66 41.5319 334.763Z" fill="#F38613" fill-opacity="0.55"/>
<path d="M48.2692 323.804C49.3376 322.907 49.5986 321.591 48.8782 320.732C48.1578 319.874 46.8162 319.903 45.7478 320.8C44.6793 321.697 44.4183 323.013 45.1387 323.872C45.7691 324.623 47.2007 324.701 48.2692 323.804Z" fill="#F38613" fill-opacity="0.55"/>
<path d="M56.8356 312.041C57.904 311.144 58.165 309.828 57.4446 308.97C56.7242 308.111 55.3826 308.141 54.3142 309.037C53.2457 309.934 52.9847 311.251 53.7051 312.109C54.4255 312.967 55.7671 312.938 56.8356 312.041Z" fill="#F38613" fill-opacity="0.55"/>
<path d="M67.7998 297.168C67.1532 296.398 65.8518 296.426 64.8929 297.231C63.934 298.036 63.6809 299.313 64.3274 300.083C64.9739 300.853 66.2754 300.825 67.2342 300.02C68.1931 299.215 68.4463 297.938 67.7998 297.168Z" fill="#F38613" fill-opacity="0.55"/>
<path d="M79.1983 287.965C80.1332 287.18 80.2606 285.976 79.7203 285.332C79.09 284.581 77.8384 284.717 77.0371 285.39C76.1022 286.175 75.9748 287.379 76.5151 288.023C76.9218 288.779 78.2634 288.749 79.1983 287.965Z" fill="#F38613" fill-opacity="0.55"/>
<path d="M92.1468 275.997C92.9481 275.325 93.1656 274.228 92.6253 273.584C92.085 272.94 90.967 272.965 90.1657 273.637C89.3644 274.31 89.1469 275.407 89.6872 276.051C90.2275 276.694 91.3455 276.67 92.1468 275.997Z" fill="#F38613" fill-opacity="0.55"/>
<path d="M105.856 264.123C106.657 263.45 106.741 262.465 106.291 261.929C105.751 261.285 104.723 261.417 104.055 261.977C103.254 262.65 103.17 263.635 103.62 264.171C104.07 264.708 105.188 264.683 105.856 264.123Z" fill="#F38613" fill-opacity="0.55"/>
<path d="M119.612 252.575C120.28 252.014 120.454 251.137 120.004 250.6C119.553 250.064 118.659 250.083 117.991 250.644C117.323 251.205 117.149 252.082 117.6 252.618C118.05 253.155 118.944 253.135 119.612 252.575Z" fill="#F38613" fill-opacity="0.55"/>
<path d="M132.924 241.583C133.458 241.134 133.722 240.364 133.272 239.828C132.912 239.399 132.151 239.306 131.483 239.867C130.949 240.315 130.685 241.085 131.135 241.622C131.585 242.158 132.39 242.031 132.924 241.583Z" fill="#F38613" fill-opacity="0.55"/>
<path d="M145.434 231.264C145.968 230.815 145.965 230.269 145.695 229.947C145.334 229.518 144.754 229.64 144.353 229.976C143.952 230.313 143.822 230.971 144.092 231.293C144.229 231.727 144.899 231.712 145.434 231.264Z" fill="#F38613" fill-opacity="0.55"/>
<path d="M156.562 221.739C156.963 221.402 157.05 220.964 156.78 220.642C156.51 220.32 156.062 220.33 155.662 220.666C155.261 221.002 155.174 221.441 155.444 221.763C155.624 221.978 156.162 222.075 156.562 221.739Z" fill="#F38613" fill-opacity="0.55"/>
<path d="M166.129 212.794C166.396 212.57 166.483 212.131 166.303 211.916C166.123 211.702 165.676 211.711 165.409 211.936C165.141 212.16 165.054 212.599 165.235 212.813C165.415 213.028 165.728 213.13 166.129 212.794Z" fill="#F38613" fill-opacity="0.55"/>
<path d="M173.689 204.984C173.822 204.872 173.999 204.541 173.819 204.326C173.729 204.219 173.416 204.117 173.148 204.341C172.881 204.565 172.838 204.784 173.018 204.999C173.242 204.994 173.555 205.096 173.689 204.984Z" fill="#F38613" fill-opacity="0.55"/>
<path d="M179.24 197.765C179.373 197.653 179.417 197.433 179.327 197.326C179.237 197.219 179.013 197.223 178.88 197.336C178.746 197.448 178.703 197.667 178.793 197.774C178.883 197.882 179.106 197.877 179.24 197.765Z" fill="#F38613" fill-opacity="0.55"/>
<path d="M182.336 191.69C182.469 191.578 182.469 191.578 182.336 191.69C182.379 191.471 182.289 191.364 182.156 191.476C182.156 191.476 182.246 191.583 182.336 191.69Z" fill="#F38613" fill-opacity="0.55"/>
<path d="M31.148 405.654C31.1915 405.434 31.058 405.546 31.058 405.546C30.9244 405.659 30.9244 405.659 31.148 405.654C31.0145 405.766 31.0145 405.766 31.148 405.654Z" fill="#F38613" fill-opacity="0.55"/>
<path d="M39.0551 403.953C39.1886 403.841 39.0986 403.734 39.0986 403.734C39.0085 403.626 39.0085 403.626 38.875 403.738C38.7414 403.851 38.8315 403.958 38.8315 403.958C38.788 404.177 38.9215 404.065 39.0551 403.953Z" fill="#F38613" fill-opacity="0.55"/>
<path d="M41.6828 401.93C41.8163 401.818 41.8598 401.599 41.7698 401.491C41.6797 401.384 41.4561 401.389 41.3226 401.501C41.189 401.613 41.1455 401.833 41.2356 401.94C41.1921 402.159 41.4157 402.154 41.6828 401.93Z" fill="#F38613" fill-opacity="0.55"/>
<path d="M43.2327 399.166C43.4998 398.942 43.5433 398.723 43.3632 398.508C43.1831 398.294 42.9595 398.299 42.6924 398.523C42.4253 398.747 42.3818 398.966 42.5619 399.181C42.6519 399.288 42.9656 399.391 43.2327 399.166Z" fill="#F38613" fill-opacity="0.55"/>
<path d="M44.6432 395.422C44.9103 395.198 44.9973 394.759 44.8172 394.544C44.6371 394.33 44.1899 394.34 43.9228 394.564C43.6557 394.788 43.5687 395.227 43.7488 395.441C43.7953 395.768 44.2425 395.758 44.6432 395.422Z" fill="#F38613" fill-opacity="0.55"/>
<path d="M45.8699 390.917C46.2706 390.581 46.3576 390.142 46.0874 389.82C45.8173 389.499 45.3701 389.508 44.9694 389.845C44.5688 390.181 44.4817 390.62 44.7519 390.942C45.022 391.263 45.4693 391.254 45.8699 390.917Z" fill="#F38613" fill-opacity="0.55"/>
<path d="M47.2708 385.535C47.805 385.087 47.9355 384.429 47.5753 384C47.2151 383.571 46.5443 383.585 46.0101 384.034C45.4759 384.482 45.3454 385.14 45.7056 385.569C46.0658 385.998 46.7366 385.984 47.2708 385.535Z" fill="#F38613" fill-opacity="0.55"/>
<path d="M49.0704 379.271C49.6046 378.822 49.8686 378.052 49.4184 377.515C49.0582 377.086 48.2973 376.994 47.6296 377.554C47.0954 378.003 46.8313 378.773 47.2816 379.309C47.6418 379.738 48.4026 379.831 49.0704 379.271Z" fill="#F38613" fill-opacity="0.55"/>
<path d="M51.1336 372.236C51.8014 371.675 51.9754 370.798 51.5251 370.261C51.0749 369.725 50.1805 369.744 49.5127 370.305C48.8449 370.865 48.6709 371.743 49.1212 372.279C49.705 372.704 50.5994 372.684 51.1336 372.236Z" fill="#F38613" fill-opacity="0.55"/>
<path d="M54.0846 364.089C54.7523 363.529 55.0599 362.539 54.5196 361.896C54.0693 361.359 53.0849 361.271 52.2835 361.944C51.6158 362.505 51.3082 363.494 51.8485 364.138C52.3888 364.781 53.2832 364.762 54.0846 364.089Z" fill="#F38613" fill-opacity="0.55"/>
<path d="M57.8363 355.271C58.6376 354.598 58.8551 353.501 58.3148 352.858C57.7745 352.214 56.6565 352.238 55.8552 352.911C55.0538 353.584 54.8363 354.68 55.3766 355.324C56.0505 355.856 57.0349 355.943 57.8363 355.271Z" fill="#F38613" fill-opacity="0.55"/>
<path d="M62.8822 345.55C63.6835 344.877 63.901 343.78 63.3607 343.137C62.8204 342.493 61.7024 342.517 60.9011 343.19C60.0997 343.863 59.8822 344.96 60.4225 345.603C60.9628 346.247 62.0808 346.223 62.8822 345.55Z" fill="#F38613" fill-opacity="0.55"/>
<path d="M69.1739 335.147C70.1088 334.362 70.3263 333.265 69.6959 332.514C69.1556 331.87 67.9476 331.787 67.0127 332.572C66.2114 333.245 65.8603 334.454 66.4907 335.205C67.121 335.956 68.239 335.931 69.1739 335.147Z" fill="#F38613" fill-opacity="0.55"/>
<path d="M76.8058 324.169C77.6071 323.496 77.9581 322.287 77.3278 321.536C76.7875 320.893 75.5794 320.81 74.6446 321.594C73.8432 322.267 73.4922 323.476 74.1225 324.227C74.7529 324.978 75.8709 324.954 76.8058 324.169Z" fill="#F38613" fill-opacity="0.55"/>
<path d="M85.8663 312.722C86.6676 312.05 87.0187 310.841 86.3883 310.09C85.758 309.339 84.64 309.363 83.7051 310.148C82.9038 310.821 82.5527 312.03 83.1831 312.781C83.8134 313.532 84.9314 313.507 85.8663 312.722Z" fill="#F38613" fill-opacity="0.55"/>
<path d="M96.0443 301.252C96.8456 300.579 97.0631 299.482 96.5228 298.839C95.9825 298.195 94.8645 298.219 94.0632 298.892C93.2619 299.565 93.0443 300.662 93.5846 301.305C94.1249 301.949 95.243 301.925 96.0443 301.252Z" fill="#F38613" fill-opacity="0.55"/>
<path d="M107.294 289.431C108.095 288.758 108.179 287.773 107.729 287.237C107.189 286.593 106.161 286.725 105.493 287.286C104.692 287.958 104.608 288.943 105.058 289.479C105.375 290.128 106.493 290.104 107.294 289.431Z" fill="#F38613" fill-opacity="0.55"/>
<path d="M118.948 277.819C119.616 277.259 119.923 276.269 119.383 275.625C118.933 275.089 117.948 275.001 117.147 275.674C116.479 276.234 116.171 277.224 116.712 277.868C117.386 278.399 118.28 278.38 118.948 277.819Z" fill="#F38613" fill-opacity="0.55"/>
<path d="M131.005 266.418C131.672 265.857 131.846 264.98 131.396 264.443C130.946 263.907 130.052 263.926 129.384 264.487C128.716 265.047 128.542 265.925 128.992 266.461C129.443 266.998 130.337 266.978 131.005 266.418Z" fill="#F38613" fill-opacity="0.55"/>
<path d="M142.527 255.464C143.062 255.016 143.326 254.246 142.875 253.709C142.515 253.28 141.844 253.295 141.177 253.855C140.642 254.304 140.378 255.074 140.739 255.503C141.322 255.927 141.993 255.913 142.527 255.464Z" fill="#F38613" fill-opacity="0.55"/>
<path d="M153.517 244.959C153.918 244.623 154.048 243.965 153.778 243.643C153.508 243.321 152.837 243.336 152.437 243.672C152.036 244.008 151.905 244.667 152.176 244.988C152.446 245.31 153.116 245.296 153.517 244.959Z" fill="#F38613" fill-opacity="0.55"/>
<path d="M163.48 235.132C163.881 234.796 163.968 234.357 163.698 234.035C163.428 233.713 162.98 233.723 162.58 234.059C162.179 234.396 162.092 234.834 162.362 235.156C162.632 235.478 163.08 235.468 163.48 235.132Z" fill="#F38613" fill-opacity="0.55"/>
<path d="M171.973 225.992C172.24 225.768 172.327 225.329 172.147 225.114C171.967 224.9 171.519 224.909 171.252 225.134C170.985 225.358 170.898 225.797 171.078 226.011C171.258 226.226 171.706 226.216 171.973 225.992Z" fill="#F38613" fill-opacity="0.55"/>
<path d="M178.768 217.544C179.035 217.32 179.078 217.1 178.898 216.886C178.718 216.671 178.495 216.676 178.228 216.9C177.96 217.124 177.917 217.344 178.097 217.558C178.277 217.773 178.634 217.656 178.768 217.544Z" fill="#F38613" fill-opacity="0.55"/>
<path d="M183.825 210.007C183.958 209.895 184.002 209.676 183.912 209.568C183.822 209.461 183.598 209.466 183.465 209.578C183.331 209.69 183.287 209.91 183.378 210.017C183.468 210.124 183.691 210.119 183.825 210.007Z" fill="#F38613" fill-opacity="0.55"/>
<path d="M186.605 203.284C186.739 203.172 186.649 203.065 186.649 203.065C186.559 202.958 186.425 203.07 186.425 203.07C186.292 203.182 186.382 203.289 186.382 203.289C186.472 203.396 186.472 203.396 186.605 203.284Z" fill="#F38613" fill-opacity="0.55"/>
<path d="M187.199 197.483C187.242 197.264 187.109 197.376 187.109 197.376C186.975 197.488 186.975 197.488 187.199 197.483C187.065 197.595 187.065 197.595 187.199 197.483Z" fill="#F38613" fill-opacity="0.55"/>
<path d="M36.0386 408.497C35.9486 408.389 35.9486 408.389 36.0386 408.497C35.815 408.501 35.815 408.501 36.0386 408.497C35.9051 408.609 35.9051 408.609 36.0386 408.497Z" fill="#F38613" fill-opacity="0.55"/>
<path d="M43.5486 407.678C43.6822 407.566 43.5921 407.459 43.5486 407.678C43.5921 407.459 43.5021 407.352 43.3685 407.464C43.3685 407.464 43.235 407.576 43.5486 407.678Z" fill="#F38613" fill-opacity="0.55"/>
<path d="M52.0357 405.856C52.1692 405.744 52.2127 405.525 52.1227 405.418C52.0326 405.31 51.809 405.315 51.6755 405.427C51.5419 405.539 51.4984 405.759 51.5885 405.866C51.6785 405.973 51.9021 405.969 52.0357 405.856Z" fill="#F38613" fill-opacity="0.55"/>
<path d="M55.0646 403.497C55.1982 403.385 55.2417 403.166 55.1516 403.059C55.0616 402.951 54.838 402.956 54.7044 403.068C54.5709 403.18 54.5274 403.4 54.6174 403.507C54.5739 403.726 54.7975 403.722 55.0646 403.497Z" fill="#F38613" fill-opacity="0.55"/>
<path d="M57.7751 400.489C58.0422 400.265 57.9956 399.938 57.9056 399.831C57.7255 399.617 57.3683 399.734 57.2348 399.846C56.9676 400.07 56.9241 400.289 57.1042 400.504C57.1508 400.83 57.5079 400.714 57.7751 400.489Z" fill="#F38613" fill-opacity="0.55"/>
<path d="M60.2139 396.614C60.481 396.39 60.568 395.951 60.3879 395.736C60.2078 395.522 59.7606 395.531 59.4935 395.756C59.2264 395.98 59.1394 396.419 59.3195 396.633C59.5896 396.955 59.9468 396.838 60.2139 396.614Z" fill="#F38613" fill-opacity="0.55"/>
<path d="M62.826 391.861C63.2266 391.524 63.3136 391.085 63.0435 390.764C62.7733 390.442 62.3261 390.452 61.9255 390.788C61.5248 391.124 61.4378 391.563 61.708 391.885C61.9781 392.207 62.4253 392.197 62.826 391.861Z" fill="#F38613" fill-opacity="0.55"/>
<path d="M65.6128 386.23C66.147 385.781 66.144 385.235 65.8738 384.913C65.5136 384.484 64.9329 384.606 64.5322 384.943C64.1316 385.279 64.0011 385.937 64.2712 386.259C64.5414 386.581 65.0786 386.678 65.6128 386.23Z" fill="#F38613" fill-opacity="0.55"/>
<path d="M68.5726 379.722C69.1068 379.273 69.2373 378.615 68.8771 378.186C68.5169 377.757 67.8461 377.772 67.3119 378.22C66.7777 378.669 66.6471 379.327 67.0073 379.756C67.3675 380.185 68.0384 380.17 68.5726 379.722Z" fill="#F38613" fill-opacity="0.55"/>
<path d="M72.1544 372.326C72.8221 371.766 72.8626 371 72.5024 370.571C72.1422 370.142 71.2478 370.162 70.7135 370.61C70.1793 371.059 70.0053 371.936 70.3655 372.365C70.8158 372.902 71.6201 372.775 72.1544 372.326Z" fill="#F38613" fill-opacity="0.55"/>
<path d="M76.4481 364.151C77.1158 363.59 77.2898 362.713 76.8396 362.176C76.3893 361.64 75.4949 361.659 74.8272 362.22C74.1594 362.781 73.9854 363.658 74.4356 364.194C74.8859 364.731 75.7803 364.711 76.4481 364.151Z" fill="#F38613" fill-opacity="0.55"/>
<path d="M81.5847 355.084C82.2525 354.523 82.4265 353.646 81.9763 353.109C81.526 352.573 80.6316 352.592 79.9638 353.153C79.2961 353.713 79.1221 354.591 79.5723 355.127C79.889 355.776 80.7834 355.756 81.5847 355.084Z" fill="#F38613" fill-opacity="0.55"/>
<path d="M87.6138 345.451C88.2816 344.89 88.5892 343.901 88.0489 343.257C87.5986 342.721 86.6142 342.633 85.8128 343.305C85.1451 343.866 84.8375 344.856 85.3778 345.499C85.8281 346.036 86.8125 346.123 87.6138 345.451Z" fill="#F38613" fill-opacity="0.55"/>
<path d="M94.6685 335.14C95.3363 334.58 95.6439 333.59 95.1036 332.947C94.6533 332.41 93.6688 332.322 92.8675 332.995C92.1998 333.556 91.8922 334.545 92.4325 335.189C92.8828 335.725 93.8672 335.813 94.6685 335.14Z" fill="#F38613" fill-opacity="0.55"/>
<path d="M102.614 324.264C103.282 323.704 103.589 322.714 103.049 322.071C102.599 321.534 101.614 321.446 100.813 322.119C100.145 322.68 99.8375 323.669 100.378 324.313C100.918 324.957 101.946 324.825 102.614 324.264Z" fill="#F38613" fill-opacity="0.55"/>
<path d="M111.587 313.257C112.254 312.696 112.429 311.819 111.978 311.283C111.528 310.746 110.634 310.766 109.966 311.326C109.298 311.887 109.124 312.764 109.574 313.301C110.025 313.837 110.919 313.818 111.587 313.257Z" fill="#F38613" fill-opacity="0.55"/>
<path d="M121.183 301.909C121.851 301.348 122.025 300.471 121.575 299.934C121.125 299.398 120.23 299.417 119.563 299.978C118.895 300.539 118.721 301.416 119.171 301.952C119.845 302.484 120.649 302.357 121.183 301.909Z" fill="#F38613" fill-opacity="0.55"/>
<path d="M131.452 290.546C131.986 290.097 132.16 289.22 131.8 288.791C131.44 288.361 130.546 288.381 130.011 288.829C129.477 289.278 129.303 290.155 129.663 290.584C130.114 291.121 130.784 291.106 131.452 290.546Z" fill="#F38613" fill-opacity="0.55"/>
<path d="M141.678 279.402C142.212 278.953 142.343 278.295 141.983 277.866C141.622 277.437 140.952 277.452 140.417 277.9C139.883 278.349 139.753 279.007 140.113 279.436C140.473 279.865 141.144 279.85 141.678 279.402Z" fill="#F38613" fill-opacity="0.55"/>
<path d="M151.859 268.478C152.26 268.141 152.39 267.483 152.12 267.161C151.85 266.84 151.179 266.854 150.778 267.19C150.378 267.527 150.247 268.185 150.517 268.507C150.878 268.936 151.325 268.926 151.859 268.478Z" fill="#F38613" fill-opacity="0.55"/>
<path d="M161.506 258.002C161.907 257.666 161.994 257.227 161.724 256.905C161.454 256.583 161.007 256.593 160.606 256.929C160.205 257.266 160.118 257.704 160.388 258.026C160.525 258.46 161.106 258.338 161.506 258.002Z" fill="#F38613" fill-opacity="0.55"/>
<path d="M170.172 247.984C170.439 247.76 170.526 247.321 170.346 247.107C170.166 246.892 169.719 246.902 169.451 247.126C169.184 247.35 169.097 247.789 169.277 248.004C169.458 248.218 169.771 248.321 170.172 247.984Z" fill="#F38613" fill-opacity="0.55"/>
<path d="M177.589 238.649C177.856 238.425 177.9 238.205 177.72 237.991C177.54 237.776 177.316 237.781 177.049 238.005C176.782 238.229 176.738 238.449 176.918 238.663C177.098 238.878 177.322 238.873 177.589 238.649Z" fill="#F38613" fill-opacity="0.55"/>
<path d="M183.755 229.45C183.655 229.331 183.455 229.336 183.307 229.459C183.16 229.583 183.121 229.78 183.22 229.898C183.32 230.017 183.52 230.012 183.668 229.889C183.815 229.765 183.854 229.568 183.755 229.45Z" fill="#F38613" fill-opacity="0.55"/>
<path d="M187.916 221.933C188.05 221.821 187.96 221.713 187.96 221.713C187.87 221.606 187.736 221.718 187.736 221.718C187.603 221.83 187.693 221.938 187.693 221.938C187.649 222.157 187.783 222.045 187.916 221.933Z" fill="#F38613" fill-opacity="0.55"/>
<path d="M190.203 214.893C190.337 214.781 190.337 214.781 190.203 214.893C190.247 214.674 190.023 214.679 190.023 214.679C190.113 214.786 190.113 214.786 190.203 214.893Z" fill="#F38613" fill-opacity="0.55"/>
<path d="M190.57 208.55C190.48 208.443 190.48 208.443 190.57 208.55C190.346 208.555 190.48 208.443 190.57 208.55Z" fill="#F38613" fill-opacity="0.55"/>
<path d="M55.8086 408.723C55.8521 408.504 55.7185 408.616 55.7185 408.616C55.7185 408.616 55.7185 408.616 55.8086 408.723Z" fill="#F38613" fill-opacity="0.55"/>
<path d="M64.3406 406.682C64.4741 406.57 64.4741 406.57 64.3841 406.462C64.294 406.355 64.294 406.355 64.1605 406.467C64.0269 406.579 64.0269 406.579 64.117 406.687C64.207 406.794 64.3406 406.682 64.3406 406.682Z" fill="#F38613" fill-opacity="0.55"/>
<path d="M68.2622 404.303C68.3958 404.191 68.4393 403.972 68.3492 403.865C68.2592 403.757 68.0356 403.762 67.902 403.874C67.7685 403.986 67.725 404.206 67.815 404.313C67.9051 404.42 68.1287 404.415 68.2622 404.303Z" fill="#F38613" fill-opacity="0.55"/>
<path d="M72.0461 400.945C72.1796 400.833 72.2231 400.613 72.1331 400.506C72.043 400.399 71.8194 400.404 71.6859 400.516C71.5523 400.628 71.5088 400.847 71.5989 400.954C71.5554 401.174 71.779 401.169 72.0461 400.945Z" fill="#F38613" fill-opacity="0.55"/>
<path d="M75.6461 396.825C75.9132 396.601 75.9567 396.382 75.7766 396.167C75.5965 395.953 75.2394 396.07 75.1058 396.182C74.8387 396.406 74.8853 396.733 74.9753 396.84C75.0219 397.166 75.379 397.049 75.6461 396.825Z" fill="#F38613" fill-opacity="0.55"/>
<path d="M79.4195 391.829C79.6866 391.604 79.7737 391.166 79.5936 390.951C79.4135 390.737 78.9662 390.746 78.6991 390.97C78.432 391.195 78.345 391.633 78.5251 391.848C78.5717 392.175 79.0189 392.165 79.4195 391.829Z" fill="#F38613" fill-opacity="0.55"/>
<path d="M83.2342 386.066C83.6348 385.73 83.7218 385.291 83.4517 384.97C83.1815 384.648 82.7343 384.657 82.3337 384.994C81.933 385.33 81.846 385.769 82.1162 386.091C82.2963 386.305 82.8335 386.403 83.2342 386.066Z" fill="#F38613" fill-opacity="0.55"/>
<path d="M87.4898 379.203C87.8905 378.866 88.021 378.208 87.7508 377.886C87.4807 377.564 86.8099 377.579 86.4092 377.915C86.0085 378.252 85.878 378.91 86.1482 379.232C86.4183 379.553 86.9556 379.651 87.4898 379.203Z" fill="#F38613" fill-opacity="0.55"/>
<path d="M92.1895 371.783C92.7237 371.335 92.7207 370.789 92.4505 370.467C92.0903 370.038 91.5096 370.159 91.1089 370.496C90.5747 370.944 90.5777 371.49 90.8479 371.812C90.9845 372.246 91.6553 372.231 92.1895 371.783Z" fill="#F38613" fill-opacity="0.55"/>
<path d="M97.5103 363.476C98.0445 363.027 98.175 362.369 97.8148 361.94C97.4546 361.511 96.7838 361.526 96.2496 361.974C95.7154 362.423 95.5849 363.081 95.9451 363.51C96.0817 363.944 96.9761 363.924 97.5103 363.476Z" fill="#F38613" fill-opacity="0.55"/>
<path d="M103.409 354.501C103.943 354.053 104.207 353.283 103.757 352.746C103.397 352.317 102.726 352.332 102.058 352.892C101.524 353.341 101.393 353.999 101.753 354.428C101.98 354.969 102.875 354.95 103.409 354.501Z" fill="#F38613" fill-opacity="0.55"/>
<path d="M110.018 344.747C110.552 344.298 110.816 343.528 110.366 342.992C110.005 342.563 109.245 342.47 108.577 343.03C108.043 343.479 107.779 344.249 108.229 344.786C108.679 345.322 109.35 345.307 110.018 344.747Z" fill="#F38613" fill-opacity="0.55"/>
<path d="M117.342 334.758C117.876 334.31 118.05 333.432 117.69 333.003C117.33 332.574 116.435 332.593 115.901 333.042C115.367 333.49 115.193 334.368 115.553 334.797C115.913 335.226 116.808 335.207 117.342 334.758Z" fill="#F38613" fill-opacity="0.55"/>
<path d="M125.334 324.209C125.868 323.76 126.132 322.99 125.682 322.454C125.322 322.025 124.561 321.932 123.893 322.492C123.359 322.941 123.095 323.711 123.545 324.247C124.129 324.672 124.8 324.657 125.334 324.209Z" fill="#F38613" fill-opacity="0.55"/>
<path d="M133.951 313.319C134.485 312.87 134.615 312.212 134.255 311.783C133.895 311.354 133.224 311.368 132.69 311.817C132.156 312.265 132.025 312.923 132.386 313.353C132.612 313.894 133.417 313.767 133.951 313.319Z" fill="#F38613" fill-opacity="0.55"/>
<path d="M142.79 302.423C143.325 301.975 143.455 301.317 143.095 300.888C142.735 300.459 142.064 300.473 141.53 300.922C140.995 301.37 140.865 302.028 141.225 302.457C141.585 302.886 142.256 302.872 142.79 302.423Z" fill="#F38613" fill-opacity="0.55"/>
<path d="M151.72 291.635C152.121 291.299 152.251 290.641 151.981 290.319C151.621 289.89 151.04 290.012 150.64 290.348C150.239 290.684 150.108 291.343 150.379 291.664C150.649 291.986 151.32 291.972 151.72 291.635Z" fill="#F38613" fill-opacity="0.55"/>
<path d="M160.516 280.96C160.917 280.623 161.047 279.965 160.777 279.643C160.507 279.321 159.836 279.336 159.436 279.672C159.035 280.009 158.904 280.667 159.175 280.989C159.578 281.198 160.116 281.296 160.516 280.96Z" fill="#F38613" fill-opacity="0.55"/>
<path d="M168.821 270.513C169.222 270.177 169.309 269.738 169.039 269.416C168.768 269.094 168.321 269.104 167.921 269.44C167.52 269.777 167.433 270.215 167.703 270.537C168.107 270.747 168.554 270.737 168.821 270.513Z" fill="#F38613" fill-opacity="0.55"/>
<path d="M176.369 260.519C176.636 260.295 176.723 259.856 176.543 259.642C176.363 259.427 175.916 259.437 175.649 259.661C175.382 259.885 175.295 260.324 175.475 260.539C175.655 260.753 176.102 260.744 176.369 260.519Z" fill="#F38613" fill-opacity="0.55"/>
<path d="M182.935 250.984C183.202 250.76 183.245 250.541 183.065 250.326C182.885 250.112 182.662 250.116 182.395 250.341C182.127 250.565 182.084 250.784 182.264 250.999C182.354 251.106 182.668 251.208 182.935 250.984Z" fill="#F38613" fill-opacity="0.55"/>
<path d="M188.03 242.136C188.163 242.024 188.207 241.805 188.117 241.697C188.027 241.59 187.803 241.595 187.67 241.707C187.536 241.819 187.493 242.039 187.583 242.146C187.673 242.253 187.896 242.248 188.03 242.136Z" fill="#F38613" fill-opacity="0.55"/>
<path d="M191.561 233.868C191.695 233.756 191.738 233.537 191.648 233.429C191.558 233.322 191.334 233.327 191.201 233.439C191.067 233.551 191.024 233.771 191.114 233.878C191.337 233.873 191.428 233.98 191.561 233.868Z" fill="#F38613" fill-opacity="0.55"/>
<path d="M193.398 226.292C193.442 226.073 193.218 226.077 193.218 226.077C193.084 226.189 193.174 226.297 193.398 226.292C193.264 226.404 193.264 226.404 193.398 226.292Z" fill="#F38613" fill-opacity="0.55"/>
<path d="M193.271 219.632C193.181 219.525 193.181 219.525 193.271 219.632C193.048 219.637 193.181 219.525 193.271 219.632Z" fill="#F38613" fill-opacity="0.55"/>
<path d="M67.8867 409.008C67.9302 408.788 67.7967 408.9 67.7967 408.9C67.7967 408.9 67.7967 408.9 67.8867 409.008Z" fill="#F38613" fill-opacity="0.55"/>
<path d="M76.3279 406.859C76.4614 406.747 76.4614 406.747 76.3714 406.64C76.2813 406.532 76.2813 406.532 76.1478 406.645C76.0142 406.757 76.0142 406.757 76.1043 406.864C76.1943 406.971 76.3279 406.859 76.3279 406.859Z" fill="#F38613" fill-opacity="0.55"/>
<path d="M81.0982 404.134C81.2317 404.022 81.2752 403.802 81.1852 403.695C81.0951 403.588 80.8715 403.593 80.738 403.705C80.6044 403.817 80.5609 404.036 80.651 404.144C80.8311 404.358 80.9646 404.246 81.0982 404.134Z" fill="#F38613" fill-opacity="0.55"/>
<path d="M85.7749 400.756C85.9085 400.644 85.952 400.425 85.8619 400.318C85.7719 400.21 85.5483 400.215 85.4147 400.327C85.2812 400.439 85.2377 400.659 85.3277 400.766C85.4178 400.873 85.6414 400.868 85.7749 400.756Z" fill="#F38613" fill-opacity="0.55"/>
<path d="M90.4469 396.286C90.714 396.062 90.7575 395.842 90.5774 395.628C90.3973 395.413 90.1737 395.418 89.9066 395.642C89.6395 395.867 89.596 396.086 89.7761 396.3C89.8227 396.627 90.1798 396.51 90.4469 396.286Z" fill="#F38613" fill-opacity="0.55"/>
<path d="M95.0254 391.163C95.2925 390.938 95.3795 390.5 95.1994 390.285C95.0193 390.071 94.5721 390.08 94.305 390.304C94.0379 390.529 93.9509 390.967 94.131 391.182C94.3111 391.397 94.7583 391.387 95.0254 391.163Z" fill="#F38613" fill-opacity="0.55"/>
<path d="M99.9108 385.05C100.178 384.826 100.265 384.387 100.085 384.172C99.9047 383.958 99.4575 383.967 99.1903 384.192C98.9232 384.416 98.8362 384.855 99.0163 385.069C99.0629 385.396 99.5101 385.386 99.9108 385.05Z" fill="#F38613" fill-opacity="0.55"/>
<path d="M105.151 378.274C105.552 377.937 105.639 377.499 105.369 377.177C105.099 376.855 104.651 376.865 104.251 377.201C103.85 377.537 103.763 377.976 104.033 378.298C104.303 378.62 104.751 378.61 105.151 378.274Z" fill="#F38613" fill-opacity="0.55"/>
<path d="M110.565 370.62C110.966 370.284 111.053 369.845 110.783 369.523C110.512 369.201 110.065 369.211 109.665 369.547C109.264 369.884 109.177 370.322 109.447 370.644C109.584 371.078 110.164 370.956 110.565 370.62Z" fill="#F38613" fill-opacity="0.55"/>
<path d="M116.556 362.299C116.957 361.962 117.087 361.304 116.817 360.982C116.547 360.661 115.876 360.675 115.476 361.012C115.075 361.348 114.944 362.006 115.215 362.328C115.485 362.65 116.022 362.747 116.556 362.299Z" fill="#F38613" fill-opacity="0.55"/>
<path d="M123.163 351.998C122.865 351.642 122.264 351.656 121.821 352.027C121.379 352.399 121.262 352.988 121.56 353.343C121.859 353.699 122.459 353.686 122.902 353.314C123.344 352.943 123.461 352.353 123.163 351.998Z" fill="#F38613" fill-opacity="0.55"/>
<path d="M129.782 343.882C130.182 343.545 130.313 342.887 130.043 342.565C129.773 342.243 129.102 342.258 128.701 342.594C128.301 342.931 128.17 343.589 128.44 343.911C128.71 344.232 129.381 344.218 129.782 343.882Z" fill="#F38613" fill-opacity="0.55"/>
<path d="M137.106 333.893C137.507 333.557 137.637 332.898 137.367 332.577C137.097 332.255 136.426 332.269 136.025 332.606C135.625 332.942 135.494 333.6 135.764 333.922C136.125 334.351 136.705 334.229 137.106 333.893Z" fill="#F38613" fill-opacity="0.55"/>
<path d="M144.697 323.68C145.097 323.344 145.228 322.686 144.958 322.364C144.688 322.042 144.017 322.057 143.616 322.393C143.216 322.729 143.085 323.387 143.355 323.709C143.849 324.026 144.296 324.016 144.697 323.68Z" fill="#F38613" fill-opacity="0.55"/>
<path d="M152.555 313.243C152.956 312.907 153.043 312.468 152.773 312.146C152.503 311.824 152.056 311.834 151.655 312.17C151.254 312.507 151.167 312.945 151.437 313.267C151.708 313.589 152.155 313.579 152.555 313.243Z" fill="#F38613" fill-opacity="0.55"/>
<path d="M160.548 302.694C160.948 302.358 161.035 301.919 160.765 301.597C160.495 301.275 160.048 301.285 159.647 301.621C159.246 301.958 159.159 302.396 159.43 302.718C159.7 303.04 160.147 303.03 160.548 302.694Z" fill="#F38613" fill-opacity="0.55"/>
<path d="M168.182 292.262C168.449 292.037 168.536 291.599 168.356 291.384C168.176 291.17 167.729 291.179 167.462 291.403C167.195 291.628 167.108 292.066 167.288 292.281C167.334 292.608 167.782 292.598 168.182 292.262Z" fill="#F38613" fill-opacity="0.55"/>
<path d="M175.5 281.181C175.301 280.944 174.901 280.953 174.606 281.2C174.311 281.448 174.233 281.841 174.432 282.078C174.631 282.315 175.031 282.306 175.326 282.058C175.621 281.811 175.699 281.418 175.5 281.181Z" fill="#F38613" fill-opacity="0.55"/>
<path d="M181.846 272.197C182.113 271.972 182.157 271.753 181.976 271.538C181.796 271.324 181.573 271.329 181.306 271.553C181.039 271.777 180.995 271.997 181.175 272.211C181.265 272.318 181.579 272.421 181.846 272.197Z" fill="#F38613" fill-opacity="0.55"/>
<path d="M187.294 262.685C187.428 262.573 187.472 262.354 187.381 262.247C187.291 262.139 187.068 262.144 186.934 262.256C186.801 262.368 186.757 262.588 186.847 262.695C186.937 262.802 187.161 262.798 187.294 262.685Z" fill="#F38613" fill-opacity="0.55"/>
<path d="M191.538 253.637C191.671 253.525 191.715 253.306 191.625 253.199C191.535 253.091 191.311 253.096 191.177 253.208C191.044 253.321 191 253.54 191.09 253.647C191.404 253.75 191.404 253.75 191.538 253.637Z" fill="#F38613" fill-opacity="0.55"/>
<path d="M194.442 245.165C194.485 244.945 194.395 244.838 194.262 244.95C194.218 245.17 194.218 245.17 194.442 245.165C194.308 245.277 194.308 245.277 194.442 245.165Z" fill="#F38613" fill-opacity="0.55"/>
<path d="M195.742 237.491C195.652 237.384 195.652 237.384 195.742 237.491C195.518 237.496 195.652 237.384 195.742 237.491Z" fill="#F38613" fill-opacity="0.55"/>
<path d="M79.4678 408.429C79.3777 408.322 79.5113 408.209 79.4678 408.429C79.3777 408.322 79.3777 408.322 79.4678 408.429Z" fill="#F38613" fill-opacity="0.55"/>
<path d="M87.5945 406.178C87.638 405.958 87.5045 406.071 87.5045 406.071C87.4144 405.963 87.3709 406.183 87.5945 406.178Z" fill="#F38613" fill-opacity="0.55"/>
<path d="M93.0798 403.219C93.2134 403.107 93.2134 403.107 93.1233 403C93.0333 402.892 93.0333 402.892 92.8997 403.005C92.7662 403.117 92.7662 403.117 92.8562 403.224C92.9463 403.331 92.9463 403.331 93.0798 403.219Z" fill="#F38613" fill-opacity="0.55"/>
<path d="M98.605 399.495C98.7385 399.383 98.7821 399.164 98.692 399.056C98.602 398.949 98.3783 398.954 98.2448 399.066C98.1112 399.178 98.0677 399.398 98.1578 399.505C98.3379 399.719 98.4714 399.607 98.605 399.495Z" fill="#F38613" fill-opacity="0.55"/>
<path d="M103.947 395.01C104.08 394.898 104.124 394.679 104.034 394.572C103.944 394.464 103.72 394.469 103.587 394.581C103.453 394.693 103.41 394.913 103.5 395.02C103.59 395.127 103.813 395.123 103.947 395.01Z" fill="#F38613" fill-opacity="0.55"/>
<path d="M109.684 389.097C109.534 388.92 109.234 388.926 109.013 389.112C108.791 389.298 108.733 389.592 108.882 389.77C109.031 389.948 109.332 389.941 109.553 389.756C109.774 389.57 109.833 389.275 109.684 389.097Z" fill="#F38613" fill-opacity="0.55"/>
<path d="M115.021 383.521C115.288 383.296 115.331 383.077 115.151 382.862C114.971 382.648 114.748 382.653 114.48 382.877C114.213 383.101 114.17 383.321 114.35 383.535C114.53 383.75 114.887 383.633 115.021 383.521Z" fill="#F38613" fill-opacity="0.55"/>
<path d="M120.841 376.623C121.108 376.399 121.195 375.96 121.015 375.745C120.835 375.531 120.388 375.54 120.12 375.765C119.853 375.989 119.766 376.428 119.946 376.642C120.127 376.857 120.574 376.847 120.841 376.623Z" fill="#F38613" fill-opacity="0.55"/>
<path d="M126.926 368.955C127.193 368.731 127.28 368.292 127.1 368.077C126.92 367.863 126.473 367.872 126.205 368.097C125.938 368.321 125.851 368.76 126.031 368.974C126.212 369.189 126.659 369.179 126.926 368.955Z" fill="#F38613" fill-opacity="0.55"/>
<path d="M133.23 360.736C133.498 360.512 133.585 360.073 133.405 359.858C133.224 359.644 132.777 359.653 132.51 359.878C132.243 360.102 132.156 360.541 132.336 360.755C132.516 360.97 132.963 360.96 133.23 360.736Z" fill="#F38613" fill-opacity="0.55"/>
<path d="M139.89 351.854C140.158 351.63 140.378 351.079 140.108 350.757C139.838 350.435 139.391 350.445 138.99 350.781C138.589 351.118 138.502 351.556 138.772 351.878C139.043 352.2 139.49 352.19 139.89 351.854Z" fill="#F38613" fill-opacity="0.55"/>
<path d="M146.637 342.533C146.904 342.309 147.124 341.758 146.854 341.436C146.584 341.114 146.137 341.124 145.736 341.46C145.335 341.797 145.248 342.235 145.518 342.557C145.789 342.879 146.236 342.869 146.637 342.533Z" fill="#F38613" fill-opacity="0.55"/>
<path d="M153.56 332.881C153.827 332.657 153.914 332.218 153.734 332.004C153.554 331.789 153.106 331.799 152.839 332.023C152.572 332.247 152.485 332.686 152.665 332.901C152.935 333.222 153.292 333.105 153.56 332.881Z" fill="#F38613" fill-opacity="0.55"/>
<path d="M160.75 323.005C161.017 322.78 161.104 322.342 160.924 322.127C160.744 321.912 160.297 321.922 160.03 322.146C159.763 322.371 159.676 322.809 159.856 323.024C160.036 323.238 160.483 323.229 160.75 323.005Z" fill="#F38613" fill-opacity="0.55"/>
<path d="M167.761 312.913C168.028 312.689 168.115 312.25 167.935 312.036C167.755 311.821 167.307 311.831 167.04 312.055C166.773 312.279 166.686 312.718 166.866 312.933C167.046 313.147 167.36 313.25 167.761 312.913Z" fill="#F38613" fill-opacity="0.55"/>
<path d="M174.324 302.832C174.592 302.608 174.545 302.281 174.455 302.174C174.365 302.067 173.918 302.077 173.784 302.189C173.517 302.413 173.564 302.74 173.654 302.847C173.744 302.954 174.057 303.056 174.324 302.832Z" fill="#F38613" fill-opacity="0.55"/>
<path d="M180.53 292.868C180.797 292.644 180.84 292.424 180.66 292.21C180.48 291.995 180.256 292 179.989 292.224C179.722 292.449 179.679 292.668 179.859 292.883C180.039 293.097 180.396 292.98 180.53 292.868Z" fill="#F38613" fill-opacity="0.55"/>
<path d="M186.022 283.137C186.156 283.025 186.199 282.806 186.109 282.699C186.019 282.591 185.795 282.596 185.662 282.708C185.528 282.82 185.485 283.04 185.575 283.147C185.665 283.254 185.888 283.249 186.022 283.137Z" fill="#F38613" fill-opacity="0.55"/>
<path d="M190.799 273.641C190.933 273.529 190.976 273.309 190.886 273.202C190.796 273.095 190.573 273.1 190.439 273.212C190.306 273.324 190.262 273.543 190.352 273.651C190.442 273.758 190.532 273.865 190.799 273.641Z" fill="#F38613" fill-opacity="0.55"/>
<path d="M194.238 264.719C194.372 264.607 194.282 264.5 194.282 264.5C194.191 264.393 194.058 264.505 194.058 264.505C193.924 264.617 194.014 264.724 194.014 264.724C194.014 264.724 194.104 264.832 194.238 264.719Z" fill="#F38613" fill-opacity="0.55"/>
<path d="M196.382 256.154C196.515 256.042 196.515 256.042 196.382 256.154C196.425 255.934 196.335 255.827 196.202 255.939C196.202 255.939 196.158 256.159 196.382 256.154Z" fill="#F38613" fill-opacity="0.55"/>
<path d="M212.036 240.087C211.946 239.979 211.946 239.979 212.036 240.087C211.812 240.091 211.946 239.979 212.036 240.087Z" fill="#F38613" fill-opacity="0.55"/>
<path d="M97.7842 404.755C97.6941 404.648 97.8277 404.536 97.7842 404.755C97.6941 404.648 97.6941 404.648 97.7842 404.755Z" fill="#F38613" fill-opacity="0.55"/>
<path d="M104.074 401.67C104.118 401.451 103.894 401.455 103.894 401.455C103.894 401.455 103.76 401.568 104.074 401.67Z" fill="#F38613" fill-opacity="0.55"/>
<path d="M110.179 397.825C110.313 397.713 110.223 397.605 110.223 397.605C110.133 397.498 109.999 397.61 109.999 397.61C109.866 397.722 109.956 397.829 109.956 397.829L110.179 397.825Z" fill="#F38613" fill-opacity="0.55"/>
<path d="M116.236 393.106C116.369 392.994 116.413 392.774 116.323 392.667C116.233 392.56 116.009 392.565 115.876 392.677C115.742 392.789 115.699 393.008 115.789 393.116C115.879 393.223 116.102 393.218 116.236 393.106Z" fill="#F38613" fill-opacity="0.55"/>
<path d="M122.334 387.622C122.467 387.51 122.511 387.29 122.421 387.183C122.33 387.076 122.107 387.081 121.973 387.193C121.84 387.305 121.796 387.524 121.886 387.632C121.976 387.739 122.2 387.734 122.334 387.622Z" fill="#F38613" fill-opacity="0.55"/>
<path d="M128.471 381.373C128.604 381.26 128.648 381.041 128.558 380.934C128.468 380.827 128.244 380.831 128.111 380.943C127.977 381.056 127.934 381.275 128.024 381.382C127.98 381.602 128.204 381.597 128.471 381.373Z" fill="#F38613" fill-opacity="0.55"/>
<path d="M134.515 374.47C134.648 374.358 134.826 374.026 134.645 373.812C134.555 373.704 134.242 373.602 133.975 373.826C133.708 374.05 133.664 374.27 133.844 374.484C134.158 374.587 134.381 374.582 134.515 374.47Z" fill="#F38613" fill-opacity="0.55"/>
<path d="M140.913 366.904C141.18 366.68 141.224 366.46 141.044 366.246C140.864 366.031 140.64 366.036 140.373 366.26C140.106 366.485 140.062 366.704 140.243 366.919C140.423 367.133 140.646 367.128 140.913 366.904Z" fill="#F38613" fill-opacity="0.55"/>
<path d="M147.309 358.792C147.576 358.568 147.619 358.349 147.439 358.134C147.259 357.92 147.036 357.925 146.769 358.149C146.501 358.373 146.458 358.592 146.638 358.807C146.818 359.022 147.175 358.905 147.309 358.792Z" fill="#F38613" fill-opacity="0.55"/>
<path d="M153.834 350.022C154.101 349.798 154.145 349.579 153.965 349.364C153.785 349.15 153.561 349.155 153.294 349.379C153.027 349.603 152.983 349.822 153.163 350.037C153.344 350.251 153.567 350.247 153.834 350.022Z" fill="#F38613" fill-opacity="0.55"/>
<path d="M160.314 340.926C160.581 340.702 160.624 340.483 160.444 340.268C160.264 340.054 160.041 340.058 159.773 340.283C159.506 340.507 159.463 340.726 159.643 340.941C159.823 341.155 160.047 341.15 160.314 340.926Z" fill="#F38613" fill-opacity="0.55"/>
<path d="M166.746 331.503C167.013 331.279 167.057 331.06 166.877 330.845C166.697 330.63 166.473 330.635 166.206 330.86C165.939 331.084 165.895 331.303 166.076 331.518C166.256 331.732 166.479 331.727 166.746 331.503Z" fill="#F38613" fill-opacity="0.55"/>
<path d="M173.089 321.973C173.223 321.86 173.4 321.529 173.22 321.314C173.13 321.207 172.816 321.105 172.549 321.329C172.282 321.553 172.238 321.773 172.418 321.987C172.508 322.094 172.822 322.197 173.089 321.973Z" fill="#F38613" fill-opacity="0.55"/>
<path d="M178.895 312.344C179.029 312.232 179.072 312.013 178.982 311.906C178.892 311.798 178.668 311.803 178.535 311.915C178.401 312.028 178.358 312.247 178.448 312.354C178.538 312.461 178.761 312.457 178.895 312.344Z" fill="#F38613" fill-opacity="0.55"/>
<path d="M184.252 302.726C184.386 302.614 184.43 302.395 184.339 302.287C184.249 302.18 184.026 302.185 183.892 302.297C183.759 302.409 183.715 302.629 183.805 302.736C184.029 302.731 184.119 302.838 184.252 302.726Z" fill="#F38613" fill-opacity="0.55"/>
<path d="M189.03 293.23C189.163 293.117 189.207 292.898 189.117 292.791C189.027 292.684 188.803 292.688 188.67 292.801C188.536 292.913 188.493 293.132 188.583 293.239C188.806 293.234 188.896 293.342 189.03 293.23Z" fill="#F38613" fill-opacity="0.55"/>
<path d="M192.87 283.972C193.003 283.86 192.913 283.752 192.913 283.752C192.823 283.645 192.69 283.757 192.69 283.757C192.556 283.869 192.646 283.977 192.646 283.977L192.87 283.972Z" fill="#F38613" fill-opacity="0.55"/>
<path d="M195.548 274.958C195.681 274.846 195.681 274.846 195.548 274.958C195.591 274.738 195.458 274.85 195.458 274.85C195.458 274.85 195.458 274.85 195.548 274.958Z" fill="#F38613" fill-opacity="0.55"/>
<path d="M197.11 266.514C197.244 266.402 197.244 266.402 197.11 266.514C197.154 266.295 197.154 266.295 197.11 266.514C197.02 266.407 197.02 266.407 197.11 266.514Z" fill="#F38613" fill-opacity="0.55"/>
<path d="M120.14 395.315C120.183 395.096 120.05 395.208 120.05 395.208C120.05 395.208 120.05 395.208 120.14 395.315Z" fill="#F38613" fill-opacity="0.55"/>
<path d="M126.644 390.587C126.777 390.475 126.687 390.367 126.644 390.587C126.687 390.367 126.463 390.372 126.463 390.372C126.463 390.372 126.463 390.372 126.644 390.587Z" fill="#F38613" fill-opacity="0.55"/>
<path d="M133.097 384.986C133.231 384.874 133.141 384.767 133.141 384.767C133.051 384.659 132.917 384.771 132.917 384.771C132.784 384.883 132.874 384.991 132.874 384.991L133.097 384.986Z" fill="#F38613" fill-opacity="0.55"/>
<path d="M139.459 378.732C139.592 378.619 139.502 378.512 139.502 378.512C139.412 378.405 139.279 378.517 139.279 378.517C139.145 378.629 139.235 378.736 139.235 378.736C139.325 378.844 139.459 378.732 139.459 378.732Z" fill="#F38613" fill-opacity="0.55"/>
<path d="M145.95 371.819C146.083 371.707 146.127 371.488 146.037 371.381C145.947 371.273 145.723 371.278 145.59 371.39C145.456 371.502 145.412 371.722 145.503 371.829C145.593 371.936 145.816 371.931 145.95 371.819Z" fill="#F38613" fill-opacity="0.55"/>
<path d="M152.214 364.366C152.348 364.254 152.391 364.034 152.301 363.927C152.211 363.82 151.988 363.824 151.854 363.937C151.721 364.049 151.677 364.268 151.767 364.375C151.857 364.483 152.081 364.478 152.214 364.366Z" fill="#F38613" fill-opacity="0.55"/>
<path d="M158.477 356.366C158.611 356.254 158.654 356.035 158.564 355.927C158.474 355.82 158.25 355.825 158.117 355.937C157.983 356.049 157.94 356.269 158.03 356.376C158.12 356.483 158.344 356.478 158.477 356.366Z" fill="#F38613" fill-opacity="0.55"/>
<path d="M164.736 347.82C164.869 347.708 164.913 347.489 164.823 347.381C164.733 347.274 164.509 347.279 164.376 347.391C164.242 347.503 164.199 347.723 164.289 347.83C164.379 347.937 164.602 347.932 164.736 347.82Z" fill="#F38613" fill-opacity="0.55"/>
<path d="M170.59 339.065C170.724 338.953 170.767 338.734 170.677 338.626C170.587 338.519 170.364 338.524 170.23 338.636C170.097 338.748 170.053 338.967 170.143 339.075C170.233 339.182 170.457 339.177 170.59 339.065Z" fill="#F38613" fill-opacity="0.55"/>
<path d="M176.399 329.983C176.532 329.871 176.576 329.652 176.486 329.545C176.396 329.437 176.172 329.442 176.039 329.554C175.905 329.666 175.862 329.886 175.952 329.993C176.042 330.1 176.265 330.095 176.399 329.983Z" fill="#F38613" fill-opacity="0.55"/>
<path d="M181.757 320.365C181.658 320.246 181.458 320.25 181.31 320.374C181.163 320.498 181.124 320.695 181.223 320.813C181.323 320.932 181.523 320.927 181.67 320.803C181.818 320.68 181.857 320.483 181.757 320.365Z" fill="#F38613" fill-opacity="0.55"/>
<path d="M186.404 311.526C186.537 311.414 186.447 311.307 186.447 311.307C186.357 311.2 186.224 311.312 186.224 311.312C186.09 311.424 186.18 311.531 186.18 311.531C186.047 311.643 186.27 311.639 186.404 311.526Z" fill="#F38613" fill-opacity="0.55"/>
<path d="M190.334 302.376C190.467 302.264 190.467 302.264 190.377 302.157C190.287 302.049 190.287 302.049 190.154 302.161C190.02 302.273 190.02 302.273 190.11 302.381L190.334 302.376Z" fill="#F38613" fill-opacity="0.55"/>
<path d="M193.591 293.24C193.635 293.021 193.411 293.026 193.411 293.026C193.368 293.245 193.368 293.245 193.591 293.24C193.458 293.352 193.458 293.352 193.591 293.24Z" fill="#F38613" fill-opacity="0.55"/>
<path d="M195.646 284.567C195.779 284.455 195.779 284.455 195.646 284.567C195.689 284.348 195.555 284.46 195.555 284.46C195.555 284.46 195.555 284.46 195.646 284.567Z" fill="#F38613" fill-opacity="0.55"/>
<path d="M135.079 387.346C134.989 387.238 134.989 387.238 135.079 387.346C134.855 387.35 134.989 387.238 135.079 387.346Z" fill="#F38613" fill-opacity="0.55"/>
<path d="M141.756 381.74C141.8 381.521 141.666 381.633 141.666 381.633C141.533 381.745 141.533 381.745 141.756 381.74C141.623 381.852 141.623 381.852 141.756 381.74Z" fill="#F38613" fill-opacity="0.55"/>
<path d="M148.207 375.593C148.25 375.374 148.027 375.378 148.027 375.378C148.027 375.378 147.983 375.598 148.207 375.593Z" fill="#F38613" fill-opacity="0.55"/>
<path d="M154.565 368.793C154.609 368.573 154.385 368.578 154.385 368.578C154.251 368.69 154.251 368.69 154.565 368.793C154.341 368.798 154.431 368.905 154.565 368.793Z" fill="#F38613" fill-opacity="0.55"/>
<path d="M160.696 361.451C160.83 361.339 160.83 361.339 160.74 361.232C160.65 361.125 160.65 361.125 160.516 361.237C160.382 361.349 160.382 361.349 160.472 361.456L160.696 361.451Z" fill="#F38613" fill-opacity="0.55"/>
<path d="M166.601 353.569C166.735 353.456 166.735 353.456 166.645 353.349C166.555 353.242 166.555 353.242 166.421 353.354C166.288 353.466 166.288 353.466 166.378 353.573C166.468 353.681 166.468 353.681 166.601 353.569Z" fill="#F38613" fill-opacity="0.55"/>
<path d="M172.235 345.364C172.369 345.252 172.369 345.252 172.279 345.145C172.189 345.038 172.189 345.038 172.055 345.15C171.921 345.262 171.921 345.262 172.012 345.369C172.102 345.476 172.235 345.364 172.235 345.364Z" fill="#F38613" fill-opacity="0.55"/>
<path d="M177.599 336.838C177.643 336.619 177.553 336.512 177.419 336.624C177.286 336.736 177.286 336.736 177.599 336.838C177.376 336.843 177.466 336.95 177.599 336.838Z" fill="#F38613" fill-opacity="0.55"/>
<path d="M182.336 328.107C182.38 327.888 182.156 327.892 182.156 327.892C182.023 328.005 182.113 328.112 182.336 328.107C182.203 328.219 182.203 328.219 182.336 328.107Z" fill="#F38613" fill-opacity="0.55"/>
<path d="M186.537 319.278C186.58 319.059 186.447 319.171 186.447 319.171C186.313 319.283 186.313 319.283 186.537 319.278C186.403 319.39 186.403 319.39 186.537 319.278Z" fill="#F38613" fill-opacity="0.55"/>
<path d="M154.137 372.078C154.27 371.966 154.27 371.966 154.137 372.078C154.18 371.859 154.18 371.859 154.137 372.078C154.047 371.971 154.047 371.971 154.137 372.078Z" fill="#F38613" fill-opacity="0.55"/>
<path d="M171.548 350.513C171.458 350.405 171.458 350.405 171.548 350.513C171.325 350.517 171.325 350.517 171.548 350.513C171.415 350.625 171.415 350.625 171.548 350.513Z" fill="#F38613" fill-opacity="0.55"/>
<path d="M176.468 342.542C176.378 342.435 176.378 342.435 176.468 342.542C176.245 342.547 176.245 342.547 176.468 342.542C176.335 342.654 176.335 342.654 176.468 342.542Z" fill="#F38613" fill-opacity="0.55"/>
</g>
<defs>
<clipPath id="clip0_2013_85">
<rect width="350" height="362.174" fill="white" transform="translate(0.643555 501.665) rotate(-130.013)"/>
</clipPath>
</defs>
</svg>
