<svg width="297" height="429" viewBox="0 0 297 429" fill="none" xmlns="http://www.w3.org/2000/svg">
<g clip-path="url(#clip0_2013_2696)">
<path d="M292.788 322.033C292.607 322.156 292.607 322.156 292.788 322.033C292.673 322.253 292.738 322.35 292.919 322.227C292.919 322.227 293.034 322.007 292.788 322.033Z" fill="#9B9B9B"/>
<path d="M281.312 329.27C281.131 329.392 281.196 329.489 281.312 329.27C281.196 329.489 281.443 329.463 281.443 329.463C281.443 329.463 281.443 329.463 281.312 329.27Z" fill="#9B9B9B"/>
<path d="M269.753 335.996C269.571 336.119 269.571 336.119 269.753 335.996C269.637 336.215 269.818 336.092 269.818 336.092C269.818 336.092 269.818 336.092 269.753 335.996Z" fill="#9B9B9B"/>
<path d="M258.407 341.869C258.226 341.993 258.226 341.993 258.407 341.869C258.291 342.089 258.291 342.089 258.407 341.869C258.473 341.966 258.473 341.966 258.407 341.869Z" fill="#9B9B9B"/>
<path d="M247.34 346.987C247.406 347.083 247.406 347.083 247.34 346.987C247.587 346.96 247.406 347.083 247.34 346.987Z" fill="#9B9B9B"/>
<path d="M291.34 323.017C291.16 323.14 291.044 323.36 291.11 323.456C291.176 323.553 291.423 323.527 291.604 323.404C291.784 323.281 291.9 323.061 291.834 322.965C291.587 322.991 291.34 323.017 291.34 323.017Z" fill="#9B9B9B"/>
<path d="M278.515 330.604C278.334 330.727 278.4 330.824 278.4 330.824C278.465 330.921 278.646 330.798 278.646 330.798C278.827 330.675 278.761 330.578 278.761 330.578C278.942 330.455 278.696 330.481 278.515 330.604Z" fill="#9B9B9B"/>
<path d="M265.723 337.461C265.543 337.584 265.543 337.584 265.608 337.681C265.674 337.778 265.674 337.778 265.855 337.655C266.036 337.532 266.036 337.532 265.97 337.435C265.97 337.435 265.904 337.338 265.723 337.461Z" fill="#9B9B9B"/>
<path d="M253.144 343.466C252.963 343.589 253.029 343.686 253.144 343.466C253.029 343.686 253.276 343.659 253.276 343.659C253.276 343.659 253.457 343.536 253.144 343.466Z" fill="#9B9B9B"/>
<path d="M241.092 348.688C240.976 348.908 241.158 348.784 241.158 348.784C241.158 348.784 241.339 348.661 241.092 348.688Z" fill="#9B9B9B"/>
<path d="M290.305 323.438C290.124 323.561 289.828 323.904 289.96 324.097C290.026 324.194 290.338 324.265 290.7 324.019C291.062 323.773 291.177 323.553 291.045 323.359C290.913 323.166 290.667 323.192 290.305 323.438Z" fill="#9B9B9B"/>
<path d="M276.247 331.156C276.066 331.279 275.951 331.499 276.017 331.596C276.082 331.692 276.329 331.666 276.51 331.543C276.691 331.42 276.806 331.2 276.74 331.104C276.674 331.007 276.428 331.033 276.247 331.156Z" fill="#9B9B9B"/>
<path d="M261.974 338.17C261.793 338.293 261.678 338.513 261.744 338.61C261.81 338.706 262.057 338.68 262.237 338.557C262.418 338.434 262.533 338.215 262.468 338.118C262.402 338.021 262.155 338.047 261.974 338.17Z" fill="#9B9B9B"/>
<path d="M248.096 344.209C247.915 344.332 247.8 344.552 247.866 344.649C247.932 344.745 248.179 344.719 248.359 344.596C248.54 344.473 248.655 344.253 248.59 344.157C248.343 344.183 248.277 344.086 248.096 344.209Z" fill="#9B9B9B"/>
<path d="M234.811 349.562C234.63 349.685 234.696 349.782 234.696 349.782C234.762 349.879 234.943 349.756 234.943 349.756C235.124 349.633 235.058 349.536 235.058 349.536C235.058 349.536 234.992 349.439 234.811 349.562Z" fill="#9B9B9B"/>
<path d="M222.659 353.861C222.478 353.985 222.478 353.985 222.659 353.861C222.543 354.081 222.725 353.958 222.725 353.958C222.725 353.958 222.725 353.958 222.659 353.861Z" fill="#9B9B9B"/>
<path d="M289.912 322.857C289.55 323.103 289.5 323.42 289.566 323.516C289.698 323.71 290.125 323.561 290.306 323.438C290.668 323.192 290.717 322.875 290.651 322.779C290.52 322.585 290.092 322.734 289.912 322.857Z" fill="#9B9B9B"/>
<path d="M274.125 330.759C273.764 331.004 273.649 331.224 273.78 331.418C273.912 331.611 274.158 331.585 274.52 331.339C274.882 331.093 274.997 330.874 274.865 330.68C274.734 330.486 274.306 330.636 274.125 330.759Z" fill="#9B9B9B"/>
<path d="M258.374 337.93C258.193 338.053 258.078 338.273 258.143 338.37C258.209 338.466 258.456 338.44 258.637 338.317C258.818 338.194 258.933 337.975 258.867 337.878C258.801 337.781 258.554 337.807 258.374 337.93Z" fill="#9B9B9B"/>
<path d="M242.9 344.346C242.719 344.468 242.604 344.688 242.67 344.785C242.736 344.882 242.982 344.856 243.163 344.733C243.344 344.61 243.459 344.39 243.393 344.293C243.328 344.196 243.081 344.223 242.9 344.346Z" fill="#9B9B9B"/>
<path d="M228.497 349.61C228.316 349.733 228.382 349.83 228.382 349.83C228.448 349.927 228.628 349.804 228.628 349.804C228.809 349.681 228.744 349.584 228.744 349.584C228.744 349.584 228.678 349.487 228.497 349.61Z" fill="#9B9B9B"/>
<path d="M215.112 354.04C214.997 354.26 215.063 354.356 215.244 354.234C215.425 354.111 215.425 354.111 215.112 354.04C215.359 354.014 215.293 353.917 215.112 354.04Z" fill="#9B9B9B"/>
<path d="M289.121 321.696C288.578 322.065 288.348 322.504 288.546 322.795C288.743 323.085 289.236 323.033 289.779 322.664C290.322 322.295 290.552 321.855 290.354 321.565C290.157 321.275 289.664 321.327 289.121 321.696Z" fill="#9B9B9B"/>
<path d="M271.609 329.781C271.247 330.027 271.017 330.466 271.148 330.66C271.28 330.853 271.773 330.801 272.135 330.555C272.497 330.309 272.727 329.87 272.595 329.676C272.464 329.483 272.151 329.412 271.609 329.781Z" fill="#9B9B9B"/>
<path d="M254.131 337.135C253.769 337.381 253.539 337.821 253.671 338.014C253.802 338.208 254.296 338.155 254.657 337.91C255.019 337.664 255.249 337.224 255.118 337.031C254.986 336.837 254.493 336.889 254.131 337.135Z" fill="#9B9B9B"/>
<path d="M237.36 343.585C236.998 343.831 236.883 344.051 237.015 344.244C237.146 344.438 237.393 344.412 237.754 344.166C238.116 343.92 238.231 343.7 238.1 343.506C237.968 343.313 237.721 343.339 237.36 343.585Z" fill="#9B9B9B"/>
<path d="M221.721 348.98C221.54 349.103 221.425 349.323 221.491 349.42C221.557 349.517 221.804 349.49 221.984 349.367C222.165 349.244 222.28 349.025 222.215 348.928C222.149 348.831 221.902 348.857 221.721 348.98Z" fill="#9B9B9B"/>
<path d="M207.236 353.735C207.309 353.842 207.53 353.818 207.73 353.682C207.929 353.547 208.032 353.35 207.96 353.243C207.887 353.136 207.666 353.159 207.466 353.295C207.267 353.431 207.164 353.628 207.236 353.735Z" fill="#9B9B9B"/>
<path d="M194.97 356.697C194.855 356.917 195.101 356.89 195.101 356.89C195.101 356.89 195.282 356.768 194.97 356.697C195.216 356.671 195.151 356.574 194.97 356.697Z" fill="#9B9B9B"/>
<path d="M184.774 358.817C184.593 358.941 184.593 358.941 184.774 358.817C184.658 359.037 184.658 359.037 184.774 358.817C184.84 358.913 184.84 358.913 184.774 358.817Z" fill="#9B9B9B"/>
<path d="M288.299 319.708C287.756 320.077 287.411 320.737 287.608 321.027C287.806 321.317 288.545 321.239 289.088 320.87C289.631 320.501 289.976 319.842 289.779 319.551C289.334 319.287 288.841 319.34 288.299 319.708Z" fill="#9B9B9B"/>
<path d="M268.634 328.126C268.091 328.494 267.861 328.934 268.058 329.224C268.256 329.515 268.749 329.462 269.292 329.093C269.834 328.724 270.064 328.285 269.867 327.995C269.67 327.704 269.176 327.757 268.634 328.126Z" fill="#9B9B9B"/>
<path d="M249.609 335.54C249.247 335.786 249.017 336.226 249.148 336.419C249.28 336.613 249.773 336.561 250.135 336.315C250.497 336.069 250.727 335.629 250.595 335.436C250.464 335.242 249.97 335.294 249.609 335.54Z" fill="#9B9B9B"/>
<path d="M231.357 342.147C230.995 342.393 230.88 342.613 231.012 342.806C231.143 343 231.39 342.974 231.752 342.728C232.113 342.482 232.228 342.262 232.097 342.068C231.965 341.875 231.538 342.024 231.357 342.147Z" fill="#9B9B9B"/>
<path d="M214.306 347.797C214.125 347.92 214.01 348.139 214.075 348.236C214.141 348.333 214.388 348.307 214.569 348.184C214.75 348.061 214.865 347.841 214.799 347.744C214.914 347.524 214.667 347.551 214.306 347.797Z" fill="#9B9B9B"/>
<path d="M199.244 352.093C199.063 352.216 198.948 352.436 199.014 352.532C199.079 352.629 199.326 352.603 199.507 352.48C199.688 352.357 199.803 352.137 199.737 352.04C199.49 352.067 199.425 351.97 199.244 352.093Z" fill="#9B9B9B"/>
<path d="M186.188 355.451C186.073 355.67 186.138 355.767 186.319 355.644C186.5 355.521 186.434 355.424 186.188 355.451C186.368 355.328 186.368 355.328 186.188 355.451Z" fill="#9B9B9B"/>
<path d="M175.68 357.5C175.498 357.623 175.498 357.623 175.68 357.5C175.564 357.719 175.564 357.719 175.68 357.5C175.745 357.596 175.745 357.596 175.68 357.5Z" fill="#9B9B9B"/>
<path d="M286.276 317.122C285.552 317.614 285.207 318.273 285.47 318.66C285.734 319.047 286.474 318.968 287.197 318.477C287.92 317.985 288.266 317.325 288.003 316.938C287.739 316.551 286.999 316.63 286.276 317.122Z" fill="#9B9B9B"/>
<path d="M264.637 325.748C264.095 326.117 263.75 326.776 263.947 327.066C264.144 327.357 264.884 327.278 265.427 326.909C265.97 326.54 266.315 325.881 266.117 325.591C265.92 325.301 265.361 325.256 264.637 325.748Z" fill="#9B9B9B"/>
<path d="M243.704 333.47C243.161 333.839 242.931 334.278 243.128 334.568C243.326 334.859 243.819 334.806 244.362 334.437C244.904 334.069 245.134 333.629 244.937 333.339C244.921 332.926 244.246 333.101 243.704 333.47Z" fill="#9B9B9B"/>
<path d="M224.087 340.014C223.725 340.259 223.495 340.699 223.627 340.892C223.758 341.086 224.252 341.034 224.613 340.788C224.975 340.542 225.205 340.102 225.074 339.909C224.942 339.715 224.449 339.768 224.087 340.014Z" fill="#9B9B9B"/>
<path d="M206.232 345.645C205.87 345.891 205.755 346.11 205.887 346.304C206.018 346.498 206.265 346.471 206.627 346.225C206.988 345.979 207.103 345.76 206.972 345.566C206.84 345.373 206.413 345.522 206.232 345.645Z" fill="#9B9B9B"/>
<path d="M190.248 350.143C190.067 350.266 189.952 350.485 190.018 350.582C190.084 350.679 190.33 350.653 190.511 350.53C190.692 350.407 190.807 350.187 190.741 350.09C190.856 349.871 190.61 349.897 190.248 350.143Z" fill="#9B9B9B"/>
<path d="M177.06 353.307C176.879 353.43 176.945 353.526 176.945 353.526C177.011 353.623 177.192 353.5 177.192 353.5C177.373 353.377 177.307 353.28 177.307 353.28L177.06 353.307Z" fill="#9B9B9B"/>
<path d="M166.306 355.382C166.125 355.505 166.191 355.602 166.306 355.382C166.191 355.602 166.438 355.576 166.438 355.576C166.438 355.576 166.619 355.453 166.306 355.382Z" fill="#9B9B9B"/>
<path d="M282.871 314.059C282.148 314.551 281.622 315.333 281.951 315.817C282.214 316.204 282.954 316.125 283.858 315.51C284.582 315.019 285.108 314.236 284.845 313.849C284.516 313.366 283.595 313.567 282.871 314.059Z" fill="#9B9B9B"/>
<path d="M259.193 322.799C258.651 323.167 258.305 323.827 258.503 324.117C258.766 324.504 259.44 324.329 259.983 323.96C260.706 323.468 260.87 322.932 260.673 322.641C260.476 322.351 259.736 322.43 259.193 322.799Z" fill="#9B9B9B"/>
<path d="M236.535 330.703C235.993 331.072 235.762 331.511 235.96 331.802C236.157 332.092 236.65 332.04 237.193 331.671C237.736 331.302 237.966 330.862 237.768 330.572C237.637 330.378 237.078 330.334 236.535 330.703Z" fill="#9B9B9B"/>
<path d="M215.751 337.475C215.389 337.721 215.159 338.16 215.291 338.354C215.422 338.547 215.916 338.495 216.277 338.249C216.639 338.003 216.869 337.564 216.738 337.37C216.606 337.176 216.113 337.229 215.751 337.475Z" fill="#9B9B9B"/>
<path d="M197.087 343.087C196.726 343.333 196.61 343.553 196.742 343.747C196.874 343.94 197.12 343.914 197.482 343.668C197.844 343.422 197.959 343.202 197.827 343.009C197.696 342.815 197.268 342.964 197.087 343.087Z" fill="#9B9B9B"/>
<path d="M180.793 347.515C180.612 347.638 180.497 347.858 180.562 347.955C180.628 348.051 180.875 348.025 181.056 347.902C181.237 347.779 181.352 347.56 181.286 347.463C181.22 347.366 180.973 347.392 180.793 347.515Z" fill="#9B9B9B"/>
<path d="M167.358 350.705C167.177 350.828 167.243 350.925 167.243 350.925C167.309 351.022 167.49 350.899 167.49 350.899C167.671 350.776 167.605 350.679 167.605 350.679C167.605 350.679 167.539 350.582 167.358 350.705Z" fill="#9B9B9B"/>
<path d="M156.851 352.755C156.735 352.974 156.916 352.851 156.916 352.851C156.916 352.851 157.098 352.728 156.851 352.755Z" fill="#9B9B9B"/>
<path d="M149.566 353.32C149.385 353.444 149.385 353.444 149.566 353.32C149.385 353.444 149.45 353.54 149.566 353.32Z" fill="#9B9B9B"/>
<path d="M277.214 310.406C276.31 311.021 275.849 311.899 276.178 312.383C276.507 312.867 277.494 312.762 278.398 312.148C279.303 311.533 279.763 310.654 279.434 310.17C279.105 309.686 278.118 309.791 277.214 310.406Z" fill="#9B9B9B"/>
<path d="M251.629 319.451C250.906 319.943 250.38 320.725 250.709 321.209C250.972 321.596 251.778 321.614 252.682 320.999C253.405 320.507 253.931 319.725 253.602 319.241C253.274 318.758 252.353 318.959 251.629 319.451Z" fill="#9B9B9B"/>
<path d="M227.672 327.39C227.129 327.758 226.784 328.418 226.981 328.708C227.179 328.998 227.919 328.92 228.461 328.551C229.004 328.182 229.349 327.523 229.152 327.232C228.954 326.942 228.214 327.021 227.672 327.39Z" fill="#9B9B9B"/>
<path d="M205.9 334.266C205.358 334.635 205.128 335.075 205.325 335.365C205.522 335.655 206.016 335.603 206.558 335.234C207.101 334.865 207.331 334.426 207.134 334.135C206.936 333.845 206.443 333.898 205.9 334.266Z" fill="#9B9B9B"/>
<path d="M186.744 339.931C186.383 340.177 186.152 340.617 186.284 340.81C186.416 341.004 186.909 340.951 187.271 340.705C187.632 340.46 187.863 340.02 187.731 339.827C187.599 339.633 187.106 339.685 186.744 339.931Z" fill="#9B9B9B"/>
<path d="M170.449 344.359C170.087 344.605 169.972 344.825 170.103 345.018C170.235 345.212 170.482 345.185 170.843 344.939C171.024 344.817 171.32 344.474 171.189 344.28C171.057 344.087 170.81 344.113 170.449 344.359Z" fill="#9B9B9B"/>
<path d="M157.261 347.523C157.08 347.646 156.965 347.865 157.031 347.962C157.097 348.059 157.344 348.033 157.524 347.91C157.705 347.787 157.82 347.567 157.755 347.47C157.689 347.374 157.442 347.4 157.261 347.523Z" fill="#9B9B9B"/>
<path d="M147.363 349.3C147.182 349.423 147.248 349.52 147.363 349.3C147.248 349.52 147.314 349.617 147.495 349.494C147.495 349.494 147.675 349.371 147.363 349.3Z" fill="#9B9B9B"/>
<path d="M140.637 349.911C140.703 350.007 140.703 350.007 140.637 349.911C140.884 349.884 140.703 350.007 140.637 349.911Z" fill="#9B9B9B"/>
<path d="M298.014 296.265C296.928 297.003 296.534 297.979 296.863 298.463C297.258 299.043 298.425 298.815 299.329 298.201C300.415 297.463 300.809 296.487 300.48 296.003C300.151 295.52 299.099 295.527 298.014 296.265Z" fill="#9B9B9B"/>
<path d="M269.073 306.601C268.169 307.216 267.709 308.094 268.038 308.578C268.367 309.062 269.353 308.957 270.258 308.343C271.162 307.728 271.622 306.849 271.293 306.365C270.964 305.881 269.978 305.986 269.073 306.601Z" fill="#9B9B9B"/>
<path d="M241.762 315.829C241.039 316.321 240.694 316.98 240.957 317.367C241.22 317.754 241.96 317.676 242.683 317.184C243.407 316.692 243.752 316.033 243.489 315.646C243.226 315.259 242.486 315.337 241.762 315.829Z" fill="#9B9B9B"/>
<path d="M216.884 323.97C216.341 324.339 215.996 324.998 216.193 325.288C216.391 325.578 217.13 325.5 217.673 325.131C218.216 324.762 218.561 324.103 218.363 323.813C218.1 323.425 217.426 323.601 216.884 323.97Z" fill="#9B9B9B"/>
<path d="M194.8 330.776C194.438 331.022 194.027 331.584 194.224 331.875C194.356 332.068 194.915 332.113 195.458 331.744C196 331.375 196.23 330.935 196.033 330.645C195.655 330.478 195.162 330.53 194.8 330.776Z" fill="#9B9B9B"/>
<path d="M175.644 336.441C175.282 336.687 175.167 336.906 175.299 337.1C175.43 337.293 175.677 337.267 176.039 337.021C176.4 336.775 176.515 336.556 176.384 336.362C176.252 336.169 176.006 336.195 175.644 336.441Z" fill="#9B9B9B"/>
<path d="M159.776 340.719C159.595 340.842 159.48 341.062 159.546 341.159C159.612 341.255 159.858 341.229 160.039 341.106C160.22 340.983 160.335 340.763 160.269 340.667C160.203 340.57 159.957 340.596 159.776 340.719Z" fill="#9B9B9B"/>
<path d="M147.197 343.611C147.016 343.734 147.082 343.831 147.082 343.831L147.329 343.805C147.51 343.682 147.444 343.585 147.444 343.585L147.197 343.611Z" fill="#9B9B9B"/>
<path d="M137.857 345.433C137.741 345.653 137.922 345.529 137.922 345.529C138.169 345.502 138.104 345.406 137.857 345.433C138.104 345.406 138.039 345.31 137.857 345.433Z" fill="#9B9B9B"/>
<path d="M288.179 291.914C287.094 292.652 286.338 293.873 286.798 294.551C287.193 295.131 288.492 295.097 289.758 294.237C291.024 293.376 291.6 292.277 291.139 291.6C290.498 291.045 289.264 291.176 288.179 291.914Z" fill="#9B9B9B"/>
<path d="M257.514 302.433C256.428 303.171 255.968 304.05 256.363 304.63C256.692 305.114 257.744 305.106 258.829 304.368C259.734 303.754 260.375 302.752 259.98 302.171C259.585 301.59 258.418 301.818 257.514 302.433Z" fill="#9B9B9B"/>
<path d="M229.28 311.863C228.376 312.478 228.096 313.234 228.359 313.621C228.688 314.105 229.609 313.903 230.333 313.411C231.056 312.92 231.516 312.041 231.253 311.654C231.171 311.143 230.184 311.248 229.28 311.863Z" fill="#9B9B9B"/>
<path d="M204.089 319.933C203.366 320.425 203.021 321.084 203.284 321.471C203.547 321.858 204.287 321.779 205.01 321.288C205.734 320.796 206.079 320.137 205.816 319.749C205.553 319.362 204.813 319.441 204.089 319.933Z" fill="#9B9B9B"/>
<path d="M182.253 326.712C181.71 327.081 181.48 327.521 181.678 327.811C181.875 328.101 182.368 328.049 182.911 327.68C183.453 327.311 183.684 326.872 183.486 326.581C183.289 326.291 182.795 326.343 182.253 326.712Z" fill="#9B9B9B"/>
<path d="M163.59 332.325C163.228 332.571 162.998 333.01 163.13 333.204C163.261 333.398 163.755 333.345 164.116 333.099C164.478 332.853 164.708 332.414 164.577 332.22C164.379 331.93 163.952 332.079 163.59 332.325Z" fill="#9B9B9B"/>
<path d="M148.463 336.525C148.282 336.648 147.986 336.991 148.118 337.184C148.184 337.281 148.496 337.351 148.858 337.106C149.039 336.983 149.335 336.64 149.203 336.446C149.072 336.253 148.825 336.279 148.463 336.525Z" fill="#9B9B9B"/>
<path d="M136.871 339.312C136.69 339.435 136.575 339.655 136.641 339.752C136.706 339.848 136.953 339.822 137.134 339.699C137.315 339.576 137.43 339.356 137.364 339.26C137.117 339.286 137.052 339.189 136.871 339.312Z" fill="#9B9B9B"/>
<path d="M128.944 340.88C128.763 341.003 128.763 341.003 128.944 340.88C128.829 341.099 129.076 341.073 129.076 341.073C129.01 340.976 129.01 340.976 128.944 340.88Z" fill="#9B9B9B"/>
<path d="M274.266 287.788C273.181 288.526 272.606 289.624 273.001 290.205C273.395 290.786 274.629 290.655 275.714 289.917C276.799 289.179 277.374 288.081 276.98 287.5C276.585 286.919 275.352 287.05 274.266 287.788Z" fill="#9B9B9B"/>
<path d="M242.861 298.385C241.956 299 241.496 299.879 241.825 300.363C242.154 300.847 243.14 300.742 244.045 300.127C244.949 299.512 245.409 298.633 245.08 298.15C244.751 297.666 243.765 297.77 242.861 298.385Z" fill="#9B9B9B"/>
<path d="M213.823 309.354C214.077 309.728 214.85 309.646 215.55 309.17C216.249 308.695 216.609 308.006 216.355 307.632C216.101 307.258 215.328 307.34 214.628 307.816C213.929 308.291 213.569 308.98 213.823 309.354Z" fill="#9B9B9B"/>
<path d="M189.931 315.832C189.389 316.201 189.044 316.861 189.241 317.151C189.438 317.441 190.178 317.363 190.721 316.994C191.263 316.625 191.609 315.966 191.411 315.675C191.214 315.385 190.474 315.464 189.931 315.832Z" fill="#9B9B9B"/>
<path d="M168.768 322.437C168.406 322.683 168.176 323.123 168.307 323.316C168.439 323.51 168.932 323.457 169.294 323.212C169.656 322.966 169.886 322.526 169.754 322.333C169.623 322.139 169.129 322.191 168.768 322.437Z" fill="#9B9B9B"/>
<path d="M151.093 327.945C150.731 328.191 150.616 328.411 150.748 328.604C150.879 328.798 151.126 328.772 151.488 328.526C151.85 328.28 151.965 328.06 151.833 327.866C151.702 327.673 151.455 327.699 151.093 327.945Z" fill="#9B9B9B"/>
<path d="M137.131 331.917C136.951 332.04 136.835 332.26 136.901 332.357C136.967 332.454 137.214 332.427 137.395 332.304C137.575 332.181 137.691 331.962 137.625 331.865C137.559 331.768 137.312 331.794 137.131 331.917Z" fill="#9B9B9B"/>
<path d="M126.839 334.67C126.658 334.793 126.658 334.793 126.724 334.89C126.789 334.987 126.789 334.987 126.97 334.864C127.151 334.741 127.151 334.741 127.085 334.644C127.02 334.547 127.02 334.547 126.839 334.67Z" fill="#9B9B9B"/>
<path d="M290.84 271.71C289.393 272.694 288.703 274.012 289.229 274.786C289.755 275.561 291.235 275.403 292.682 274.42C294.129 273.436 294.819 272.118 294.293 271.344C293.767 270.569 292.106 270.849 290.84 271.71Z" fill="#9B9B9B"/>
<path d="M256.327 283.571C255.241 284.309 254.485 285.53 254.946 286.208C255.341 286.788 256.64 286.754 257.906 285.894C259.172 285.033 259.747 283.934 259.287 283.257C258.645 282.702 257.412 282.833 256.327 283.571Z" fill="#9B9B9B"/>
<path d="M225.232 294.239C224.328 294.854 223.687 295.856 224.082 296.436C224.411 296.92 225.463 296.912 226.548 296.174C227.452 295.56 228.094 294.558 227.699 293.977C227.304 293.396 226.318 293.501 225.232 294.239Z" fill="#9B9B9B"/>
<path d="M197.921 303.467C197.198 303.959 196.737 304.838 197.001 305.225C197.264 305.612 198.25 305.508 198.974 305.016C199.697 304.524 200.158 303.645 199.894 303.258C199.631 302.871 198.826 302.853 197.921 303.467Z" fill="#9B9B9B"/>
<path d="M174.457 311.354C173.914 311.723 173.569 312.382 173.766 312.672C173.964 312.962 174.704 312.884 175.246 312.515C175.789 312.146 176.134 311.487 175.937 311.197C175.674 310.81 174.999 310.985 174.457 311.354Z" fill="#9B9B9B"/>
<path d="M154.527 317.827C153.985 318.196 153.755 318.636 153.952 318.926C154.149 319.216 154.643 319.164 155.185 318.795C155.728 318.426 155.958 317.987 155.761 317.696C155.629 317.503 154.889 317.581 154.527 317.827Z" fill="#9B9B9B"/>
<path d="M138.513 323.055C138.151 323.301 138.102 323.618 138.168 323.714C138.299 323.908 138.727 323.759 138.908 323.636C139.27 323.39 139.385 323.17 139.253 322.977C139.121 322.783 138.694 322.932 138.513 323.055Z" fill="#9B9B9B"/>
<path d="M126.031 326.871C125.85 326.994 125.735 327.213 125.801 327.31C125.867 327.407 126.113 327.381 126.294 327.258C126.475 327.135 126.59 326.915 126.524 326.818C126.458 326.722 126.212 326.748 126.031 326.871Z" fill="#9B9B9B"/>
<path d="M117.398 329.343C117.217 329.466 117.283 329.563 117.283 329.563C117.349 329.66 117.53 329.537 117.53 329.537C117.711 329.414 117.645 329.317 117.645 329.317C117.645 329.317 117.579 329.22 117.398 329.343Z" fill="#9B9B9B"/>
<path d="M112.613 330.474C112.678 330.57 112.678 330.57 112.613 330.474C112.86 330.447 112.86 330.447 112.613 330.474C112.794 330.351 112.794 330.351 112.613 330.474Z" fill="#9B9B9B"/>
<path d="M268.707 267.938C267.441 268.799 266.865 269.898 267.326 270.575C267.786 271.252 269.2 270.998 270.286 270.261C271.552 269.4 272.061 268.205 271.666 267.624C271.272 267.043 269.792 267.2 268.707 267.938Z" fill="#9B9B9B"/>
<path d="M235.425 279.668C234.34 280.406 233.945 281.382 234.274 281.866C234.669 282.446 235.836 282.219 236.741 281.604C237.826 280.866 238.22 279.89 237.891 279.406C237.562 278.923 236.329 279.054 235.425 279.668Z" fill="#9B9B9B"/>
<path d="M205.811 290.179C204.907 290.794 204.628 291.55 204.891 291.937C205.22 292.421 206.141 292.219 206.864 291.727C207.768 291.113 208.048 290.357 207.785 289.97C207.702 289.46 206.716 289.564 205.811 290.179Z" fill="#9B9B9B"/>
<path d="M180.227 299.224C179.504 299.716 179.158 300.375 179.422 300.762C179.685 301.149 180.425 301.071 181.148 300.579C181.872 300.087 182.217 299.428 181.954 299.041C181.691 298.654 180.951 298.732 180.227 299.224Z" fill="#9B9B9B"/>
<path d="M158.423 306.83C157.88 307.199 157.65 307.639 157.847 307.929C158.045 308.219 158.538 308.167 159.081 307.798C159.623 307.429 159.853 306.99 159.656 306.699C159.459 306.409 158.965 306.461 158.423 306.83Z" fill="#9B9B9B"/>
<path d="M140.467 313.095C140.105 313.341 140.056 313.657 140.122 313.754C140.188 313.851 140.681 313.798 140.862 313.675C141.224 313.429 141.273 313.113 141.207 313.016C141.141 312.919 140.648 312.972 140.467 313.095Z" fill="#9B9B9B"/>
<path d="M126.113 318.042C125.932 318.165 125.817 318.385 125.883 318.482C125.949 318.579 126.195 318.552 126.376 318.429C126.557 318.306 126.672 318.087 126.606 317.99C126.54 317.893 126.294 317.919 126.113 318.042Z" fill="#9B9B9B"/>
<path d="M115.606 321.648C115.425 321.771 115.49 321.868 115.49 321.868C115.556 321.965 115.737 321.842 115.737 321.842C115.918 321.719 115.852 321.622 115.852 321.622C115.967 321.402 115.786 321.525 115.606 321.648Z" fill="#9B9B9B"/>
<path d="M109.06 323.692C108.944 323.911 109.125 323.788 109.125 323.788C109.125 323.788 109.125 323.788 109.06 323.692Z" fill="#9B9B9B"/>
<path d="M278.208 251.573C276.761 252.557 275.956 254.095 276.482 254.869C277.008 255.644 278.735 255.46 280.182 254.477C281.629 253.493 282.434 251.955 281.908 251.181C281.316 250.31 279.655 250.59 278.208 251.573Z" fill="#9B9B9B"/>
<path d="M243.48 264.287C242.214 265.148 241.523 266.466 241.984 267.144C242.444 267.821 243.924 267.664 245.19 266.803C246.456 265.943 247.147 264.624 246.686 263.947C246.045 263.392 244.746 263.426 243.48 264.287Z" fill="#9B9B9B"/>
<path d="M212.486 275.878C211.4 276.616 211.006 277.592 211.335 278.075C211.73 278.656 212.897 278.428 213.801 277.814C214.887 277.076 215.281 276.1 214.952 275.616C214.738 274.913 213.571 275.14 212.486 275.878Z" fill="#9B9B9B"/>
<path d="M185.387 285.811C184.483 286.426 184.022 287.304 184.351 287.788C184.68 288.272 185.667 288.167 186.571 287.553C187.475 286.938 187.936 286.059 187.607 285.575C187.097 285.214 186.11 285.319 185.387 285.811Z" fill="#9B9B9B"/>
<path d="M162.022 294.62C161.299 295.112 160.953 295.771 161.217 296.158C161.48 296.545 162.22 296.467 162.943 295.975C163.667 295.483 164.012 294.824 163.749 294.437C163.485 294.05 162.565 294.251 162.022 294.62Z" fill="#9B9B9B"/>
<path d="M142.373 301.894C141.83 302.263 141.6 302.702 141.798 302.993C141.995 303.283 142.488 303.23 143.031 302.862C143.574 302.493 143.804 302.053 143.606 301.763C143.475 301.569 142.916 301.525 142.373 301.894Z" fill="#9B9B9B"/>
<path d="M126.637 307.922C126.275 308.168 126.045 308.608 126.177 308.801C126.308 308.995 126.802 308.942 127.163 308.696C127.525 308.451 127.755 308.011 127.624 307.818C127.245 307.65 126.999 307.676 126.637 307.922Z" fill="#9B9B9B"/>
<path d="M114.502 312.635C114.321 312.758 114.206 312.977 114.272 313.074C114.338 313.171 114.584 313.145 114.765 313.022C114.946 312.899 115.061 312.679 114.995 312.582C115.11 312.363 114.864 312.389 114.502 312.635Z" fill="#9B9B9B"/>
<path d="M106.33 315.785C106.149 315.908 106.215 316.004 106.215 316.004C106.281 316.101 106.461 315.978 106.461 315.978C106.642 315.855 106.577 315.758 106.577 315.758C106.577 315.758 106.511 315.662 106.33 315.785Z" fill="#9B9B9B"/>
<path d="M101.824 317.716C101.708 317.935 101.889 317.812 101.889 317.812C102.071 317.689 102.071 317.689 101.824 317.716C102.071 317.689 102.005 317.592 101.824 317.716Z" fill="#9B9B9B"/>
<path d="M283.5 235.24C282.053 236.224 281.247 237.762 281.774 238.536C282.3 239.311 284.027 239.127 285.474 238.144C286.921 237.16 287.726 235.622 287.2 234.848C286.608 233.977 284.947 234.257 283.5 235.24Z" fill="#9B9B9B"/>
<path d="M247.063 251.663C247.535 252.358 248.971 252.206 250.269 251.323C251.568 250.44 252.238 249.161 251.765 248.466C251.293 247.771 249.857 247.924 248.559 248.807C247.26 249.69 246.591 250.968 247.063 251.663Z" fill="#9B9B9B"/>
<path d="M217.22 261.057C216.134 261.795 215.74 262.77 216.069 263.254C216.464 263.835 217.631 263.607 218.535 262.992C219.621 262.255 220.015 261.279 219.686 260.795C219.357 260.311 218.305 260.319 217.22 261.057Z" fill="#9B9B9B"/>
<path d="M189.3 272.114C188.396 272.729 187.935 273.608 188.264 274.092C188.593 274.575 189.58 274.471 190.484 273.856C191.389 273.241 191.849 272.362 191.52 271.878C190.944 271.421 190.204 271.499 189.3 272.114Z" fill="#9B9B9B"/>
<path d="M164.916 281.758C164.192 282.25 163.847 282.909 164.11 283.296C164.373 283.683 165.113 283.605 165.837 283.113C166.56 282.621 166.905 281.962 166.642 281.575C166.379 281.188 165.639 281.266 164.916 281.758Z" fill="#9B9B9B"/>
<path d="M144.131 290.086C143.588 290.455 143.358 290.895 143.555 291.185C143.753 291.475 144.246 291.423 144.789 291.054C145.331 290.685 145.561 290.246 145.364 289.956C145.167 289.665 144.673 289.718 144.131 290.086Z" fill="#9B9B9B"/>
<path d="M127.195 297.072C126.833 297.318 126.603 297.758 126.734 297.951C126.866 298.145 127.359 298.092 127.721 297.847C128.083 297.601 128.313 297.161 128.181 296.968C127.984 296.677 127.556 296.826 127.195 297.072Z" fill="#9B9B9B"/>
<path d="M113.794 302.645C113.613 302.768 113.498 302.988 113.564 303.085C113.63 303.181 113.876 303.155 114.057 303.032C114.238 302.909 114.353 302.69 114.287 302.593C114.402 302.373 114.156 302.399 113.794 302.645Z" fill="#9B9B9B"/>
<path d="M104.306 306.973C104.126 307.096 104.191 307.193 104.191 307.193C104.257 307.289 104.438 307.166 104.438 307.166C104.619 307.043 104.553 306.947 104.553 306.947C104.487 306.85 104.487 306.85 104.306 306.973Z" fill="#9B9B9B"/>
<path d="M98.5342 309.764C98.3527 309.888 98.3527 309.888 98.5342 309.764C98.4181 309.984 98.5996 309.861 98.5996 309.861C98.5996 309.861 98.5996 309.861 98.5342 309.764Z" fill="#9B9B9B"/>
<path d="M283.152 218.78C281.524 219.887 280.603 221.644 281.196 222.515C281.788 223.386 283.761 223.177 285.389 222.07C287.017 220.964 287.937 219.206 287.345 218.335C286.572 217.587 284.78 217.673 283.152 218.78Z" fill="#9B9B9B"/>
<path d="M249.725 233.016C248.278 234 247.588 235.318 248.114 236.092C248.64 236.866 250.12 236.709 251.567 235.726C253.014 234.742 253.705 233.423 253.178 232.649C252.899 231.849 251.172 232.032 249.725 233.016Z" fill="#9B9B9B"/>
<path d="M219.091 245.917C217.825 246.778 217.316 247.973 217.71 248.554C218.171 249.231 219.585 248.977 220.67 248.24C221.936 247.379 222.446 246.184 222.051 245.603C221.591 244.926 220.177 245.179 219.091 245.917Z" fill="#9B9B9B"/>
<path d="M191.139 257.704C190.053 258.442 189.659 259.417 189.988 259.901C190.383 260.482 191.55 260.254 192.454 259.639C193.54 258.902 193.934 257.926 193.605 257.442C193.21 256.861 192.224 256.966 191.139 257.704Z" fill="#9B9B9B"/>
<path d="M166.475 268.104C165.571 268.719 165.291 269.475 165.554 269.862C165.883 270.346 166.804 270.144 167.528 269.653C168.432 269.038 168.711 268.282 168.448 267.895C168.185 267.508 167.198 267.612 166.475 268.104Z" fill="#9B9B9B"/>
<path d="M145.231 277.311C144.508 277.803 144.162 278.462 144.426 278.849C144.689 279.236 145.429 279.158 146.152 278.666C146.876 278.174 147.221 277.515 146.958 277.128C146.514 276.864 145.774 276.942 145.231 277.311Z" fill="#9B9B9B"/>
<path d="M127.34 285.229C126.797 285.597 126.567 286.037 126.764 286.327C126.962 286.618 127.455 286.565 127.998 286.196C128.54 285.827 128.77 285.388 128.573 285.098C128.442 284.904 127.882 284.86 127.34 285.229Z" fill="#9B9B9B"/>
<path d="M113.298 291.803C112.936 292.049 112.887 292.365 112.953 292.462C113.085 292.656 113.512 292.507 113.693 292.384C114.055 292.138 114.104 291.821 114.038 291.724C113.907 291.531 113.66 291.557 113.298 291.803Z" fill="#9B9B9B"/>
<path d="M102.611 297.088C102.43 297.211 102.315 297.431 102.381 297.528C102.447 297.624 102.694 297.598 102.874 297.475C103.055 297.352 103.17 297.133 103.105 297.036C103.22 296.816 102.973 296.842 102.611 297.088Z" fill="#9B9B9B"/>
<path d="M95.7049 300.934C95.524 301.057 95.5898 301.154 95.5898 301.154C95.6556 301.251 95.8364 301.128 95.8364 301.128C96.0173 301.005 95.9515 300.908 95.9515 300.908C95.8857 300.811 95.8857 300.811 95.7049 300.934Z" fill="#9B9B9B"/>
<path d="M92.4 303.464C92.284 303.684 92.4654 303.56 92.4654 303.56C92.6469 303.437 92.6469 303.437 92.4 303.464C92.5815 303.341 92.5815 303.341 92.4 303.464Z" fill="#9B9B9B"/>
<path d="M277.394 203.309C275.766 204.416 274.961 205.954 275.553 206.825C276.145 207.696 277.872 207.512 279.5 206.406C281.127 205.299 281.933 203.761 281.341 202.89C280.749 202.019 279.022 202.202 277.394 203.309Z" fill="#9B9B9B"/>
<path d="M246.877 217.547C245.43 218.531 244.74 219.849 245.266 220.623C245.792 221.397 247.272 221.24 248.719 220.257C250.166 219.273 250.857 217.954 250.33 217.18C249.804 216.406 248.143 216.686 246.877 217.547Z" fill="#9B9B9B"/>
<path d="M217.692 231.021C216.607 231.759 215.851 232.98 216.311 233.658C216.706 234.238 218.005 234.204 219.271 233.344C220.537 232.483 221.112 231.384 220.652 230.707C220.191 230.029 218.958 230.16 217.692 231.021Z" fill="#9B9B9B"/>
<path d="M190.807 243.213C189.902 243.828 189.261 244.83 189.656 245.411C189.985 245.895 191.037 245.887 192.122 245.149C193.027 244.534 193.668 243.532 193.273 242.951C192.944 242.468 191.711 242.599 190.807 243.213Z" fill="#9B9B9B"/>
<path d="M166.669 254.387C165.946 254.879 165.486 255.758 165.749 256.145C166.012 256.532 166.998 256.428 167.722 255.936C168.445 255.444 168.906 254.565 168.643 254.178C168.133 253.817 167.393 253.896 166.669 254.387Z" fill="#9B9B9B"/>
<path d="M145.327 264.228C144.784 264.597 144.439 265.256 144.636 265.546C144.834 265.836 145.574 265.758 146.116 265.389C146.659 265.02 147.004 264.361 146.807 264.071C146.609 263.78 145.87 263.859 145.327 264.228Z" fill="#9B9B9B"/>
<path d="M127.225 272.998C126.682 273.366 126.452 273.806 126.649 274.096C126.847 274.387 127.34 274.334 127.882 273.965C128.425 273.596 128.655 273.157 128.458 272.867C128.26 272.576 127.586 272.752 127.225 272.998Z" fill="#9B9B9B"/>
<path d="M112.41 280.38C112.049 280.626 111.933 280.846 112.065 281.04C112.197 281.233 112.624 281.084 112.805 280.961C113.167 280.715 113.216 280.399 113.15 280.302C113.265 280.082 112.772 280.134 112.41 280.38Z" fill="#9B9B9B"/>
<path d="M101.195 286.448C101.014 286.571 100.899 286.791 100.965 286.887C101.031 286.984 101.277 286.958 101.458 286.835C101.639 286.712 101.754 286.492 101.688 286.395C101.622 286.299 101.376 286.325 101.195 286.448Z" fill="#9B9B9B"/>
<path d="M93.4015 291.322C93.2206 291.445 93.2864 291.541 93.2864 291.541C93.3522 291.638 93.533 291.515 93.533 291.515C93.7139 291.392 93.6481 291.295 93.6481 291.295C93.7632 291.076 93.5823 291.199 93.4015 291.322Z" fill="#9B9B9B"/>
<path d="M89.3232 294.66C89.3887 294.756 89.2072 294.88 89.3232 294.66C89.3887 294.756 89.3887 294.756 89.3232 294.66Z" fill="#9B9B9B"/>
<path d="M293.488 173.689C291.68 174.919 290.759 176.676 291.417 177.644C292.075 178.612 294.048 178.402 295.857 177.173C297.666 175.943 298.586 174.185 297.928 173.218C297.517 172.224 295.297 172.459 293.488 173.689Z" fill="#9B9B9B"/>
<path d="M267.016 188.432C265.388 189.539 264.402 191.2 265.06 192.167C265.652 193.038 267.444 192.952 269.253 191.722C270.881 190.616 271.867 188.955 271.209 187.987C270.551 187.019 268.644 187.325 267.016 188.432Z" fill="#9B9B9B"/>
<path d="M239.902 202.62C238.455 203.604 237.65 205.142 238.176 205.916C238.702 206.69 240.429 206.507 241.876 205.523C243.323 204.54 244.128 203.001 243.602 202.227C243.01 201.356 241.349 201.636 239.902 202.62Z" fill="#9B9B9B"/>
<path d="M213.134 216.149C211.868 217.009 211.178 218.328 211.638 219.005C212.099 219.683 213.579 219.525 214.845 218.665C216.111 217.804 216.801 216.486 216.341 215.808C215.88 215.131 214.4 215.288 213.134 216.149Z" fill="#9B9B9B"/>
<path d="M187.879 228.791C186.793 229.528 186.218 230.627 186.613 231.208C187.008 231.788 188.241 231.657 189.326 230.92C190.411 230.182 190.987 229.083 190.592 228.502C190.197 227.922 188.964 228.053 187.879 228.791Z" fill="#9B9B9B"/>
<path d="M164.809 240.37C163.904 240.985 163.444 241.864 163.773 242.348C164.102 242.832 165.089 242.727 165.993 242.112C166.897 241.497 167.358 240.618 167.029 240.135C166.7 239.651 165.713 239.756 164.809 240.37Z" fill="#9B9B9B"/>
<path d="M143.927 250.888C143.203 251.38 142.858 252.039 143.121 252.426C143.384 252.813 144.124 252.734 144.848 252.243C145.571 251.751 145.917 251.091 145.653 250.704C145.637 250.291 144.831 250.273 143.927 250.888Z" fill="#9B9B9B"/>
<path d="M126.152 260.142C125.61 260.511 125.264 261.17 125.462 261.46C125.659 261.751 126.399 261.672 126.942 261.303C127.484 260.934 127.829 260.275 127.632 259.985C127.435 259.694 126.695 259.773 126.152 260.142Z" fill="#9B9B9B"/>
<path d="M111.371 268.351C111.01 268.597 110.779 269.037 110.911 269.23C111.043 269.424 111.536 269.371 111.898 269.125C112.259 268.879 112.489 268.44 112.358 268.246C112.226 268.053 111.733 268.105 111.371 268.351Z" fill="#9B9B9B"/>
<path d="M99.6967 275.297C99.3349 275.543 99.2198 275.763 99.3514 275.957C99.483 276.15 99.7297 276.124 100.091 275.878C100.453 275.632 100.568 275.412 100.437 275.219C100.305 275.025 100.058 275.051 99.6967 275.297Z" fill="#9B9B9B"/>
<path d="M91.4918 280.733C91.3109 280.856 91.1959 281.076 91.2617 281.173C91.3274 281.27 91.5741 281.244 91.755 281.121C91.9358 280.998 92.0509 280.778 91.9851 280.681C91.7384 280.707 91.6727 280.611 91.4918 280.733Z" fill="#9B9B9B"/>
<path d="M86.5916 285.196C86.4107 285.319 86.4107 285.319 86.4765 285.416C86.5423 285.513 86.5423 285.513 86.7232 285.39C86.9041 285.267 86.904 285.267 86.8383 285.17C86.7725 285.073 86.7725 285.073 86.5916 285.196Z" fill="#9B9B9B"/>
<path d="M85.1615 288.15C85.2269 288.246 85.2269 288.246 85.1615 288.15C85.4084 288.123 85.2269 288.246 85.1615 288.15Z" fill="#9B9B9B"/>
<path d="M294.586 150.02C295.24 150.982 297.228 150.771 299.026 149.549C300.824 148.326 301.751 146.555 301.097 145.593C300.443 144.631 298.456 144.842 296.658 146.065C294.86 147.287 293.932 149.058 294.586 150.02Z" fill="#9B9B9B"/>
<path d="M276.419 160.249C274.791 161.356 273.985 162.894 274.577 163.765C275.17 164.636 276.896 164.452 278.524 163.346C280.152 162.239 280.957 160.701 280.365 159.83C279.773 158.959 278.046 159.142 276.419 160.249Z" fill="#9B9B9B"/>
<path d="M253.827 174.476C252.38 175.46 251.575 176.998 252.101 177.772C252.627 178.546 254.354 178.363 255.801 177.379C257.248 176.395 258.053 174.857 257.527 174.083C256.935 173.212 255.274 173.492 253.827 174.476Z" fill="#9B9B9B"/>
<path d="M229.985 188.42C228.719 189.281 228.029 190.599 228.49 191.277C228.95 191.954 230.43 191.797 231.696 190.936C232.962 190.076 233.653 188.757 233.192 188.08C232.912 187.279 231.432 187.437 229.985 188.42Z" fill="#9B9B9B"/>
<path d="M206.127 201.951C205.042 202.689 204.286 203.911 204.747 204.588C205.141 205.169 206.44 205.135 207.706 204.274C208.972 203.413 209.548 202.315 209.087 201.637C208.627 200.96 207.394 201.091 206.127 201.951Z" fill="#9B9B9B"/>
<path d="M183.041 214.674C182.137 215.289 181.495 216.291 181.89 216.872C182.285 217.452 183.272 217.348 184.357 216.61C185.442 215.872 185.902 214.993 185.508 214.413C185.113 213.832 184.126 213.937 183.041 214.674Z" fill="#9B9B9B"/>
<path d="M161.289 226.633C160.385 227.248 160.105 228.004 160.368 228.391C160.697 228.875 161.618 228.673 162.342 228.181C163.246 227.566 163.525 226.81 163.262 226.423C163.18 225.913 162.193 226.018 161.289 226.633Z" fill="#9B9B9B"/>
<path d="M141.721 237.53C140.998 238.022 140.653 238.681 140.916 239.068C141.179 239.455 141.919 239.376 142.642 238.885C143.366 238.393 143.711 237.734 143.448 237.346C143.185 236.959 142.445 237.038 141.721 237.53Z" fill="#9B9B9B"/>
<path d="M124.342 247.364C123.799 247.733 123.569 248.172 123.766 248.463C123.964 248.753 124.457 248.701 125 248.332C125.542 247.963 125.772 247.523 125.575 247.233C125.443 247.04 124.884 246.995 124.342 247.364Z" fill="#9B9B9B"/>
<path d="M109.89 256.058C109.528 256.303 109.298 256.743 109.43 256.936C109.561 257.13 110.054 257.078 110.416 256.832C110.778 256.586 111.008 256.146 110.876 255.953C110.745 255.759 110.252 255.812 109.89 256.058Z" fill="#9B9B9B"/>
<path d="M98.183 263.733C98.0021 263.856 97.7062 264.199 97.8378 264.393C97.9035 264.489 98.216 264.56 98.5777 264.314C98.7586 264.191 99.0545 263.848 98.923 263.655C98.7914 263.461 98.5447 263.487 98.183 263.733Z" fill="#9B9B9B"/>
<path d="M89.6978 269.926C89.517 270.049 89.4019 270.268 89.4677 270.365C89.5335 270.462 89.7801 270.436 89.961 270.313C90.1418 270.19 90.2569 269.97 90.1912 269.873C89.9445 269.899 89.8787 269.803 89.6978 269.926Z" fill="#9B9B9B"/>
<path d="M84.4538 275.048C84.2729 275.171 84.2729 275.171 84.4538 275.048C84.3387 275.267 84.5854 275.241 84.5854 275.241C84.5196 275.144 84.7004 275.021 84.4538 275.048Z" fill="#9B9B9B"/>
<path d="M82.4971 278.783C82.5625 278.88 82.381 279.003 82.4971 278.783C82.5625 278.88 82.5625 278.88 82.4971 278.783Z" fill="#9B9B9B"/>
<path d="M290.341 121.211C288.713 122.317 287.908 123.856 288.5 124.726C289.092 125.597 290.818 125.414 292.446 124.308C294.074 123.201 294.879 121.663 294.287 120.792C293.942 119.895 291.969 120.104 290.341 121.211Z" fill="#9B9B9B"/>
<path d="M275.626 134.186C273.998 135.293 273.192 136.831 273.785 137.702C274.377 138.573 276.103 138.39 277.731 137.283C279.359 136.177 280.164 134.638 279.572 133.767C278.98 132.897 277.253 133.08 275.626 134.186Z" fill="#9B9B9B"/>
<path d="M258.327 147.644C256.881 148.627 256.075 150.166 256.601 150.94C257.193 151.811 258.854 151.531 260.301 150.547C261.748 149.563 262.554 148.025 262.027 147.251C261.682 146.354 259.955 146.537 258.327 147.644Z" fill="#9B9B9B"/>
<path d="M238.992 161.213C237.545 162.197 236.855 163.515 237.381 164.29C237.908 165.064 239.388 164.907 240.834 163.923C242.281 162.939 242.972 161.621 242.445 160.847C241.985 160.169 240.439 160.23 238.992 161.213Z" fill="#9B9B9B"/>
<path d="M218.358 174.817C217.092 175.678 216.401 176.996 216.862 177.674C217.322 178.351 218.802 178.194 220.068 177.333C221.334 176.472 222.025 175.154 221.564 174.477C221.104 173.799 219.624 173.956 218.358 174.817Z" fill="#9B9B9B"/>
<path d="M197.212 188.06C196.127 188.798 195.371 190.02 195.832 190.697C196.226 191.278 197.525 191.244 198.791 190.383C200.057 189.522 200.633 188.424 200.172 187.746C199.778 187.166 198.298 187.323 197.212 188.06Z" fill="#9B9B9B"/>
<path d="M176.298 200.864C175.213 201.602 174.818 202.578 175.147 203.061C175.542 203.642 176.71 203.414 177.614 202.8C178.699 202.062 179.094 201.086 178.765 200.602C178.617 199.995 177.383 200.126 176.298 200.864Z" fill="#9B9B9B"/>
<path d="M156.468 212.93C155.564 213.545 155.103 214.423 155.432 214.907C155.761 215.391 156.748 215.286 157.652 214.672C158.556 214.057 159.017 213.178 158.688 212.694C158.359 212.21 157.372 212.315 156.468 212.93Z" fill="#9B9B9B"/>
<path d="M138.151 224.109C137.427 224.601 137.082 225.26 137.345 225.647C137.609 226.034 138.349 225.956 139.072 225.464C139.795 224.972 140.141 224.313 139.878 223.926C139.614 223.539 138.874 223.617 138.151 224.109Z" fill="#9B9B9B"/>
<path d="M121.841 234.348C121.298 234.717 120.953 235.377 121.15 235.667C121.348 235.957 122.087 235.879 122.63 235.51C123.173 235.141 123.518 234.482 123.321 234.191C123.123 233.901 122.383 233.98 121.841 234.348Z" fill="#9B9B9B"/>
<path d="M107.782 243.623C107.42 243.869 107.009 244.431 107.207 244.721C107.338 244.915 107.898 244.959 108.44 244.59C108.802 244.345 109.213 243.782 109.015 243.492C108.818 243.201 108.325 243.254 107.782 243.623Z" fill="#9B9B9B"/>
<path d="M96.4044 251.783C96.0427 252.029 95.9276 252.248 96.0592 252.442C96.1908 252.635 96.4374 252.609 96.7992 252.363C97.1609 252.117 97.276 251.898 97.1444 251.704C97.2595 251.484 96.7662 251.537 96.4044 251.783Z" fill="#9B9B9B"/>
<path d="M87.9531 258.801C87.7722 258.924 87.6571 259.144 87.7229 259.241C87.7887 259.338 88.0354 259.312 88.2162 259.189C88.3971 259.066 88.5122 258.846 88.4464 258.749C88.5614 258.529 88.3148 258.556 87.9531 258.801Z" fill="#9B9B9B"/>
<path d="M82.5447 264.46C82.3639 264.583 82.4297 264.679 82.4297 264.679C82.4954 264.776 82.6763 264.653 82.6763 264.653C82.8572 264.53 82.7914 264.433 82.7914 264.433C82.7914 264.433 82.7256 264.337 82.5447 264.46Z" fill="#9B9B9B"/>
<path d="M80.3096 268.951C80.1281 269.075 80.1935 269.171 80.3096 268.951C80.1935 269.171 80.375 269.047 80.375 269.047C80.4404 269.144 80.375 269.047 80.3096 268.951Z" fill="#9B9B9B"/>
<path d="M294.971 79.0087C293.705 79.8695 293.015 81.1878 293.475 81.8652C293.936 82.5427 295.416 82.3856 296.682 81.5248C297.948 80.6641 298.638 79.3457 298.178 78.6683C297.536 78.1139 296.237 78.148 294.971 79.0087Z" fill="#9B9B9B"/>
<path d="M288.182 88.8603C286.916 89.721 286.225 91.0394 286.686 91.7168C287.147 92.3942 288.626 92.2371 289.893 91.3764C291.159 90.5157 291.849 89.1973 291.388 88.5199C290.928 87.8425 289.629 87.8766 288.182 88.8603Z" fill="#9B9B9B"/>
<path d="M279.567 99.5283C278.12 100.512 277.429 101.83 277.955 102.605C278.482 103.379 279.962 103.222 281.409 102.238C282.856 101.254 283.546 99.9359 283.02 99.1617C282.493 98.3875 281.013 98.5446 279.567 99.5283Z" fill="#9B9B9B"/>
<path d="M268.814 110.942C267.367 111.925 266.676 113.244 267.203 114.018C267.729 114.792 269.209 114.635 270.656 113.651C272.103 112.668 272.793 111.349 272.267 110.575C271.806 109.898 270.261 109.958 268.814 110.942Z" fill="#9B9B9B"/>
<path d="M255.809 123.321C254.362 124.304 253.671 125.623 254.198 126.397C254.724 127.171 256.204 127.014 257.651 126.03C259.098 125.047 259.788 123.728 259.262 122.954C258.736 122.18 257.256 122.337 255.809 123.321Z" fill="#9B9B9B"/>
<path d="M239.219 138.985C239.692 139.68 241.127 139.528 242.426 138.645C243.724 137.762 244.394 136.483 243.922 135.788C243.449 135.094 242.014 135.246 240.715 136.129C239.417 137.012 238.747 138.29 239.219 138.985Z" fill="#9B9B9B"/>
<path d="M223.895 149.12C222.629 149.981 222.119 151.176 222.514 151.757C222.974 152.434 224.389 152.18 225.474 151.443C226.74 150.582 227.249 149.387 226.855 148.806C226.641 148.102 225.161 148.259 223.895 149.12Z" fill="#9B9B9B"/>
<path d="M206.022 162.12C204.937 162.858 204.362 163.956 204.756 164.537C205.151 165.117 206.384 164.987 207.47 164.249C208.555 163.511 209.13 162.412 208.735 161.832C208.341 161.251 207.107 161.382 206.022 162.12Z" fill="#9B9B9B"/>
<path d="M187.344 175.101C186.259 175.839 185.864 176.814 186.193 177.298C186.588 177.879 187.755 177.651 188.66 177.037C189.745 176.299 190.139 175.323 189.81 174.839C189.481 174.355 188.248 174.486 187.344 175.101Z" fill="#9B9B9B"/>
<path d="M168.715 187.766C167.811 188.381 167.35 189.26 167.679 189.743C168.008 190.227 168.995 190.123 169.899 189.508C170.804 188.893 171.264 188.014 170.935 187.53C170.606 187.046 169.619 187.151 168.715 187.766Z" fill="#9B9B9B"/>
<path d="M150.744 199.842C150.021 200.333 149.495 201.116 149.824 201.599C150.087 201.987 150.893 202.005 151.797 201.39C152.521 200.898 153.047 200.116 152.718 199.632C152.389 199.148 151.468 199.35 150.744 199.842Z" fill="#9B9B9B"/>
<path d="M133.858 211.18C133.135 211.672 132.97 212.208 133.168 212.498C133.431 212.885 134.105 212.71 134.648 212.341C135.19 211.972 135.536 211.313 135.338 211.023C135.322 210.609 134.582 210.688 133.858 211.18Z" fill="#9B9B9B"/>
<path d="M118.731 221.605C118.189 221.974 117.959 222.413 118.156 222.704C118.353 222.994 118.847 222.942 119.389 222.573C119.932 222.204 120.162 221.764 119.965 221.474C119.833 221.281 119.274 221.236 118.731 221.605Z" fill="#9B9B9B"/>
<path d="M105.495 231.311C105.134 231.557 104.903 231.996 105.035 232.19C105.167 232.383 105.66 232.331 106.022 232.085C106.383 231.839 106.613 231.4 106.482 231.206C106.35 231.013 106.038 230.942 105.495 231.311Z" fill="#9B9B9B"/>
<path d="M94.808 239.708C94.6272 239.831 94.3312 240.174 94.4628 240.368C94.5286 240.464 94.841 240.535 95.2028 240.289C95.5645 240.043 95.6795 239.823 95.548 239.63C95.3013 239.656 94.9889 239.586 94.808 239.708Z" fill="#9B9B9B"/>
<path d="M86.5045 247.334C86.3236 247.457 86.2086 247.677 86.2743 247.774C86.3401 247.871 86.5868 247.844 86.7676 247.721C86.9485 247.598 87.0636 247.379 86.9978 247.282C86.932 247.185 86.6854 247.211 86.5045 247.334Z" fill="#9B9B9B"/>
<path d="M81.2432 253.599C81.0623 253.722 81.0623 253.722 81.2432 253.599C81.1281 253.819 81.1939 253.916 81.3747 253.793C81.3747 253.793 81.309 253.696 81.2432 253.599Z" fill="#9B9B9B"/>
<path d="M297.481 36.4092C297.119 36.6551 297.004 36.8748 297.136 37.0684C297.267 37.2619 297.514 37.2357 297.876 36.9898C298.237 36.7439 298.352 36.5241 298.221 36.3306C298.155 36.2338 297.843 36.1632 297.481 36.4092Z" fill="#9B9B9B"/>
<path d="M294.784 40.2232C294.422 40.4691 294.192 40.9085 294.324 41.1021C294.455 41.2956 294.949 41.2433 295.311 40.9973C295.672 40.7514 295.902 40.312 295.771 40.1184C295.82 39.8019 295.327 39.8543 294.784 40.2232Z" fill="#9B9B9B"/>
<path d="M292.055 44.7671C291.512 45.136 291.282 45.5755 291.479 45.8658C291.677 46.1561 292.17 46.1037 292.713 45.7349C293.255 45.366 293.485 44.9265 293.288 44.6362C293.091 44.3459 292.597 44.3983 292.055 44.7671Z" fill="#9B9B9B"/>
<path d="M288.866 50.1897C288.142 50.6815 287.797 51.3407 288.06 51.7278C288.323 52.1149 289.063 52.0363 289.787 51.5445C290.51 51.0527 290.856 50.3935 290.592 50.0064C290.329 49.6193 289.589 49.6979 288.866 50.1897Z" fill="#9B9B9B"/>
<path d="M284.97 56.5177C284.247 57.0096 283.721 57.7917 284.049 58.2756C284.313 58.6627 285.118 58.6809 286.023 58.0661C286.746 57.5743 287.272 56.7921 286.943 56.3082C286.68 55.9211 285.874 55.9029 284.97 56.5177Z" fill="#9B9B9B"/>
<path d="M280.547 63.6277C279.643 64.2425 279.182 65.1215 279.511 65.6053C279.84 66.0892 280.827 65.9845 281.731 65.3697C282.636 64.7549 283.096 63.8759 282.767 63.3921C282.257 63.0312 281.27 63.1359 280.547 63.6277Z" fill="#9B9B9B"/>
<path d="M274.81 71.915C273.905 72.5298 273.264 73.5317 273.659 74.1123C273.988 74.5962 275.04 74.5882 276.125 73.8505C277.03 73.2357 277.671 72.2338 277.276 71.6532C276.881 71.0725 275.895 71.1773 274.81 71.915Z" fill="#9B9B9B"/>
<path d="M267.988 80.9395C266.903 81.6772 266.327 82.7759 266.722 83.3565C267.117 83.9371 268.35 83.8062 269.435 83.0685C270.521 82.3307 271.096 81.2321 270.701 80.6514C270.126 80.1937 269.073 80.2017 267.988 80.9395Z" fill="#9B9B9B"/>
<path d="M259.47 90.9745C258.385 91.7122 257.81 92.8109 258.205 93.3915C258.599 93.9722 259.833 93.8412 260.918 93.1035C262.003 92.3657 262.578 91.2671 262.184 90.6865C261.789 90.1058 260.556 90.2367 259.47 90.9745Z" fill="#9B9B9B"/>
<path d="M249.376 101.799C248.109 102.66 247.534 103.759 247.995 104.436C248.389 105.017 249.688 104.983 250.954 104.122C252.04 103.384 252.796 102.163 252.335 101.485C251.875 100.808 250.642 100.939 249.376 101.799Z" fill="#9B9B9B"/>
<path d="M237.636 113.317C236.551 114.055 235.795 115.277 236.255 115.954C236.65 116.535 237.949 116.501 239.215 115.64C240.3 114.902 241.057 113.68 240.596 113.003C240.136 112.326 238.902 112.457 237.636 113.317Z" fill="#9B9B9B"/>
<path d="M224.187 125.432C223.102 126.17 222.346 127.392 222.806 128.069C223.267 128.746 224.5 128.616 225.766 127.755C226.851 127.017 227.607 125.795 227.147 125.118C226.686 124.441 225.453 124.572 224.187 125.432Z" fill="#9B9B9B"/>
<path d="M209.505 137.678C208.419 138.416 207.844 139.515 208.239 140.095C208.634 140.676 209.867 140.545 210.952 139.807C212.037 139.069 212.613 137.971 212.218 137.39C211.823 136.81 210.59 136.94 209.505 137.678Z" fill="#9B9B9B"/>
<path d="M193.54 150.371C192.455 151.109 192.061 152.085 192.39 152.568C192.784 153.149 193.952 152.921 194.856 152.307C195.941 151.569 196.336 150.593 196.007 150.109C195.859 149.503 194.625 149.633 193.54 150.371Z" fill="#9B9B9B"/>
<path d="M177.196 162.897C176.292 163.512 175.651 164.514 176.046 165.095C176.374 165.578 177.427 165.57 178.512 164.833C179.416 164.218 180.058 163.216 179.663 162.635C179.087 162.178 178.101 162.282 177.196 162.897Z" fill="#9B9B9B"/>
<path d="M160.476 175.255C159.571 175.87 159.111 176.749 159.44 177.233C159.769 177.717 160.756 177.612 161.66 176.997C162.564 176.382 163.025 175.503 162.696 175.02C162.367 174.536 161.38 174.641 160.476 175.255Z" fill="#9B9B9B"/>
<path d="M144.477 187.122C143.753 187.614 143.227 188.396 143.556 188.88C143.82 189.267 144.559 189.188 145.464 188.573C146.187 188.082 146.713 187.299 146.45 186.912C145.94 186.551 145.2 186.63 144.477 187.122Z" fill="#9B9B9B"/>
<path d="M129.202 198.497C128.659 198.866 128.314 199.525 128.511 199.815C128.709 200.106 129.449 200.027 129.991 199.658C130.534 199.289 130.879 198.63 130.682 198.34C130.484 198.05 129.745 198.128 129.202 198.497Z" fill="#9B9B9B"/>
<path d="M115.26 209.108C114.717 209.477 114.487 209.916 114.684 210.206C114.882 210.497 115.375 210.444 115.918 210.076C116.46 209.707 116.69 209.267 116.493 208.977C116.296 208.687 115.802 208.739 115.26 209.108Z" fill="#9B9B9B"/>
<path d="M103.142 218.902C102.78 219.148 102.55 219.588 102.681 219.781C102.813 219.975 103.306 219.923 103.668 219.677C104.03 219.431 104.26 218.991 104.128 218.798C103.997 218.604 103.504 218.657 103.142 218.902Z" fill="#9B9B9B"/>
<path d="M93.0961 227.854C92.7343 228.1 92.6193 228.32 92.7508 228.514C92.8824 228.707 93.1291 228.681 93.4908 228.435C93.8525 228.189 93.9676 227.969 93.836 227.776C93.7045 227.582 93.2769 227.732 93.0961 227.854Z" fill="#9B9B9B"/>
<path d="M85.2369 235.744C85.056 235.867 84.941 236.087 85.0068 236.184C85.0726 236.281 85.3192 236.254 85.5001 236.131C85.6809 236.008 85.796 235.789 85.7302 235.692C85.6644 235.595 85.4178 235.621 85.2369 235.744Z" fill="#9B9B9B"/>
<path d="M80.1238 242.616C79.943 242.739 80.0088 242.836 80.0088 242.836C80.0745 242.933 80.2554 242.81 80.2554 242.81C80.4363 242.687 80.3705 242.59 80.3705 242.59C80.3047 242.494 80.3047 242.494 80.1238 242.616Z" fill="#9B9B9B"/>
<path d="M77.6891 248.374C77.573 248.594 77.7545 248.471 77.7545 248.471C77.936 248.347 77.936 248.347 77.6891 248.374C77.8706 248.251 77.8706 248.251 77.6891 248.374Z" fill="#9B9B9B"/>
<path d="M289.882 30.679C289.702 30.802 289.586 31.0217 289.652 31.1185C289.718 31.2153 289.965 31.1891 290.146 31.0661C290.326 30.9432 290.442 30.7234 290.376 30.6267C290.31 30.5299 290.063 30.5561 289.882 30.679Z" fill="#9B9B9B"/>
<path d="M285.838 33.2872C285.657 33.4102 285.542 33.6299 285.608 33.7267C285.673 33.8234 285.92 33.7972 286.101 33.6743C286.282 33.5513 286.397 33.3316 286.331 33.2348C286.446 33.0151 286.2 33.0413 285.838 33.2872Z" fill="#9B9B9B"/>
<path d="M281.941 36.5025C281.579 36.7485 281.53 37.065 281.595 37.1617C281.727 37.3553 282.154 37.2061 282.335 37.0832C282.697 36.8373 282.812 36.6175 282.681 36.424C282.73 36.1075 282.302 36.2566 281.941 36.5025Z" fill="#9B9B9B"/>
<path d="M278.077 40.5442C277.716 40.7901 277.485 41.2296 277.617 41.4231C277.749 41.6167 278.242 41.5643 278.604 41.3184C278.965 41.0725 279.196 40.633 279.064 40.4395C278.867 40.1491 278.439 40.2983 278.077 40.5442Z" fill="#9B9B9B"/>
<path d="M273.754 45.4649C273.211 45.8338 272.981 46.2732 273.179 46.5635C273.376 46.8539 273.869 46.8015 274.412 46.4326C274.954 46.0637 275.185 45.6243 274.987 45.334C274.79 45.0436 274.296 45.096 273.754 45.4649Z" fill="#9B9B9B"/>
<path d="M268.97 51.2646C268.246 51.7564 268.082 52.2927 268.279 52.583C268.542 52.9701 269.216 52.7948 269.759 52.4259C270.302 52.057 270.647 51.3978 270.449 51.1075C270.252 50.8172 269.693 50.7728 268.97 51.2646Z" fill="#9B9B9B"/>
<path d="M263.725 57.9429C263.002 58.4347 262.656 59.0939 262.92 59.481C263.183 59.8681 263.923 59.7895 264.646 59.2977C265.37 58.8059 265.715 58.1467 265.452 57.7596C265.189 57.3725 264.449 57.451 263.725 57.9429Z" fill="#9B9B9B"/>
<path d="M257.527 65.5526C256.622 66.1674 256.343 66.9234 256.606 67.3105C256.869 67.6976 257.856 67.5928 258.579 67.101C259.303 66.6092 259.763 65.7302 259.5 65.3432C259.171 64.8593 258.25 65.0608 257.527 65.5526Z" fill="#9B9B9B"/>
<path d="M250.309 73.9973C249.404 74.612 248.944 75.491 249.273 75.9748C249.602 76.4587 250.589 76.354 251.493 75.7392C252.397 75.1244 252.858 74.2454 252.529 73.7616C252.2 73.2777 251.213 73.3825 250.309 73.9973Z" fill="#9B9B9B"/>
<path d="M241.891 83.3987C240.987 84.0134 240.527 84.8924 240.856 85.3762C241.185 85.8601 242.171 85.7554 243.076 85.1406C243.98 84.5258 244.44 83.6468 244.111 83.163C243.963 82.5562 242.977 82.6609 241.891 83.3987Z" fill="#9B9B9B"/>
<path d="M232.323 93.4414C231.419 94.0562 230.778 95.0581 231.172 95.6387C231.501 96.1226 232.554 96.1146 233.639 95.3768C234.543 94.762 235.184 93.7602 234.79 93.1795C234.461 92.6957 233.408 92.7036 232.323 93.4414Z" fill="#9B9B9B"/>
<path d="M221.421 104.248C220.517 104.863 219.875 105.865 220.27 106.445C220.599 106.929 221.651 106.921 222.737 106.184C223.641 105.569 224.282 104.567 223.887 103.986C223.558 103.502 222.506 103.51 221.421 104.248Z" fill="#9B9B9B"/>
<path d="M209.37 115.696C208.466 116.311 207.825 117.313 208.219 117.893C208.548 118.377 209.601 118.369 210.686 117.631C211.59 117.017 212.231 116.015 211.837 115.434C211.442 114.853 210.274 115.081 209.37 115.696Z" fill="#9B9B9B"/>
<path d="M196.151 127.372C195.246 127.986 194.786 128.865 195.115 129.349C195.444 129.833 196.43 129.728 197.335 129.113C198.239 128.499 198.699 127.62 198.37 127.136C198.041 126.652 197.055 126.757 196.151 127.372Z" fill="#9B9B9B"/>
<path d="M182.144 139.442C181.239 140.056 180.779 140.935 181.108 141.419C181.437 141.903 182.424 141.798 183.328 141.184C184.232 140.569 184.693 139.69 184.364 139.206C183.788 138.748 182.867 138.95 182.144 139.442Z" fill="#9B9B9B"/>
<path d="M167.395 151.59C166.671 152.082 166.211 152.961 166.474 153.348C166.737 153.735 167.724 153.631 168.448 153.139C169.171 152.647 169.631 151.768 169.368 151.381C169.039 150.897 168.299 150.976 167.395 151.59Z" fill="#9B9B9B"/>
<path d="M152.76 163.52C152.037 164.012 151.692 164.671 151.955 165.058C152.218 165.445 152.958 165.367 153.681 164.875C154.405 164.383 154.75 163.724 154.487 163.337C154.224 162.95 153.484 163.028 152.76 163.52Z" fill="#9B9B9B"/>
<path d="M138.242 175.229C137.699 175.598 137.354 176.258 137.552 176.548C137.749 176.838 138.489 176.76 139.031 176.391C139.574 176.022 139.919 175.363 139.722 175.072C139.459 174.685 138.965 174.738 138.242 175.229Z" fill="#9B9B9B"/>
<path d="M124.447 186.447C123.904 186.816 123.674 187.256 123.872 187.546C124.069 187.836 124.562 187.784 125.105 187.415C125.647 187.046 125.878 186.607 125.68 186.316C125.664 185.903 124.99 186.078 124.447 186.447Z" fill="#9B9B9B"/>
<path d="M111.869 197.12C111.508 197.366 111.277 197.806 111.409 197.999C111.541 198.193 112.034 198.141 112.396 197.895C112.757 197.649 112.988 197.209 112.856 197.016C112.724 196.822 112.412 196.752 111.869 197.12Z" fill="#9B9B9B"/>
<path d="M100.87 207.004C100.509 207.25 100.394 207.47 100.525 207.663C100.657 207.857 100.904 207.831 101.265 207.585C101.627 207.339 101.742 207.119 101.61 206.925C101.479 206.732 101.232 206.758 100.87 207.004Z" fill="#9B9B9B"/>
<path d="M91.2851 216.634C91.3577 216.74 91.5786 216.717 91.7784 216.581C91.9781 216.445 92.0812 216.249 92.0085 216.142C91.9359 216.035 91.715 216.058 91.5152 216.194C91.3154 216.33 91.2124 216.527 91.2851 216.634Z" fill="#9B9B9B"/>
<path d="M84.4132 224.418C84.2323 224.541 84.2981 224.638 84.2981 224.638C84.3639 224.735 84.5448 224.612 84.5448 224.612C84.7256 224.489 84.6598 224.392 84.6598 224.392C84.7749 224.172 84.594 224.295 84.4132 224.418Z" fill="#9B9B9B"/>
<path d="M79.7451 231.555C79.5643 231.678 79.5643 231.678 79.7451 231.555C79.63 231.774 79.8767 231.748 79.8767 231.748C79.8109 231.651 79.8109 231.651 79.7451 231.555Z" fill="#9B9B9B"/>
<path d="M77.393 237.822C77.4584 237.919 77.4584 237.919 77.393 237.822C77.6399 237.795 77.4584 237.919 77.393 237.822Z" fill="#9B9B9B"/>
<path d="M286.627 28.2234C286.511 28.443 286.692 28.3196 286.692 28.3196C286.692 28.3196 286.692 28.3196 286.627 28.2234Z" fill="#9B9B9B"/>
<path d="M276.645 31.0469C276.464 31.1699 276.464 31.1699 276.53 31.2666C276.596 31.3634 276.596 31.3634 276.777 31.2405C276.958 31.1175 276.958 31.1175 276.892 31.0207C276.826 30.9239 276.645 31.0469 276.645 31.0469Z" fill="#9B9B9B"/>
<path d="M271.614 33.7596C271.433 33.8825 271.318 34.1023 271.384 34.1991C271.449 34.2958 271.696 34.2696 271.877 34.1467C272.058 34.0237 272.173 33.804 272.107 33.7072C272.041 33.6104 271.795 33.6366 271.614 33.7596Z" fill="#9B9B9B"/>
<path d="M266.435 37.4223C266.255 37.5453 266.14 37.765 266.205 37.8618C266.271 37.9586 266.518 37.9324 266.699 37.8094C266.88 37.6865 266.995 37.4667 266.929 37.37C267.044 37.1502 266.797 37.1764 266.435 37.4223Z" fill="#9B9B9B"/>
<path d="M261.222 41.8151C260.86 42.0611 260.745 42.2808 260.877 42.4743C261.008 42.6679 261.436 42.5187 261.617 42.3958C261.978 42.1499 262.028 41.8334 261.962 41.7366C262.011 41.4201 261.584 41.5692 261.222 41.8151Z" fill="#9B9B9B"/>
<path d="M255.55 47.0861C255.188 47.332 254.958 47.7715 255.09 47.965C255.221 48.1586 255.714 48.1062 256.076 47.8603C256.438 47.6143 256.668 47.1749 256.536 46.9813C256.586 46.6648 256.092 46.7172 255.55 47.0861Z" fill="#9B9B9B"/>
<path d="M249.599 53.1133C249.056 53.4822 248.826 53.9217 249.023 54.212C249.221 54.5023 249.714 54.4499 250.257 54.0811C250.799 53.7122 251.029 53.2727 250.832 52.9824C250.7 52.7889 250.141 52.7445 249.599 53.1133Z" fill="#9B9B9B"/>
<path d="M242.824 60.2655C242.281 60.6343 241.936 61.2935 242.134 61.5839C242.331 61.8742 243.071 61.7956 243.613 61.4267C244.156 61.0579 244.501 60.3987 244.304 60.1083C244.107 59.818 243.547 59.7736 242.824 60.2655Z" fill="#9B9B9B"/>
<path d="M235.393 68.0062C234.67 68.498 234.506 69.0343 234.703 69.3246C234.966 69.7117 235.64 69.5364 236.183 69.1675C236.906 68.6757 237.071 68.1394 236.873 67.8491C236.857 67.4358 236.117 67.5144 235.393 68.0062Z" fill="#9B9B9B"/>
<path d="M227.008 76.6784C226.284 77.1702 225.939 77.8294 226.202 78.2165C226.465 78.6036 227.205 78.5251 227.929 78.0332C228.652 77.5414 228.997 76.8822 228.734 76.4951C228.718 76.0818 227.731 76.1866 227.008 76.6784Z" fill="#9B9B9B"/>
<path d="M217.785 86.0616C217.061 86.5534 216.535 87.3356 216.864 87.8194C217.128 88.2065 217.867 88.128 218.772 87.5132C219.495 87.0214 219.84 86.3621 219.577 85.9751C219.495 85.465 218.508 85.5698 217.785 86.0616Z" fill="#9B9B9B"/>
<path d="M207.541 96.2798C206.818 96.7716 206.292 97.5538 206.621 98.0377C206.884 98.4248 207.69 98.443 208.594 97.8282C209.317 97.3364 209.844 96.5542 209.515 96.0703C209.186 95.5865 208.446 95.665 207.541 96.2798Z" fill="#9B9B9B"/>
<path d="M196.444 106.796C195.72 107.288 195.26 108.167 195.523 108.554C195.786 108.941 196.773 108.836 197.496 108.345C198.22 107.853 198.68 106.974 198.417 106.587C198.154 106.2 197.167 106.304 196.444 106.796Z" fill="#9B9B9B"/>
<path d="M184.442 117.928C183.718 118.419 183.192 119.201 183.521 119.685C183.784 120.072 184.59 120.091 185.494 119.476C186.218 118.984 186.744 118.202 186.415 117.718C185.905 117.357 185.165 117.436 184.442 117.928Z" fill="#9B9B9B"/>
<path d="M171.65 129.454C170.927 129.946 170.582 130.605 170.845 130.992C171.108 131.379 171.848 131.3 172.571 130.808C173.295 130.317 173.64 129.657 173.377 129.27C173.294 128.76 172.374 128.962 171.65 129.454Z" fill="#9B9B9B"/>
<path d="M158.611 141.006C157.887 141.498 157.542 142.157 157.805 142.544C158.069 142.931 158.809 142.853 159.532 142.361C160.255 141.869 160.601 141.21 160.337 140.823C160.074 140.436 159.334 140.514 158.611 141.006Z" fill="#9B9B9B"/>
<path d="M145.508 152.462C144.965 152.831 144.62 153.49 144.817 153.78C145.08 154.167 145.754 153.992 146.297 153.623C146.84 153.254 147.185 152.595 146.988 152.305C146.79 152.014 146.05 152.093 145.508 152.462Z" fill="#9B9B9B"/>
<path d="M132.584 163.794C132.041 164.163 131.696 164.822 131.893 165.113C132.091 165.403 132.831 165.325 133.373 164.956C133.916 164.587 134.261 163.928 134.064 163.637C133.685 163.47 133.126 163.426 132.584 163.794Z" fill="#9B9B9B"/>
<path d="M120.27 174.855C119.728 175.223 119.498 175.663 119.695 175.953C119.892 176.244 120.386 176.191 120.928 175.822C121.471 175.453 121.701 175.014 121.504 174.724C121.126 174.556 120.632 174.609 120.27 174.855Z" fill="#9B9B9B"/>
<path d="M108.924 185.398C108.562 185.644 108.332 186.083 108.464 186.277C108.595 186.47 109.089 186.418 109.45 186.172C109.812 185.926 110.042 185.486 109.911 185.293C109.779 185.099 109.286 185.152 108.924 185.398Z" fill="#9B9B9B"/>
<path d="M98.7972 195.395C98.4355 195.641 98.3204 195.861 98.452 196.055C98.5836 196.248 98.8303 196.222 99.192 195.976C99.5537 195.73 99.6688 195.51 99.5372 195.317C99.4714 195.22 99.159 195.15 98.7972 195.395Z" fill="#9B9B9B"/>
<path d="M90.4947 204.578C90.3139 204.701 90.1988 204.921 90.2646 205.017C90.3304 205.114 90.577 205.088 90.7579 204.965C90.9387 204.842 91.0538 204.622 90.988 204.526C90.9222 204.429 90.6756 204.455 90.4947 204.578Z" fill="#9B9B9B"/>
<path d="M84.0826 213.04C83.9017 213.163 83.7867 213.383 83.8524 213.48C83.9182 213.576 84.1649 213.55 84.3457 213.427C84.5266 213.304 84.6417 213.085 84.5759 212.988C84.3293 213.014 84.2634 212.917 84.0826 213.04Z" fill="#9B9B9B"/>
<path d="M79.7423 220.66C79.6272 220.88 79.8739 220.854 79.8739 220.854C80.0547 220.731 79.9889 220.634 79.7423 220.66C79.9231 220.537 79.9231 220.537 79.7423 220.66Z" fill="#9B9B9B"/>
<path d="M77.8354 227.192C77.9008 227.288 77.9008 227.288 77.8354 227.192C78.0823 227.165 77.9008 227.288 77.8354 227.192Z" fill="#9B9B9B"/>
<path d="M273.472 29.1011C273.356 29.3207 273.537 29.1973 273.537 29.1973C273.537 29.1973 273.537 29.1973 273.472 29.1011Z" fill="#9B9B9B"/>
<path d="M263.556 32.0213C263.376 32.1442 263.376 32.1442 263.441 32.241C263.507 32.3378 263.507 32.3378 263.688 32.2148C263.869 32.0919 263.869 32.0919 263.803 31.9951C263.737 31.8983 263.556 32.0213 263.556 32.0213Z" fill="#9B9B9B"/>
<path d="M257.489 35.156C257.308 35.2789 257.193 35.4986 257.259 35.5954C257.324 35.6922 257.571 35.666 257.752 35.543C257.933 35.4201 258.048 35.2004 257.982 35.1036C257.851 34.91 257.67 35.033 257.489 35.156Z" fill="#9B9B9B"/>
<path d="M251.324 38.9228C251.143 39.0458 251.028 39.2655 251.094 39.3623C251.159 39.459 251.406 39.4328 251.587 39.3099C251.768 39.1869 251.883 38.9672 251.817 38.8704C251.751 38.7737 251.505 38.7998 251.324 38.9228Z" fill="#9B9B9B"/>
<path d="M244.828 43.7629C244.467 44.0088 244.351 44.2286 244.483 44.4221C244.615 44.6156 244.861 44.5895 245.223 44.3436C245.585 44.0976 245.7 43.8779 245.568 43.6844C245.617 43.3678 245.19 43.517 244.828 43.7629Z" fill="#9B9B9B"/>
<path d="M238.236 49.2356C237.874 49.4815 237.644 49.921 237.775 50.1145C237.907 50.3081 238.4 50.2557 238.762 50.0098C239.124 49.7639 239.354 49.3244 239.222 49.1309C239.091 48.9373 238.597 48.9897 238.236 49.2356Z" fill="#9B9B9B"/>
<path d="M231.002 55.71C230.64 55.9559 230.41 56.3954 230.542 56.5889C230.673 56.7825 231.167 56.7301 231.528 56.4842C231.89 56.2382 232.12 55.7988 231.989 55.6052C232.038 55.2887 231.545 55.3411 231.002 55.71Z" fill="#9B9B9B"/>
<path d="M223.175 62.8704C222.632 63.2393 222.402 63.6787 222.599 63.9691C222.797 64.2594 223.29 64.207 223.833 63.8381C224.375 63.4693 224.605 63.0298 224.408 62.7395C224.211 62.4492 223.717 62.5015 223.175 62.8704Z" fill="#9B9B9B"/>
<path d="M214.888 70.9093C214.346 71.2782 214.116 71.7176 214.313 72.008C214.51 72.2983 215.004 72.2459 215.546 71.877C216.089 71.5082 216.319 71.0687 216.122 70.7784C216.105 70.3651 215.431 70.5404 214.888 70.9093Z" fill="#9B9B9B"/>
<path d="M205.763 79.6598C205.221 80.0286 204.876 80.6878 205.073 80.9781C205.27 81.2685 206.01 81.1899 206.553 80.821C207.096 80.4522 207.441 79.793 207.243 79.5026C207.046 79.2123 206.487 79.1679 205.763 79.6598Z" fill="#9B9B9B"/>
<path d="M195.356 90.4142C195.574 90.7348 196.237 90.6645 196.836 90.2571C197.435 89.8496 197.745 89.2593 197.527 88.9387C197.309 88.618 196.646 88.6883 196.047 89.0958C195.447 89.5032 195.138 90.0935 195.356 90.4142Z" fill="#9B9B9B"/>
<path d="M185.605 99.0235C185.063 99.3924 184.717 100.052 184.915 100.342C185.112 100.632 185.852 100.554 186.395 100.185C186.937 99.8159 187.283 99.1567 187.085 98.8664C186.888 98.5761 186.148 98.6546 185.605 99.0235Z" fill="#9B9B9B"/>
<path d="M174.508 109.54C173.965 109.909 173.62 110.568 173.817 110.858C174.015 111.149 174.754 111.07 175.297 110.701C175.84 110.332 176.185 109.673 175.988 109.383C175.724 108.996 175.05 109.171 174.508 109.54Z" fill="#9B9B9B"/>
<path d="M163.048 120.302C162.505 120.671 162.16 121.33 162.357 121.621C162.555 121.911 163.295 121.832 163.837 121.463C164.38 121.095 164.725 120.435 164.528 120.145C164.084 119.881 163.59 119.933 163.048 120.302Z" fill="#9B9B9B"/>
<path d="M151.227 131.31C150.684 131.679 150.454 132.119 150.651 132.409C150.849 132.699 151.342 132.647 151.884 132.278C152.427 131.909 152.657 131.47 152.46 131.18C152.262 130.889 151.769 130.942 151.227 131.31Z" fill="#9B9B9B"/>
<path d="M139.224 142.441C138.681 142.81 138.451 143.25 138.648 143.54C138.846 143.83 139.339 143.778 139.882 143.409C140.424 143.04 140.654 142.601 140.457 142.311C140.26 142.02 139.766 142.073 139.224 142.441Z" fill="#9B9B9B"/>
<path d="M127.649 153.424C127.288 153.67 127.058 154.109 127.189 154.303C127.321 154.496 127.814 154.444 128.176 154.198C128.537 153.952 128.768 153.512 128.636 153.319C128.685 153.002 128.192 153.055 127.649 153.424Z" fill="#9B9B9B"/>
<path d="M116.223 165.012C116.369 165.226 116.811 165.179 117.21 164.908C117.61 164.636 117.816 164.242 117.67 164.029C117.525 163.815 117.083 163.862 116.684 164.133C116.284 164.405 116.078 164.799 116.223 165.012Z" fill="#9B9B9B"/>
<path d="M106.505 174.448C106.144 174.694 106.028 174.914 106.16 175.108C106.292 175.301 106.538 175.275 106.9 175.029C107.262 174.783 107.377 174.563 107.245 174.37C107.179 174.273 106.867 174.203 106.505 174.448Z" fill="#9B9B9B"/>
<path d="M97.6109 184.316C97.43 184.439 97.315 184.659 97.3808 184.755C97.4466 184.852 97.6932 184.826 97.8741 184.703C98.0549 184.58 98.17 184.36 98.1042 184.263C98.0384 184.167 97.7918 184.193 97.6109 184.316Z" fill="#9B9B9B"/>
<path d="M90.1803 193.613C89.9994 193.736 89.8843 193.955 89.9501 194.052C90.0159 194.149 90.2626 194.123 90.4434 194C90.6243 193.877 90.7394 193.657 90.6736 193.56C90.3611 193.49 90.3611 193.49 90.1803 193.613Z" fill="#9B9B9B"/>
<path d="M84.3927 202.216C84.2776 202.436 84.3434 202.533 84.5243 202.41C84.6393 202.19 84.6393 202.19 84.3927 202.216C84.5735 202.093 84.5735 202.093 84.3927 202.216Z" fill="#9B9B9B"/>
<path d="M80.6117 209.881C80.6771 209.977 80.6771 209.977 80.6117 209.881C80.8586 209.854 80.6771 209.977 80.6117 209.881Z" fill="#9B9B9B"/>
<path d="M260.597 30.7794C260.662 30.8756 260.481 30.999 260.597 30.7794C260.662 30.8756 260.662 30.8756 260.597 30.7794Z" fill="#9B9B9B"/>
<path d="M250.994 33.7705C250.878 33.9901 251.059 33.8668 251.059 33.8668C251.124 33.963 251.24 33.7434 250.994 33.7705Z" fill="#9B9B9B"/>
<path d="M244.071 37.2029C243.89 37.3259 243.89 37.3259 243.956 37.4226C244.022 37.5194 244.022 37.5194 244.203 37.3965C244.384 37.2735 244.384 37.2735 244.318 37.1767C244.252 37.08 244.252 37.08 244.071 37.2029Z" fill="#9B9B9B"/>
<path d="M236.87 41.3912C236.689 41.5141 236.574 41.7339 236.64 41.8306C236.705 41.9274 236.952 41.9012 237.133 41.7783C237.314 41.6553 237.429 41.4356 237.363 41.3388C237.231 41.1453 237.051 41.2682 236.87 41.3912Z" fill="#9B9B9B"/>
<path d="M229.634 46.3096C229.454 46.4326 229.338 46.6523 229.404 46.7491C229.47 46.8459 229.717 46.8197 229.898 46.6967C230.078 46.5738 230.193 46.354 230.128 46.2573C230.062 46.1605 229.815 46.1867 229.634 46.3096Z" fill="#9B9B9B"/>
<path d="M221.528 52.6693C221.637 52.8296 221.969 52.7945 222.268 52.5907C222.568 52.387 222.722 52.0919 222.613 51.9316C222.504 51.7712 222.173 51.8064 221.873 52.0101C221.574 52.2138 221.419 52.509 221.528 52.6693Z" fill="#9B9B9B"/>
<path d="M213.964 58.6603C213.603 58.9062 213.487 59.1259 213.619 59.3194C213.751 59.513 213.997 59.4868 214.359 59.2409C214.721 58.995 214.836 58.7752 214.704 58.5817C214.573 58.3882 214.145 58.5373 213.964 58.6603Z" fill="#9B9B9B"/>
<path d="M205.466 65.9956C205.104 66.2415 204.874 66.681 205.006 66.8745C205.137 67.0681 205.631 67.0157 205.992 66.7698C206.354 66.5239 206.584 66.0844 206.453 65.8909C206.321 65.6973 205.828 65.7497 205.466 65.9956Z" fill="#9B9B9B"/>
<path d="M196.438 74.1133C196.076 74.3592 195.846 74.7987 195.977 74.9922C196.109 75.1858 196.602 75.1334 196.964 74.8875C197.326 74.6416 197.556 74.2021 197.424 74.0086C197.293 73.815 196.799 73.8674 196.438 74.1133Z" fill="#9B9B9B"/>
<path d="M187.001 82.793C186.639 83.0389 186.409 83.4784 186.541 83.6719C186.672 83.8654 187.166 83.8131 187.527 83.5672C187.889 83.3212 188.119 82.8818 187.988 82.6882C187.856 82.4947 187.363 82.5471 187.001 82.793Z" fill="#9B9B9B"/>
<path d="M176.973 92.1585C176.611 92.4044 176.2 92.9668 176.397 93.2572C176.595 93.5475 177.088 93.4951 177.631 93.1262C178.173 92.7573 178.403 92.3179 178.206 92.0276C178.009 91.7372 177.515 91.7896 176.973 92.1585Z" fill="#9B9B9B"/>
<path d="M166.712 101.963C166.35 102.209 165.939 102.772 166.137 103.062C166.334 103.352 166.827 103.3 167.37 102.931C167.912 102.562 168.143 102.123 167.945 101.832C167.748 101.542 167.254 101.594 166.712 101.963Z" fill="#9B9B9B"/>
<path d="M156.157 112.11C155.796 112.356 155.566 112.796 155.697 112.989C155.829 113.183 156.322 113.13 156.684 112.885C157.045 112.639 157.276 112.199 157.144 112.006C156.947 111.715 156.519 111.864 156.157 112.11Z" fill="#9B9B9B"/>
<path d="M145.239 122.504C144.878 122.75 144.648 123.189 144.779 123.383C144.911 123.577 145.404 123.524 145.766 123.278C146.127 123.032 146.358 122.593 146.226 122.399C146.094 122.206 145.601 122.258 145.239 122.504Z" fill="#9B9B9B"/>
<path d="M134.453 133.091C134.092 133.337 133.861 133.777 133.993 133.97C134.125 134.164 134.618 134.111 134.98 133.865C135.341 133.62 135.571 133.18 135.44 132.987C135.308 132.793 134.996 132.722 134.453 133.091Z" fill="#9B9B9B"/>
<path d="M124.162 143.626C123.8 143.872 123.751 144.188 123.816 144.285C123.882 144.382 124.375 144.329 124.556 144.206C124.918 143.96 124.967 143.644 124.901 143.547C124.836 143.45 124.523 143.38 124.162 143.626Z" fill="#9B9B9B"/>
<path d="M114.298 154.011C113.936 154.257 113.821 154.476 113.953 154.67C114.085 154.864 114.331 154.837 114.693 154.591C115.055 154.346 115.17 154.126 115.038 153.932C114.907 153.739 114.479 153.888 114.298 154.011Z" fill="#9B9B9B"/>
<path d="M105.287 164.098C105.106 164.221 104.991 164.441 105.057 164.538C105.122 164.635 105.369 164.608 105.55 164.485C105.731 164.362 105.846 164.143 105.78 164.046C105.714 163.949 105.468 163.975 105.287 164.098Z" fill="#9B9B9B"/>
<path d="M97.1324 173.887C96.9515 174.01 96.8365 174.23 96.9022 174.327C96.968 174.423 97.2147 174.397 97.3955 174.274C97.5764 174.151 97.6915 173.932 97.6257 173.835C97.5599 173.738 97.4941 173.641 97.1324 173.887Z" fill="#9B9B9B"/>
<path d="M90.6229 182.983C90.442 183.106 90.5078 183.202 90.5078 183.202C90.5736 183.299 90.7544 183.176 90.7544 183.176C90.9353 183.053 90.8695 182.956 90.8695 182.956C90.8695 182.956 90.8037 182.86 90.6229 182.983Z" fill="#9B9B9B"/>
<path d="M85.6413 191.604C85.4604 191.727 85.4604 191.727 85.6413 191.604C85.5262 191.824 85.592 191.921 85.7729 191.798C85.7729 191.798 85.8879 191.578 85.6413 191.604Z" fill="#9B9B9B"/>
<path d="M63.5434 208.892C63.6088 208.988 63.6088 208.988 63.5434 208.892C63.7903 208.865 63.6088 208.988 63.5434 208.892Z" fill="#9B9B9B"/>
<path d="M239.385 36.1439C239.45 36.2401 239.269 36.3635 239.385 36.1439C239.45 36.2401 239.45 36.2401 239.385 36.1439Z" fill="#9B9B9B"/>
<path d="M231.542 39.7782C231.427 39.9979 231.673 39.9717 231.673 39.9717C231.673 39.9717 231.854 39.8487 231.542 39.7782Z" fill="#9B9B9B"/>
<path d="M223.666 44.1418C223.485 44.2647 223.551 44.3615 223.551 44.3615C223.617 44.4583 223.797 44.3353 223.797 44.3353C223.978 44.2123 223.912 44.1156 223.912 44.1156L223.666 44.1418Z" fill="#9B9B9B"/>
<path d="M215.576 49.3583C215.395 49.4813 215.28 49.701 215.346 49.7978C215.411 49.8946 215.658 49.8684 215.839 49.7454C216.02 49.6225 216.135 49.4027 216.069 49.306C216.003 49.2092 215.757 49.2354 215.576 49.3583Z" fill="#9B9B9B"/>
<path d="M207.207 55.3311C207.026 55.4541 206.911 55.6738 206.976 55.7706C207.042 55.8674 207.289 55.8412 207.47 55.7182C207.651 55.5953 207.766 55.3755 207.7 55.2788C207.634 55.182 207.388 55.2082 207.207 55.3311Z" fill="#9B9B9B"/>
<path d="M198.558 62.0598C198.377 62.1827 198.262 62.4025 198.327 62.4992C198.393 62.596 198.64 62.5698 198.821 62.4469C199.002 62.3239 199.117 62.1042 199.051 62.0074C199.166 61.7877 198.919 61.8139 198.558 62.0598Z" fill="#9B9B9B"/>
<path d="M189.811 69.4215C189.63 69.5444 189.334 69.8871 189.466 70.0807C189.531 70.1775 189.844 70.248 190.206 70.0021C190.567 69.7562 190.682 69.5365 190.551 69.3429C190.238 69.2723 189.992 69.2985 189.811 69.4215Z" fill="#9B9B9B"/>
<path d="M180.472 77.4685C180.11 77.7144 179.995 77.9341 180.127 78.1277C180.258 78.3212 180.505 78.295 180.867 78.0491C181.229 77.8032 181.344 77.5835 181.212 77.3899C181.08 77.1964 180.834 77.2226 180.472 77.4685Z" fill="#9B9B9B"/>
<path d="M170.968 86.0515C170.606 86.2974 170.491 86.5171 170.623 86.7107C170.755 86.9042 171.001 86.878 171.363 86.6321C171.725 86.3862 171.84 86.1665 171.708 85.9729C171.577 85.7794 171.149 85.9285 170.968 86.0515Z" fill="#9B9B9B"/>
<path d="M161.12 95.2939C160.758 95.5398 160.643 95.7596 160.774 95.9531C160.906 96.1467 161.153 96.1205 161.514 95.8746C161.876 95.6286 161.991 95.4089 161.859 95.2154C161.728 95.0218 161.481 95.048 161.12 95.2939Z" fill="#9B9B9B"/>
<path d="M151.223 104.853C150.861 105.098 150.746 105.318 150.878 105.512C151.009 105.705 151.256 105.679 151.618 105.433C151.98 105.187 152.095 104.968 151.963 104.774C151.831 104.58 151.585 104.607 151.223 104.853Z" fill="#9B9B9B"/>
<path d="M141.277 114.728C140.915 114.974 140.8 115.194 140.932 115.387C141.063 115.581 141.31 115.555 141.671 115.309C142.033 115.063 142.148 114.843 142.017 114.649C141.885 114.456 141.638 114.482 141.277 114.728Z" fill="#9B9B9B"/>
<path d="M131.395 124.7C131.214 124.823 130.918 125.166 131.05 125.359C131.115 125.456 131.428 125.527 131.79 125.281C132.151 125.035 132.266 124.815 132.135 124.621C132.069 124.525 131.757 124.454 131.395 124.7Z" fill="#9B9B9B"/>
<path d="M122.072 134.717C121.891 134.84 121.776 135.06 121.842 135.156C121.907 135.253 122.154 135.227 122.335 135.104C122.516 134.981 122.631 134.761 122.565 134.664C122.499 134.568 122.253 134.594 122.072 134.717Z" fill="#9B9B9B"/>
<path d="M113.244 144.681C113.063 144.804 112.948 145.024 113.014 145.121C113.079 145.217 113.326 145.191 113.507 145.068C113.688 144.945 113.803 144.726 113.737 144.629C113.49 144.655 113.425 144.558 113.244 144.681Z" fill="#9B9B9B"/>
<path d="M105.088 154.47C104.908 154.593 104.793 154.813 104.858 154.909C104.924 155.006 105.171 154.98 105.352 154.857C105.532 154.734 105.648 154.514 105.582 154.418C105.335 154.444 105.269 154.347 105.088 154.47Z" fill="#9B9B9B"/>
<path d="M98.0359 163.934C97.8551 164.057 97.9209 164.154 97.9209 164.154C97.9867 164.251 98.1675 164.128 98.1675 164.128C98.3484 164.005 98.2826 163.908 98.2826 163.908L98.0359 163.934Z" fill="#9B9B9B"/>
<path d="M92.3301 173.048C92.1486 173.172 92.1486 173.172 92.3301 173.048C92.214 173.268 92.3955 173.144 92.3955 173.144C92.3955 173.144 92.3955 173.144 92.3301 173.048Z" fill="#9B9B9B"/>
<path d="M88.0244 181.495C87.8429 181.618 87.8429 181.618 88.0244 181.495C87.9084 181.714 87.9084 181.714 88.0244 181.495C88.0898 181.591 88.0898 181.591 88.0244 181.495Z" fill="#9B9B9B"/>
<path d="M211.974 47.562C211.858 47.7816 212.039 47.6582 212.039 47.6582C212.039 47.6582 212.039 47.6582 211.974 47.562Z" fill="#9B9B9B"/>
<path d="M203.392 52.8313C203.211 52.9543 203.277 53.051 203.392 52.8313C203.277 53.051 203.523 53.0248 203.523 53.0248C203.523 53.0248 203.523 53.0248 203.392 52.8313Z" fill="#9B9B9B"/>
<path d="M194.596 58.9525C194.415 59.0755 194.48 59.1723 194.48 59.1723C194.546 59.2691 194.727 59.1461 194.727 59.1461C194.908 59.0231 194.842 58.9264 194.842 58.9264L194.596 58.9525Z" fill="#9B9B9B"/>
<path d="M185.699 65.7077C185.518 65.8306 185.584 65.9274 185.584 65.9274C185.65 66.0242 185.831 65.9012 185.831 65.9012C186.011 65.7783 185.946 65.6815 185.946 65.6815C185.88 65.5847 185.699 65.7077 185.699 65.7077Z" fill="#9B9B9B"/>
<path d="M176.46 73.1213C176.279 73.2442 176.164 73.464 176.229 73.5607C176.295 73.6575 176.542 73.6313 176.723 73.5084C176.904 73.3854 177.019 73.1657 176.953 73.0689C176.887 72.9721 176.64 72.9983 176.46 73.1213Z" fill="#9B9B9B"/>
<path d="M167.301 81.0454C167.12 81.1683 167.005 81.388 167.071 81.4848C167.137 81.5816 167.384 81.5554 167.565 81.4324C167.745 81.3095 167.86 81.0898 167.795 80.993C167.729 80.8962 167.482 80.9224 167.301 81.0454Z" fill="#9B9B9B"/>
<path d="M157.979 89.5057C157.798 89.6286 157.683 89.8484 157.749 89.9451C157.815 90.0419 158.061 90.0157 158.242 89.8928C158.423 89.7698 158.538 89.5501 158.472 89.4533C158.407 89.3565 158.16 89.3827 157.979 89.5057Z" fill="#9B9B9B"/>
<path d="M148.491 98.5024C148.31 98.6253 148.195 98.8451 148.261 98.9418C148.326 99.0386 148.573 99.0124 148.754 98.8895C148.935 98.7665 149.05 98.5468 148.984 98.45C148.918 98.3532 148.672 98.3794 148.491 98.5024Z" fill="#9B9B9B"/>
<path d="M139.382 107.666C139.202 107.789 139.086 108.009 139.152 108.105C139.218 108.202 139.465 108.176 139.646 108.053C139.826 107.93 139.942 107.71 139.876 107.614C139.81 107.517 139.563 107.543 139.382 107.666Z" fill="#9B9B9B"/>
<path d="M130.226 117.146C130.045 117.269 129.93 117.489 129.996 117.586C130.062 117.682 130.308 117.656 130.489 117.533C130.67 117.41 130.785 117.19 130.719 117.094C130.654 116.997 130.407 117.023 130.226 117.146Z" fill="#9B9B9B"/>
<path d="M121.396 127.111C121.469 127.217 121.69 127.194 121.89 127.058C122.089 126.922 122.193 126.726 122.12 126.619C122.047 126.512 121.826 126.535 121.627 126.671C121.427 126.807 121.324 127.004 121.396 127.111Z" fill="#9B9B9B"/>
<path d="M113.588 136.24C113.407 136.363 113.473 136.46 113.473 136.46C113.539 136.557 113.72 136.434 113.72 136.434C113.9 136.311 113.835 136.214 113.835 136.214C114.015 136.091 113.769 136.117 113.588 136.24Z" fill="#9B9B9B"/>
<path d="M106.469 145.608C106.288 145.731 106.288 145.731 106.353 145.827C106.419 145.924 106.419 145.924 106.6 145.801C106.781 145.678 106.781 145.678 106.715 145.582L106.469 145.608Z" fill="#9B9B9B"/>
<path d="M100.09 154.896C99.9749 155.116 100.222 155.09 100.222 155.09C100.337 154.87 100.337 154.87 100.09 154.896C100.271 154.773 100.271 154.773 100.09 154.896Z" fill="#9B9B9B"/>
<path d="M95.1748 163.615C94.9933 163.739 94.9933 163.739 95.1748 163.615C95.0587 163.835 95.2402 163.712 95.2402 163.712C95.2402 163.712 95.2402 163.712 95.1748 163.615Z" fill="#9B9B9B"/>
<path d="M193.147 56.824C193.212 56.9202 193.212 56.9202 193.147 56.824C193.394 56.7968 193.212 56.9202 193.147 56.824Z" fill="#9B9B9B"/>
<path d="M184.104 62.9717C183.988 63.1913 184.17 63.0679 184.17 63.0679C184.351 62.9445 184.351 62.9445 184.104 62.9717C184.286 62.8483 184.286 62.8483 184.104 62.9717Z" fill="#9B9B9B"/>
<path d="M175.143 69.6296C175.028 69.8493 175.275 69.8231 175.275 69.8231C175.275 69.8231 175.39 69.6034 175.143 69.6296Z" fill="#9B9B9B"/>
<path d="M166.083 76.9205C165.968 77.1402 166.215 77.114 166.215 77.114C166.396 76.9911 166.396 76.9911 166.083 76.9205C166.33 76.8943 166.264 76.7975 166.083 76.9205Z" fill="#9B9B9B"/>
<path d="M157.106 84.7216C156.925 84.8445 156.925 84.8445 156.991 84.9413C157.057 85.0381 157.057 85.0381 157.238 84.9151C157.419 84.7922 157.419 84.7922 157.353 84.6954L157.106 84.7216Z" fill="#9B9B9B"/>
<path d="M148.212 93.0326C148.031 93.1556 148.031 93.1556 148.097 93.2524C148.162 93.3491 148.162 93.3491 148.343 93.2262C148.524 93.1032 148.524 93.1032 148.458 93.0064C148.393 92.9097 148.393 92.9097 148.212 93.0326Z" fill="#9B9B9B"/>
<path d="M139.514 101.634C139.334 101.757 139.334 101.757 139.399 101.854C139.465 101.951 139.465 101.951 139.646 101.828C139.827 101.705 139.827 101.705 139.761 101.608C139.695 101.511 139.514 101.634 139.514 101.634Z" fill="#9B9B9B"/>
<path d="M131.014 110.526C130.899 110.745 130.964 110.842 131.145 110.719C131.326 110.596 131.326 110.596 131.014 110.526C131.26 110.5 131.195 110.403 131.014 110.526Z" fill="#9B9B9B"/>
<path d="M123.139 119.559C123.024 119.778 123.27 119.752 123.27 119.752C123.451 119.629 123.385 119.532 123.139 119.559C123.32 119.436 123.32 119.436 123.139 119.559Z" fill="#9B9B9B"/>
<path d="M115.822 128.636C115.706 128.856 115.887 128.732 115.887 128.732C116.069 128.609 116.069 128.609 115.822 128.636C116.003 128.513 116.003 128.513 115.822 128.636Z" fill="#9B9B9B"/>
<path d="M167.563 73.651C167.382 73.7744 167.382 73.7744 167.563 73.651C167.447 73.8706 167.447 73.8706 167.563 73.651C167.629 73.7472 167.629 73.7472 167.563 73.651Z" fill="#9B9B9B"/>
<path d="M141.848 96.5098C141.914 96.606 141.914 96.606 141.848 96.5098C142.095 96.4826 142.095 96.4826 141.848 96.5098C142.03 96.3864 142.03 96.3864 141.848 96.5098Z" fill="#9B9B9B"/>
<path d="M134.005 104.813C134.071 104.909 134.071 104.909 134.005 104.813C134.252 104.786 134.252 104.786 134.005 104.813C134.187 104.69 134.187 104.69 134.005 104.813Z" fill="#9B9B9B"/>
</g>
<defs>
<clipPath id="clip0_2013_2696">
<rect width="292.43" height="331.58" fill="white" transform="translate(274.213 0.579468) rotate(55.7906)"/>
</clipPath>
</defs>
</svg>
